<?xml version="1.0" encoding="UTF-8"?><svg xmlns="http://www.w3.org/2000/svg" viewBox="0 0 138.98 57.32"><defs><style>.d{fill:#fff;}.e{fill:#595757;}.f{fill:#00a4d7;}</style></defs><g id="a"/><g id="b"><g id="c"><g><path class="d" d="M18.86,19.53s-10.14-5.87-13.32,4.3L0,26.12l5.72,1.46s2.51,6.61,10.57,4.2c0,0-4.38,9.41,1.9,16.4,0,0,11.93,12.32,13.83,8.34,0,0,1.21-2.54-2.64-6.12,0,0,9.11,4.39,1.75-5.35,0,0,8.28,3.45,.27-6.42,0,0-3.54-4.63,1.04-5.6,0,0,8.7-2.23,16.83-5.1l8.93,2.35-.55-7.82-8.29,2.88-15.37-4.62s-3.46-1.87-.49-4.32c0,0,11.25-5.72,4.25-6.1,0,0,8.93-4.93,1.34-4.95,0,0,9.92-6.54,1.2-5.19,0,0-11.81,2.5-16.37,7.05,0,0-6.42,5.04-5.06,12.3Z"/><path class="e" d="M10.98,22.26c.48,.51,.46,1.32-.05,1.81-.51,.48-1.32,.46-1.81-.05s-.46-1.32,.05-1.81,1.32-.46,1.81,.05Z"/><g><path class="f" d="M19.96,36.92c-.65,7.86,5.3,9.94,5.3,9.94,0,0-4.12-6.15-5.3-9.94Z"/><path class="f" d="M27.62,41.75s-4.06-.77-4.18-6.1c0,0,1.91,4.13,4.18,6.1Z"/></g><g><path class="f" d="M25.93,13.62c.73-6.42,7.92-7.23,7.92-7.23,0,0-6.76,3.48-7.92,7.23Z"/><path class="f" d="M28.66,14.95c.88-4.94,6.46-5.06,6.46-5.06,0,0-5.14,2.25-6.46,5.06Z"/></g></g><path class="d" d="M69.22,25.77c10.15,.47,20.78-.46,30.51-3.52,3.39-1.07,7.03-2.74,8.96-5.89,1.76-2.88,1.47-6.46-.55-9.12-2.17-2.85-5.82-4.01-9.17-2.59-3.2,1.36-5.46,4.65-5.11,8.17,.37,3.74,3.27,6.82,6.61,8.25,4.24,1.82,9.09,1.5,13.57,.95,9.2-1.13,18.54-4.4,24.68-11.67,.87-1.03-.62-2.54-1.5-1.5-4.44,5.25-10.64,8.34-17.24,9.96-3.45,.85-7,1.34-10.56,1.47-3.82,.14-8-.26-10.93-2.97-2.61-2.41-3.56-6.27-1-9.09,2.39-2.64,6.36-2.78,8.71-.04,2.25,2.62,1.91,6.11-.47,8.49-2.28,2.28-5.59,3.31-8.63,4.1-9.09,2.38-18.5,3.3-27.88,2.87-1.36-.06-1.36,2.05,0,2.12h0Z"/></g></g></svg>