<?xml version="1.0" encoding="UTF-8"?><svg xmlns="http://www.w3.org/2000/svg" viewBox="0 0 110.51 57.46"><defs><style>.d{fill:#fff;}</style></defs><g id="a"/><g id="b"><g id="c"><path class="d" d="M93.34,8.97c-3.49,0-6.74,1.05-9.45,2.84-2.94-6.94-9.81-11.81-17.82-11.81-5.42,0-10.31,2.24-13.82,5.83-3.1-3.56-7.65-5.83-12.74-5.83-7.27,0-13.44,4.6-15.83,11.03-1.89-.69-3.91-1.08-6.04-1.08C7.9,9.95,0,17.85,0,27.59s7.9,17.64,17.64,17.64c2.09,0,4.09-.38,5.95-1.05,2.54,7.72,9.8,13.29,18.37,13.29,7.15,0,13.39-3.89,16.73-9.67,3.44,4.06,8.58,6.64,14.32,6.64,7.76,0,14.42-4.71,17.28-11.43,.99,.18,2.01,.29,3.06,.29,9.48,0,17.17-7.69,17.17-17.17s-7.69-17.17-17.17-17.17Z"/></g></g></svg>