<?xml version="1.0" encoding="UTF-8"?><svg xmlns="http://www.w3.org/2000/svg" viewBox="0 0 759.65 143.78"><defs><style>.d{fill:#fff;stroke-width:.5px;}.d,.e{stroke:#fff;stroke-linecap:round;stroke-linejoin:round;}.e{fill:none;stroke-width:5px;}.f{fill:#013591;}.g{fill:#ff7814;}</style></defs><g id="a"/><g id="b"><g id="c"><path class="f" d="M759.65,114.97s-143.2,31.37-265.95,28.64c-107.72-2.39-154.29-19.12-259.13-34.1C100.92,90.42,12.27,117.7,12.27,117.7L0,52.24s100.92-30,234.58-10.91c104.83,14.98,151.41,31.7,259.13,34.1,122.74,2.73,256.4-28.64,256.4-28.64l-28.64,35.46,38.19,32.73Z"/><g><path class="d" d="M52.54,89.08c-4.89,1.01-12.55,2.19-17.34,2.91-3.49,.52-4.22-4.46-.76-4.83,5-.55,13.46-1.81,16.87-2.55,1.38-.3,2.47-1.27,2.31-3-.27-2.81-.98-7.55-1.43-9.96-.27-1.53-1.51-2.2-3.29-1.98-4.11,.47-11.42,1.84-16.22,2.79-3.6,.72-4.46-3.8-.9-4.48,5.08-.99,13.43-2.33,18.1-2.92,4.62-.59,6.65,1.91,7.11,5.03,.42,2.84,1.2,7.76,1.72,11.91,.57,4.48-2.66,6.38-6.17,7.09Z"/><path class="d" d="M94.14,85.43c-5.79,.7-9.02,.94-13.58,1.2-4.79,.24-7.4-1.99-7.88-5.91-.55-4.62-.85-7.99-1.07-12.03-.17-3.48,1.7-6.43,6.59-7.1,5.22-.7,9.58-.99,14.14-1.25,3.9-.2,6.82,2.42,7.17,5.36,.52,4.25,.89,8.41,1.1,12.45,.21,3.95-2.09,6.74-6.48,7.27Zm.6-17.7c-.27-2-1.36-3.09-3.75-2.97-4.04,.22-7.74,.54-11.38,1.01-2.61,.33-3.29,1.71-3.22,3.64,.08,3.06,.41,6.71,.88,9.88,.28,2.05,1.29,2.86,3.87,2.72,4.27-.24,7.09-.39,11.33-1,1.96-.27,3.17-1.46,3.09-3.44-.13-3.1-.41-6.71-.83-9.83Z"/><path class="d" d="M120.04,88.02c-3.91,1.64-5.33-2.98-2.31-4.18,8.1-3.24,11.67-9.62,11.84-16.4-4.32,.15-8.64,.43-12.86,.67-3.33,.22-3.95-4.28-.25-4.51,4.18-.24,8.55-.43,12.96-.58-.11-2.72-.26-5.35-.35-6.95-.22-3.52,4.58-3.21,4.88-.44s.3,5.02,.35,7.23c3.76-.13,7.42-.22,10.95-.25,1.93,0,2.8,1.16,2.78,2.33s-.98,2.37-2.86,2.32c-3.48-.06-7.1-.02-10.72,.06-.08,8.7-4.88,16.66-14.42,20.69Z"/><path class="d" d="M177.07,59.78c2.21,.1,4.32,.24,6.15,.37,3.38,.25,5.78,2.14,5.44,5.56-1.06,9.97-7.47,19.61-21.66,22.5-3.37,.7-4.57-4.11-1.01-4.66,11.13-1.71,16.66-9.65,17.36-16.86,.16-1.5-.5-2.42-2.1-2.59-3.84-.36-11.12-.64-13.9-.62-1.55,.02-2.22,1.22-2.27,2.25-.05,1.13-.08,4-.1,5.41-.08,2.91-4.98,2.98-4.89,.02,.01-1.36,.2-4.41,.26-6.76,.09-4.14,4.18-4.99,6.01-4.95,1.83,.04,3.85,.08,5.92,.17,.08-1.83,.15-4.46,.21-5.64,.07-1.55,1.32-2.25,2.54-2.19s2.36,.86,2.3,2.31l-.25,5.68Z"/><path class="d" d="M201.33,80.68c-4.6,2.12-6.48-2.93-3.12-4.1,9.08-3.21,18.99-10.77,25.23-18.47,2.43-2.98,6.19,.48,3.87,2.96-2.43,2.56-4.72,4.85-7,6.95-.69,4.75-2.2,16.97-2.6,21.65-.32,3.56-5.41,3.4-4.92-.43,.48-3.73,1.55-11.32,2.22-16.78-4.1,3.17-8.48,5.83-13.68,8.21Z"/><path class="d" d="M232.17,86.44c7.35-1.99,12.6-8.5,13.57-17.43,.37-3.6,5.21-2.61,4.84,.38-1.04,8.83-6.55,17.86-16.44,21.5-3.89,1.44-5.75-3.42-1.97-4.45Zm24.12,5.48c-3.25,1.01-6.36-.71-5.41-4.65,.98-4.13,3.03-15.13,3.46-17.87,.53-3.39,5.21-2.61,4.64,.72-.33,1.8-2.71,13.99-3,15.56-.21,1.01,.34,1.19,1.3,.82,4.35-1.65,8.69-5.4,12.17-9.99,2.16-2.85,5.94,.36,3.86,2.98-4.1,5.26-10.2,10.2-17.02,12.42Z"/><path class="d" d="M281.34,99.39c-3.6,.65-4.37-4.17-.68-4.75,8.94-1.42,17.57-7.52,22.46-13.76,.56-.71,.5-1.49-.52-1.67-2.91-.57-9.33-1.47-13.42-2.1-2.79-.4-2.19-4.88,.8-4.49,3.4,.46,10.22,1.58,14.9,2.41,4.17,.74,6.06,3.8,3.69,6.63-2.06,2.45-4.2,4.79-6.54,6.95,3.43,3,8.61,7.93,10.22,11.27,1.39,2.92-2.72,5.91-4.41,2.8-1.77-3.23-5.78-8.29-9.17-11.23-4.88,3.81-10.55,6.67-17.31,7.95Z"/><path class="d" d="M322.31,109.62c-1.53-.27-2.24-1.63-2.08-2.56,.13-.74,.78-1.44,1.97-1.71,1.24-.26,4.18-2.08,5.14-3.44,.57-.81,1.28-1.02,2.02-.89,1.11,.19,2.15,1.33,1.95,2.49-.4,2.27-6.54,6.53-8.99,6.1Zm39.81-25.03c-3.14-.6-6.28-1.2-9.43-1.75-.16,3.36-.14,6.51,.33,9.27,1.28-1.59,2.34-3.26,3.16-4.93,.44-.88,1.2-1.13,1.94-1,1.02,.18,1.99,1.16,1.78,2.36-.08,.46-1.95,4.33-5.54,7.9,.66,1.4,1.67,3.01,2.68,3.19,.79,.14,1.54-.64,2.31-2.84,.39-1.12,1.26-1.45,2.09-1.3,1.11,.2,2.13,1.19,1.89,2.53-.32,1.81-2.76,6.72-6.83,6.01-1.06-.19-3.46-.94-5.3-4.89-1.86,1.34-3.9,2.37-6.02,3-.05,.04-.11,.08-.16,.07,2.16,2.1,2.26,3.17,2.15,3.81-.22,1.25-1.52,2.12-2.68,1.92-.56-.1-1.02-.42-1.39-1.06-.9-1.68-2.72-3.53-3.84-4.49-.54-.48-.73-1.03-.64-1.5,.17-.97,1.36-1.77,2.56-1.55,.37,.06,.64,.16,1.41,.68,0-.05,.02-.09,.02-.14,.11-.6,.5-1.2,1.3-1.4,2.26-.65,4.27-1.78,5.95-3.15-1.06-4-1.25-8.62-1.12-13.18-4.4-.77-8.62-1.47-12.52-2.1-1.39-.24-2.08,.45-2.28,1.56-.1,.56-.17,1.21-.3,2-.76,4.31-2.53,11.44-7.18,15.63-.79,.67-1.58,.87-2.32,.74-1.25-.22-2.24-1.4-2.03-2.55,.08-.46,.36-.94,.91-1.37,3.96-2.98,5.4-8.17,6.11-12.24,.26-1.48,.45-2.83,.59-3.9,0-.05,.02-.14,.03-.19,.42-2.36,2.53-4.09,5.69-3.58,4.17,.69,8.76,1.49,13.48,2.32,.06-.9,.08-1.8,.14-2.7,.02-.14,.04-.23,.06-.37,.23-1.3,1.32-1.82,2.29-1.65,1.06,.19,2,1.11,1.83,2.61-.12,.93-.23,1.87-.3,2.81,1.67,.29,3.37,.64,5.04,.93-.76-1.13-1.72-1.88-2.6-2.56-.47-.32-.58-.77-.52-1.14,.15-.88,1.24-1.64,2.22-1.47,.74,.13,4.55,2.33,4.19,4.41-.08,.46-.35,.89-.69,1.22l2.22,.39c1.2,.21,1.65,1.2,1.49,2.12-.16,.93-.93,1.75-2.13,1.53h-.05Zm-22.04,29c-7.18-1.26-8.88-2.99-8.19-6.88,.81-4.58,.93-5.04,1-5.41,.34-1.37,1.52-1.83,2.58-1.65,1.11,.2,2.09,1.13,1.87,2.38-.23,1.3-.83,4.48-.92,4.99-.19,1.64,.72,2.18,4.47,2.84,4.4,.77,6.04,.68,6.41-1.45,.21-1.2,1.27-1.54,2.34-1.35,1.2,.21,2.33,1.13,2.14,2.24-.89,5.09-3.95,5.65-11.68,4.29Zm-.96-15.73c-5.69-1-6.23-1.76-5.51-5.84,.5-2.82,1.2-4.37,4.53-3.79,1.06,.19,2.23,.34,3.34,.54,5.14,.9,5.09,1.99,4.42,5.79-.56,3.19-1.09,4.29-6.78,3.29Zm-3.27-12.08c-1.11-.19-1.53-1.08-1.39-1.87,.15-.83,.9-1.61,1.97-1.42l10.05,1.76c1.06,.19,1.47,1.12,1.34,1.9-.15,.83-.85,1.57-1.91,1.38l-10.05-1.77Zm1.08,7.68c-.11,.6,.14,.84,2.92,1.32,2.18,.38,2.43,.28,2.68-1.15,.27-1.53,.22-1.54-2.51-2.02-2.13-.37-2.65-.37-2.81,.22l-.28,1.62Zm19.57,19.81c-.94-2.26-2.69-4.24-3.96-5.47-.57-.58-.76-1.13-.66-1.69,.17-.97,1.31-1.73,2.56-1.51,1.67,.29,6.89,5.6,6.47,8.01-.24,1.34-1.63,2.2-2.83,1.98-.65-.11-1.25-.51-1.58-1.33Z"/><path class="d" d="M407.86,111.5l-13.3-1.97c4.14,4.11,8.59,6.7,13.5,9.3,1.02,.56,1.38,1.37,1.28,2.12-.16,1.21-1.45,2.32-2.89,2.13-1.26-.17-8.32-4.43-14.56-11.29l-1.07,8.68v.05c-.16,1.16-1.36,1.62-2.43,1.48-1.12-.15-2.11-.9-1.95-2.06v-.05l1.25-8.56c-6.05,4.07-15.41,7.42-17.04,7.2-1.35-.18-2.19-1.34-2.05-2.41,.09-.7,.66-1.38,1.79-1.66,5.83-1.4,10.32-3.07,15.1-6.13l-12.88-1.54h-.05c-1.3-.18-1.83-1.2-1.7-2.18,.13-.98,.97-1.91,2.27-1.73l15.37,2.06,.23-2.06c.15-1.45,1.44-1.89,2.46-1.76,1.12,.15,2.1,.95,1.93,2.25t-.01,.09l-.32,2.04,15.61,2.09c1.35,.18,1.87,1.25,1.74,2.22-.13,.98-.91,1.87-2.22,1.69h-.05Zm-33.74-9.74c-1.26-.17-2-1.36-1.86-2.43,.09-.65,.5-1.26,1.3-1.58,3.27-1.36,5.65-2.89,8.11-4.98,.48-.41,1.02-.57,1.54-.51,.98,.13,1.8,1.09,1.65,2.17-.06,.47-.32,1-.86,1.45-3.81,3.28-8.31,6.09-9.89,5.88Zm4.15-10.45c-1.24-.97-2.48-1.66-3.79-2.12-.91-.31-1.24-1.02-1.15-1.72,.13-.98,1.16-1.93,2.46-1.76,1.35,.18,3.63,1.2,4.89,2.08,.78,.53,1.01,1.32,.92,2.02-.15,1.12-1.14,2.12-2.3,1.97-.33-.04-.69-.19-1.03-.47Zm3.62-5.77c-.97-1.22-3.13-2.51-4-3.05-.7-.43-.96-.98-.88-1.59,.13-.98,1.25-1.87,2.46-1.71,.93,.12,4.27,2.14,5.47,3.39,.5,.54,.65,1.13,.58,1.69-.16,1.16-1.28,2.15-2.4,2-.42-.06-.86-.31-1.23-.73Zm26.15,10.1c.16-1.21,1.22-1.64,2.24-1.5s2.35,.84,2.14,2.47c-.85,6.38-3.46,7.08-8.4,6.42-4.29-.57-5.14-2.35-4.77-5.1,.23-1.72,1.33-4.61,1.7-5.98,.01-.09,.02-.19,.04-.28,.1-.75-.33-1.09-1.17-1.2l-1.86-.25c-1.67,5.37-4.79,9.89-12.07,11.52-.44,.08-.78,.13-1.1,.09-1.4-.19-1.99-1.41-1.85-2.48,.1-.75,.57-1.39,1.4-1.61,5.34-1.28,7.88-3.97,9.24-8.06-2.24-.25-4.39-.49-5-.57-1.21-.16-1.83-1.24-1.69-2.22,.12-.93,.95-1.77,2.39-1.58,.98,.13,2.98,.4,5.18,.65,.12-.51,.18-.97,.25-1.48,.07-.51,.14-1.02,.16-1.54t.01-.09c.19-1.4,1.35-1.91,2.46-1.76,1.16,.16,2.23,1.06,2.04,2.45v.05c-.14,.98-.31,1.95-.49,2.92l2.94,.39c2.65,.4,4.34,1.58,4.04,3.86-.04,.33-.13,.65-.22,.97-.63,1.91-1.68,5.09-1.83,6.25,0,0,0,.05-.01,.09-.1,.75-.1,1.08,1.07,1.23,1.72,.23,2.68,.17,3.14-3.23,.02-.14,.03-.23,.05-.37v-.05Z"/><path class="d" d="M450.98,100.6l-10.41-.76c-1.55-.11-2.13-1.15-2.06-2.18v-.19c-.28,.17-.67,.28-1.09,.25l-1.69-.12c-.71,3.29-1.77,6.89-3.21,10.42,4.04,3.4,4.14,4.68,4.08,5.39-.1,1.31-1.35,2.4-2.57,2.31-.61-.04-1.2-.37-1.67-1.06-.51-.74-1.12-1.5-1.86-2.26-3.37,6.73-8.42,12.68-10.95,12.49-1.31-.1-2.36-1.21-2.28-2.38,.04-.52,.31-1.06,.91-1.49,3.73-2.7,6.77-6.86,9.04-11.55-1.61-1.25-3.26-2.41-4.71-3.22-.82-.44-1.1-1.07-1.05-1.73,.08-1.03,1.13-1.99,2.35-1.9,.38,.03,1.12,.13,5.12,2.78,1-2.66,1.76-5.43,2.29-8.13l-8.95-.65c-1.41-.1-1.99-1.13-1.92-2.12s.86-2.06,2.22-1.96l5.81,.42,.42-6.38c.1-1.31,1.27-1.89,2.39-1.8s2.25,.82,2.15,2.14l-.51,6.37,4.88,.36c1.31,.1,1.9,1.13,1.82,2.16v.19c.33-.21,.81-.32,1.33-.28l10.41,.76,.58-7.92c.11-1.5,1.29-2.12,2.41-2.04s2.2,.87,2.09,2.37l-.58,7.92,4.03,.29c1.5,.11,2.17,1.2,2.1,2.23s-.9,2.01-2.4,1.9l-4.03-.29-.94,12.89-.4,6.76v.09c-.28,3.7-3.07,6.42-8.74,6.01-1.45-.11-3.08-.41-4.92-.97-1.34-.43-1.87-1.5-1.79-2.53s.86-2.1,2.08-2.02c.19,.01,.37,.07,.6,.14,1.66,.54,3.05,.88,4.22,.97,2.48,.18,3.87-.71,4.02-2.72l1.38-18.94Zm-7.02,12.21c-1.05-1.82-2.93-3.75-4.77-5.01-.72-.48-.96-1.11-.91-1.72,.07-.94,.98-1.81,2.2-1.72,1.64,.12,7.86,4.67,7.67,7.3-.1,1.31-1.35,2.31-2.56,2.22-.61-.04-1.2-.37-1.62-1.06Z"/><path class="d" d="M485.02,127.73l.32-10.85c-3.83,4.21-8.3,7.48-14.37,10.53-.52,.27-.99,.36-1.42,.35-1.27-.02-2.19-1.07-2.17-2.15,.01-.8,.5-1.59,1.63-2.09,7.1-3.08,11.62-6.39,16.48-12.84v-.66c-2.39-.04-4.69-.03-6.66-.02-1.55,.02-1.75,.54-1.8,3.45-.02,1.03,.01,2.12,.04,3.01,0,.05,0,.09,0,.09-.02,1.17-1.11,1.77-2.19,1.75-1.13-.02-2.29-.7-2.32-1.92,.01-.8-.02-1.79,0-2.82,.02-.99,.08-2.07,.1-2.96,.14-2.91,1.71-4.11,5.24-4.1,2.21-.01,4.84,.03,7.61,.08v-2.4l-14.39-.14c-1.36-.02-2.05-1.02-2.04-2.01,.02-.99,.74-1.96,2.1-1.94l14.33,.28,.02-1.08c.01-.8,.45-1.36,1.01-1.63-.65-.34-1.16-1.01-1.15-1.66,0-.52,.3-1.03,.92-1.49,2.57-1.79,3.72-3.04,5.65-6.39,.39-.65,.96-.92,1.57-.91,1.08,.02,2.15,.93,2.13,2.06-.01,.61-.73,1.73-.88,1.91l10.9,.18c1.22,.02,1.77,.92,1.76,1.82s-.59,1.78-1.82,1.76l-13.54-.22c-.91,1.02-1.96,1.94-3.15,2.77-.05,.05-.14,.04-.19,.09,.75,.29,1.35,.92,1.33,1.81l-.02,1.08,14.52,.19c1.41,.02,2.05,1.02,2.04,2.01-.02,.99-.69,1.96-2.1,1.94l-14.57-.33-.09,2.4c2.87,.05,5.69,.09,8.18,.18,3.34,.1,4.86,1.54,4.91,4.31,0,.52,.02,1.79,0,2.49-.04,2.58-1.39,4.58-4.82,4.53-.42,0-.89-.06-1.36-.12-.14,0-.33-.05-.47-.1,2.97,2.35,6.14,4.05,9.73,5.71,1.07,.49,1.48,1.29,1.47,2.09-.02,1.27-1.12,2.47-2.58,2.45-2.02-.03-10.25-5.62-15.23-11.44l-.09,11.05v.05c-.02,1.13-1.2,1.72-2.38,1.7-1.13-.02-2.25-.6-2.23-1.78v-.05Zm-8.99-33.29c-.77,1.07-3.71,5.25-5.77,5.22-1.17-.02-2.24-.98-2.22-2.06,0-.47,.2-.98,.78-1.44,3.1-2.58,4.49-4.58,6.25-8.22,.34-.75,.96-1.02,1.61-1.01,1.08,.02,2.29,.98,2.27,2.2,0,.38-.05,.47-.73,1.77l6.96,.11c1.22,.02,1.77,.92,1.76,1.82-.02,.89-.59,1.78-1.82,1.76l-9.07-.15Zm5.23,5.26c-.38,0-.75-.15-1.03-.49-.69-.86-1.44-1.25-2.28-1.59-.61-.24-.88-.72-.87-1.19,.01-.85,.88-1.73,2.05-1.71,.23,0,4.17,1.01,4.13,3.08-.02,1.03-1.07,1.91-2.01,1.89Zm8.51,11.38c1.75,2.33,3.5,4.29,5.4,5.92-.14-.28-.18-.57-.17-.9,.01-.89,.59-1.73,1.63-1.71,.14,0,.28,0,.42,.05,.23,.05,.47,.1,.66,.1,.52,0,.9-.22,.91-1.25,0-.05,0-.09,0-.14,0,0,.01-.75-.03-1.27-.03-.89-.49-1.51-1.76-1.58-2.16-.08-4.6-.17-7.05-.21l-.02,.99Zm8.41-11.1c-.38,0-.75-.15-1.03-.49-.69-.86-1.44-1.25-2.28-1.59-.61-.25-.88-.72-.87-1.19,.01-.85,.88-1.73,2.05-1.71,.23,0,4.17,1.01,4.13,3.08-.02,1.03-1.07,1.91-2.01,1.89Z"/><path class="d" d="M537.27,101.04c-.5,6-4.37,15.05-8.7,19.41-3.48,3.48-7.5,1.81-9.73-2.14-3.2-5.7-.41-14.57,5.7-19.19,5.61-4.23,14.18-5.24,20.24-1.92,7.46,4.07,8.99,12.66,5.18,19.55-2.06,3.71-6.54,6.81-11.14,8.22-4.09,1.25-5.74-3.43-1.74-4.54,3.54-.95,7.07-3.11,8.52-5.62,3.12-5.4,1.6-11.5-3.18-14.27-1.88-1.1-3.88-1.58-5.9-1.64,.54,.45,.85,1.19,.75,2.13Zm-10.39,1.32c-4.23,3.56-6.32,9.91-4.2,13.44,.76,1.33,2.01,1.99,3.14,.91,3.39-3.25,6.37-10.85,6.63-15.94,.02-.57,.14-1.09,.36-1.47-2.14,.56-4.21,1.63-5.94,3.07Z"/><path class="d" d="M575.54,117.41c.95,6.66-5.05,7.08-9.05,5.54-5.81-2.24-4.54-5.7-2.3-8.62,1.32-1.67,3.55-3.7,6.18-5.53-.22-1.96-.43-3.97-.6-5.85-1.89,.54-3.8,.75-5.6,.67-3.5-.12-3.34-4.86,.61-4.39,1.19,.13,2.91-.2,4.69-.83-.19-2.2-.41-3.69-.66-5.46-.48-3.45,4.68-3.8,4.73-.45,0,1.04,.08,2.54,.1,3.95,.67-.39,1.25-.81,1.78-1.24,2.38-1.9,5.56,1.55,2.45,3.8-1.33,.96-2.77,1.79-4.22,2.48,.08,1.46,.23,3.19,.43,4.96,1.26-.72,2.58-1.31,3.81-1.79,3.93-1.52,7.94-1.48,10.4-.84,7.96,2.01,7.23,8.44,5.14,12.11-2.67,4.66-9.09,6.72-14.79,4.1-2.8-1.32-1.3-5.31,1.67-4.15,3.81,1.47,6.81,1.26,8.8-1.93,1-1.59,2.02-5.03-2.18-6.18-1.89-.55-4.38-.47-7.59,.56-1.65,.52-3.24,1.31-4.76,2.2,.31,2.47,.7,4.89,.97,6.9Zm-8-.82c-.89,1.16-.79,2.38,.33,2.8,2.1,.81,3.44,.55,3.33-1.28-.06-1.27-.21-3-.42-4.92-1.27,1.1-2.36,2.23-3.25,3.39Zm25.28-17.07c-1.31-.97-3.98-1.88-6.35-1.39-2.83,.57-3.94-3.53-.59-4.1s8.13,.2,9.97,1.83c1.22,1.07,1.06,2.41,.33,3.32-.72,.91-2.11,1.27-3.37,.34Z"/><path class="d" d="M621.51,105.82l.81,6.34c.12,.98,.39,2.7,.55,3.91t.01,.09c.24,1.86-.86,4.04-3.98,4.44-1.82,.23-3.54,.07-3.77-1.7-.12-.93,.28-1.88,1.21-2,.09-.01,.19-.02,.33,0,.38,.05,.81,.04,1.23-.01,.7-.09,1.23-.39,1.16-1.29-.04-.66-.25-2.34-.48-4.15-.24-1.86-.49-3.87-.7-5.12-3.96,.51-5.06-1.01-5.4-2.96-.18-1.07-.41-2.84-.64-4.61s-.45-3.54-.54-4.62c-.18-2.16,1.02-3.54,3.06-3.85l.55-.12c.1-1.1,.2-2.49,.18-3.43-.03-.23,0-.43,.06-.62-1.63,.21-3.22,.41-4.75,.65-1.4,.18-1.8,1.08-1.65,2.29,1.56,12.21,2.51,19.67,1.72,26.45,.08-.15,.15-.3,.28-.41,1.49-1.71,2.05-3.58,2.49-5.34,.22-.88,.83-1.29,1.48-1.37,.98-.12,2.11,.54,2.24,1.56,.15,1.17-1.97,7.93-4.54,8.25-.98,.12-1.9-.42-2.15-1.24-.37,2.27-.85,4.09-2.48,4.3-1.07,.14-2.25-.57-2.38-1.54-.03-.23-.02-.52,.09-.77,2.04-5.57,1.45-14.26,.5-21.67-.38-2.98-.83-5.77-1.17-8.05,0-.05-.01-.09-.02-.14-.43-3.36,.9-5.18,4.48-5.69,1.91-.29,2.84-.41,12.58-1.65,1.07-.14,1.74,.68,1.86,1.56,.11,.89-.33,1.84-1.41,1.98h-.05c-1.17,.11-2.38,.26-3.6,.42,.12,.22,.19,.4,.23,.68,.05,.42-.09,1.91-.48,3.33,.65-.08,1.26-.11,1.92-.2,1.92-.2,3.59,.63,3.99,2.67,.23,1.06,.46,2.88,.69,4.7,.23,1.82,.46,3.64,.51,4.77,.16,2.4-1.01,3.59-3.32,4.02l-.74,.14Zm.02-9.86c-.11-.89-.26-1.67-.33-2.23-.14-1.07-.89-1.02-3.5-.69-.75,.1-1.45,.18-2.05,.31-1.02,.18-1.15,1.05-.84,3.47l6.71-.86Zm-6.34,3.79c.13,1.03,.3,1.95,.43,2.6,.24,1.11,1.08,1.05,3.6,.73,2.05-.26,3.02-.48,2.96-1.7-.08-.61-.14-1.5-.27-2.48l-6.71,.86Zm11.62,14.2c-.61,.08-1.25-.17-1.64-.97-.52-1.12-1.18-1.79-2.31-2.88-.27-.25-.4-.56-.44-.84-.11-.84,.69-1.65,1.62-1.77,1.77-.23,4.52,3.12,4.65,4.14,.15,1.17-.86,2.19-1.88,2.32Zm14.77-3.4c1.69,1.35,3.37,2.27,5.64,2.64,1.16,.18,1.78,.96,1.89,1.8,.15,1.21-.62,2.54-2.07,2.73-2.42,.31-8.66-3.63-8.87-5.31-.08-.61,.22-1.26,.68-1.7-1.44,.18-2.94,.38-4.29,.5,.7,.29,1.21,.94,1.3,1.63,.29,2.28-7.02,7.34-9.17,7.61-1.35,.17-2.28-.8-2.42-1.87-.12-.93,.32-1.94,1.54-2.42,2.34-.96,4.71-2.45,6.04-4.28,.16-.21,.33-.42,.55-.54-2.15-.15-3.38-1.61-3.69-3.65-.31-2.04-.71-4.79-1.06-7.59-.36-2.84-.69-5.74-.92-7.98-.2-1.92,.72-3.98,3.68-4.54,.33-.04,.65-.13,1.02-.18,.07-.96,.14-1.87,.17-3.1l-4.85,.62c-1.35,.17-2.13-.72-2.25-1.7s.4-2.04,1.75-2.21l15.24-1.95c1.31-.17,2.08,.73,2.21,1.71s-.4,2.04-1.71,2.21l-6.11,.78c-.11,1.01-.29,2.17-.41,3.08,.93-.12,1.82-.19,2.62-.24,2.63-.19,4.39,1.38,4.75,3.42,.37,2.18,.78,5.02,1.15,7.86,.36,2.8,.67,5.6,.84,7.71,.19,2.2-1.17,4.22-3.57,4.72l.32,.24Zm-2.07-17.36c-.08-.65-.2-1.21-.27-1.77-.31-1.71-.79-1.7-4.84-1.18-3.54,.45-4.04,.66-3.92,2.35,.07,.51,.1,1.12,.17,1.73l8.86-1.13Zm.47,3.3l-8.95,1.14,.45,3.54,8.95-1.14-.45-3.54Zm-8.04,7.94c.1,.75,.24,1.49,.31,2.09,.31,1.71,1.11,1.66,4.14,1.27,4.06-.52,4.75-.61,4.62-2.44-.08-.61-.12-1.31-.21-2.06l-8.86,1.13Z"/><path class="d" d="M662.43,107.34c-3.93-3.07-6.34-8.2-7.67-13.98-.62-2.61-.85-3.43-1.08-5.11-.39-2.94,4.02-4.28,4.72-.82,.39,1.79,.22,1.92,.66,4.04,.98,4.84,2.62,9.29,5.62,11.37,1.4,.96,2.02,1,2.81-.56,.43-.88,.88-2.19,1.08-2.99,.81-2.9,4.98-1.58,4.49,.98-.25,1.38-.85,2.95-1.22,3.87-2.18,5.31-6.38,5.57-9.43,3.21Zm23.76-12.27c-1.35-3.59-3.84-6.85-6.62-8.16-2.48-1.17-.53-5.01,2.59-3.38,3.7,1.92,7.61,5.76,8.72,9.62,.93,3.33-3.51,5.01-4.69,1.91Z"/></g><g><g><path class="e" d="M366.63,27.68c1.82,.35,3.6,.61,5.38,.95,1.11,.22,1.12,.63,.88,1.87l-.44,2.26c-.23,1.2-.4,1.58-1.46,1.37-1.82-.35-3.57-.79-5.39-1.14l-1.82-.35c-.44-.09-.78-.01-.83,.25-.17,.89,5.93,5.66,6.95,6.32,1.06,.71,1.29,.94,1.21,1.34-.17,.89-2.02,2.36-2.73,2.92-.54,.4-1.18,.87-1.93,.73-.44-.09-.87-.49-1.23-.79-3.33-2.72-6.1-5.51-8.75-8.92-.29-.38-.54-.75-.81-.8-.31-.06-.54,.17-.63,.66l-.58,2.97c-.26,1.33-.38,2.68-.62,3.88-.21,1.06-.68,1.11-1.96,.86l-2.97-.58c-1.33-.26-1.79-.49-1.59-1.5,.17-.89,.62-2.45,.89-3.87l.48-2.48c.1-.53,.06-1-.39-1.09-.27-.05-.57,.12-.79,.26-3.69,2.41-8.73,4.23-12.39,5.08-.53,.13-.96,.23-1.45,.13-.89-.17-1.41-1.51-1.81-2.51-.35-.8-.84-2.05-.74-2.58s.72-.64,1.39-.74c2.91-.54,5.9-1.52,8.69-2.81,.35-.16,.71-.32,.76-.59,.05-.27-.24-.41-.68-.5l-1.95-.38c-1.77-.35-3.61-.61-5.38-.95-1.06-.21-1.07-.62-.84-1.82l.45-2.3c.23-1.2,.4-1.58,1.46-1.37,1.77,.35,3.57,.79,5.34,1.13l8.99,1.75c.8,.15,1.03-.08,1.16-.79,.03-.18,.02-.36,.06-.54,.09-.44,.63-.43,.99-.36,1.06,.21,3.85,.98,4.94,1.33,.74,.24,1.36,.36,1.24,.93-.03,.18-.15,.29-.3,.36-.15,.06-.27,.22-.29,.31-.04,.22,.13,.3,.66,.4l8.81,1.72ZM356.4,.91c.27,.05,3.73,1.6,4.28,1.85,1.61,.68,2.47,.99,2.36,1.56-.05,.27-.44,.37-.81,.39-1.34,.02-1.67,1.01-1.68,1.05-.04,.22,.11,.39,.64,.49l.89,.17c1.2,.23,2.37,.37,3.52,.59,.93,.18,1.59,.58,1.37,1.69l-.09,.44c-.05,.27-.07,.58,.24,.65,.44,.09,4.79-2.88,5.28-3.25,.33-.26,.55-.45,.77-.4,.35,.07,1.74,1.9,2.93,3.6,.61,.9,1.02,1.62,.96,1.93-.08,.4-.67,.38-.98,.31-.49-.09-.65,.01-1.12,.33-1.15,.7-5.51,3.25-6.3,3.1-.71-.14-1.49-1.3-1.89-1.88-.11-.16-.21-.32-.39-.35-.27-.05-.41,.2-.46,.46l-.58,2.97c-.06,.31-.11,.81,.24,.88,.22,.04,.38-.06,.59-.21,.54-.4,1.37-.88,1.9-.78,1.06,.21,5.18,5.51,6.07,6.61,.22,.27,.31,.52,.26,.79-.17,.89-3.6,3.39-4.49,3.22-.31-.06-.44-.32-.77-.75-.48-.6-3.72-4.72-4.21-4.82-.31-.06-.53,.13-.59,.44-.03,.18-.13,.89-.19,1.2-.22,1.15-1.45,1.05-2.6,.83l-14.93-2.91c-1.73-.34-2.32-.59-2.06-1.92,.07-.35,.19-.74,.24-1.01,.06-.31-.07-.57-.38-.63-.22-.04-.42,.06-.63,.15-1.32,.62-2.62,1.19-3.88,1.73-1.66,.73-1.79,.71-1.96,1.09-.17,.38-.39,.57-.7,.51-.4-.08-.82-.99-1.15-1.65-.37-.71-1.68-3.41-1.59-3.89,.07-.35,.46-.46,1.09-.66,1.96-.63,5.64-2.07,7.4-3.07,.31-.17,.44-.14,.53-.13,.53,.1,1.04,1.03,1.27,1.49,.13,.26,.31,.52,.53,.56,.27,.05,.41-.2,.47-.51l.72-3.72c.05-.27,.02-.55-.25-.6-.18-.03-.44,.14-.71,.32-.64,.47-1.87,1.34-2.67,1.18-.35-.07-.57-.39-.89-.86-1.32-1.96-2.75-3.84-4.19-5.64-.33-.43-.52-.65-.45-1.01,.17-.89,3.4-3.06,4.51-2.85,.35,.07,.61,.4,.87,.72,1.09,1.5,2.27,2.97,3.36,4.47,.11,.16,.43,.63,.65,.68,.31,.06,.43-.33,.48-.55l.07-.35c.22-1.11,.86-1.35,1.88-1.15,.97,.19,1.89,.46,2.82,.64,.75,.15,1.37,.04,1.87-.42,.56-.49,1.09-1.35,1.62-2.44,.25-.55,.34-.81,.87-.7Zm-4.73,14.62c-.31-.06-.63,.15-.69,.46l-.07,.35c-.06,.31,.15,.63,.46,.69l7.31,1.42c.31,.06,.63-.15,.69-.46l.07-.35c.07-.35-.15-.63-.46-.69l-7.31-1.42Zm8.15-2.92c.31,.06,.63-.15,.69-.46l.08-.4c.06-.31-.15-.63-.46-.69l-7.31-1.42c-.31-.06-.63,.15-.69,.46l-.08,.4c-.06,.31,.16,.58,.46,.69l7.31,1.42Z"/><path class="e" d="M392.49,20c.26,.11,.72,.32,.68,.59-.02,.14-.17,.22-.28,.24-.59,.23-.72,.62-1.02,1.45-1.49,4.07-2.37,8.34-3.02,12.61-.41,2.7-.82,5.46,1.91,5.88,2.15,.32,4.39-.63,5.94-2.07,1.34-1.23,2.36-2.93,2.93-4.62,.24-.66,.43-1.26,1.02-1.17,.75,.11,1.64,1.19,2.11,1.75,.53,.64,1.42,1.72,1.29,2.57-.15,1.02-1.45,3.13-2.1,3.98-2.79,3.7-7.05,5.78-11.73,5.08-2.42-.37-4.9-1.58-6.17-3.79-1.38-2.44-1.04-6.09-.63-8.83,.59-3.93,1.57-8.08,2.39-11.72,.18-.71,.39-1.86,.5-2.65,.11-.75,.18-1.2,.76-1.11,.79,.12,4.36,1.43,5.42,1.83Z"/><path class="e" d="M419.51,27.17c.34,.1,.7,.25,.67,.56-.01,.14-.13,.23-.39,.38-.48,.3-.65,.94-.81,1.44-.47,1.55-.78,3.18-.94,4.76-.22,2.17-.17,4.67,.55,6.73,.21,.61,.72,1.78,1.48,1.85,.79,.08,1.73-1.25,2.09-1.76,.28-.39,.64-.8,1.15-.75,1.03,.11,3.37,2.33,3.29,3.15s-1.85,2.48-2.51,3.07c-1.34,1.22-2.66,2.23-4.55,2.03-2.3-.24-4.09-2.12-5.17-4.04-2.17-3.84-1.9-8.88-1.46-13.11,.07-.65,.64-4.8,.72-5.27,.07-.37,.26-.53,.64-.49,.45,.05,4.39,1.18,5.23,1.44Zm12.69,.2c.93,.1,3.42,2.51,4.68,5.1,1.12,2.3,1.69,4.79,1.81,7.31,.01,.56,.03,1.39-.01,1.8-.07,.72-.28,1.01-.99,1.15-1.03,.21-2.29,.35-3.33,.25-1.27-.13-1.26-.58-1.23-1.9,.12-4.16-.99-7.57-4.01-10.24-.19-.19-.31-.34-.28-.62,.08-.79,2.32-2.96,3.35-2.85Z"/><path class="e" d="M475.93,40.57c.05-1.04-.21-1.41-1.33-1.46l-3.74-.17c-1.31-.06-3.41-.43-3.28-3.45,.11-2.39,1.33-3.33,3.58-3.22l6.27,.29c6.09,.28,5.94,4.39,5.86,6.28l-.38,8.3c-.06,1.26-.22,3.74-1.85,4.84-1.87,1.27-7.32,2.01-11.74,1.81-13.98-.64-19.76-10.53-19.33-19.82,.49-10.73,8.8-18.44,21.02-17.88,5.55,.26,9.43,2.2,10.4,2.74,1.5,.84,2.01,1.58,1.94,3.07-.09,1.94-1.44,3.73-3.42,3.64-.72-.03-.94-.13-2.54-.79-1.86-.76-3.59-1.48-6.7-1.62-9.38-.43-12.79,6.01-13.04,11.33-.25,5.32,2.39,11.86,11.91,12.3,3.25,.15,5.45-.61,5.63-.69,.51-.25,.52-.52,.56-1.42l.19-4.06Z"/><path class="e" d="M530.18,20.18c.5-2.18,.91-3.95,3.89-4,2.62-.05,4.05,1.5,4.07,2.85,.02,.9-.45,2.54-.53,2.85l-6.97,26c-.97,3.58-1.64,6.13-5.7,6.21-4.33,.09-5.02-2.52-5.94-5.98l-5.62-21.37-4.81,21.58c-.7,3.22-1.37,6.12-5.38,6.2-4.38,.09-5.05-2.16-6.26-5.97l-8.01-25.7c-.14-.45-.58-1.93-.6-2.79-.03-1.58,1.56-3.01,3.91-3.06,2.98-.06,3.46,1.6,4.09,3.85l6.46,23.07,4.94-21.81c.62-2.81,1.25-5.44,5.04-5.52,4.47-.09,5.09,1.84,6.02,5.3l5.8,21.6,5.58-23.31Z"/><path class="e" d="M565.12,31.13c2.38,2.05,3.68,4.69,3.91,7.79,.33,4.41-1.79,8.46-5.51,10.84-.75,.5-2.74,1.62-3.61,1.68-1.09,.08-2.96-2.67-3.03-3.55-.02-.28,.25-.43,1.14-.71,3.56-1.21,6.35-3.71,6.06-7.71-.36-4.91-4.26-6.57-5.2-6.5-.53,.04-.55,.61-.54,1.17-.02,4.37-.88,9.77-3.5,13.43-1.05,1.49-2.46,2.79-4.34,2.93-2.09,.16-3.92-1.15-4.99-2.87-.82-1.32-1.27-3.08-1.38-4.61-.56-7.5,4.78-13.9,12.31-14.46,3.19-.24,6.26,.48,8.67,2.56Zm-16.34,11.49c.06,.75,.41,3.02,1.51,2.94,.75-.06,1.66-2.2,1.92-2.88,.93-2.33,1.46-7.02,1.38-8.15-.02-.25-.16-.46-.44-.44-.91,.07-4.76,3.24-4.36,8.52Z"/><path class="e" d="M586.02,23.36c.61,.09,1.57,.27,1.61,.58,.02,.16-.16,.27-.28,.34-.41,.27-.48,.78-.65,1.84-.03,.29-.09,.64-.17,1.06-.02,.13-.04,.26-.03,.29,.04,.37,.31,.53,.65,.5,.47-.05,1.99-.84,2.44-1.08,.24-.12,.54-.28,.76-.3,.84-.09,1.17,2.99,1.27,3.93,.05,.44-.06,.64-.54,.85-1.2,.54-3.15,1.22-4.34,1.6-1.31,.42-1.4,.46-1.65,1.63-.9,3.91-2.86,10.96-4.51,14.41-.21,.43-.36,.79-.89,.85-.53,.06-3.92-1-4.02-1.93-.03-.28,.18-.68,.49-1.28,1.81-3.38,3.02-7.07,4.01-10.8,.07-.2,.16-.55,.14-.74-.05-.44-.4-.49-.74-.46-.62,.07-1.36,.24-2.05,.31-.65,.07-1.07,.02-1.33-.65-.22-.58-.63-2.64-.7-3.27-.04-.4-.01-.72,.48-.78,.31-.03,1.73-.03,3.35-.2,1.56-.17,2.06-.22,2.22-1.03,.25-1.16,.36-4.58,.29-5.83-.02-.19,.03-.35,.21-.37,.4-.04,3.39,.42,3.96,.52Zm1.31,19.53c1.44,1.39,3.85,1.48,5.72,1.28,1.75-.19,3.01-.48,4.63-1.16,.09-.04,.21-.09,.34-.1,.5-.05,.63,.62,.74,1.62l.1,.94c.18,1.71,.22,2.09-.32,2.3-.91,.35-4.19,.86-5.22,.97-2.21,.24-5.26,.28-7.25-.86-.54-.32-1.63-1.09-1.71-1.8-.06-.53,.95-2.06,1.27-2.53,.22-.31,.71-.99,1.09-1.03,.22-.02,.47,.23,.61,.38Zm2.04-9.8c2.71-.29,4.87-.14,7.17,.18,.45,.08,.81,.17,.86,.66,.08,.72-.26,2.86-.57,3.53-.1,.23-.27,.41-.55,.44-.22,.02-.54-.07-.8-.13-1.88-.52-3.55-.47-5.45-.27l-1.12,.12c-.72,.08-.94,0-1-.55-.38-3.58,.22-3.84,1.46-3.97Z"/><path class="e" d="M620.06,20.74c.29,.06,.69,.19,.74,.53,.03,.22-.04,.39-.11,.58-.23,.6-.35,1.41-.26,2.06,.07,.53,.63,.64,1.21,.72,4.43,.69,7.42,3.57,8.03,8.08,.73,5.31-2.33,9.08-6.54,11.87-.84,.56-1.37,.82-1.84,.88-.99,.14-2.9-2.45-3-3.2-.04-.31,.19-.5,1.05-.9,3.09-1.43,6.29-4.46,5.78-8.19-.47-3.42-3.6-4.35-4.25-4.26-.4,.06-.58,.36-.62,.81-.16,3.03-1.31,6.88-2.78,9.52-1.3,2.3-3.67,4.87-6.43,5.24-3.35,.46-4.93-2.71-5.31-5.51-.39-2.83,.15-5.37,1.66-7.79,.18-.28,.31-.49,.27-.83-.02-.16-.23-.54-.36-.77-.57-1.19-1.12-2.38-1.69-3.57-.09-.21-.15-.42-.18-.61-.04-.31,.24-.54,.54-.67,.6-.27,2.9-1.25,3.46-1.33,.5-.07,.61,.33,.94,1.36,.11,.36,.23,.79,.4,1.31,.11,.36,.29,.72,.75,.66,.19-.03,.27-.07,.56-.27,.73-.45,1.92-.99,2.74-1.26,1.06-.33,1.05-.68,.74-2.95-.05-.34-.12-.68-.17-1.02-.06-.4-.04-.72,.43-.79,.62-.08,3.6,.17,4.24,.27Zm-9.96,17.62c.06,.47,.29,1.67,.97,1.58,.4-.06,1.33-.91,1.26-1.44-.03-.19-.1-.3-.23-.51-1.01-1.63-1.41-2.24-1.69-2.2-.53,.07-.37,2.17-.31,2.57Zm3.64-7.84c-.32,.23-.6,.49-.53,.96,.03,.25,.84,1.72,1.03,2.01,.12,.17,.26,.31,.48,.28,.37-.05,.6-.94,.76-1.84,.16-.94,.27-1.74,.24-1.93-.03-.22-.21-.35-.42-.32-.31,.04-1.28,.62-1.56,.85Z"/><path class="e" d="M636.71,20.8c.06-.61,.12-1.23,.13-1.74,0-.6-.02-.89,.38-.95,.28-.05,3.43,.55,4.85,.92,.66,.18,.88,.33,.91,.49,.02,.12-.06,.2-.18,.28-.66,.46-.77,.73-.94,1.46-.63,2.55-.91,6.28-.44,9.09,.28,1.7,.42,2.54,.82,2.47,.22-.04,.33-.31,.44-.58,.13-.34,.26-.71,.6-.77,.37-.06,1.78,.79,1.86,1.25,.07,.43-.9,3.04-.62,4.71,.04,.22,.22,.98,.36,1.43,.06,.18,.21,.7,.24,.88,.19,1.14-1.95,2.42-2.91,2.58-.59,.1-.93-.26-1.67-1.28-2.02-2.81-3.05-6.2-3.61-9.6-.62-3.8-.58-6.83-.22-10.64Zm8.76-1.57c.19-.03,.69-.05,.98-.03,1.22,.05,2.95-.04,4.15-.24,1.55-.25,3.05-.76,4.48-1.37,.27-.11,.42-.16,.6-.19,.59-.1,.88,.52,1.02,.98,.22,.76,.48,1.73,.6,2.51,.12,.74,.06,.97-.72,1.23-1.69,.53-3.4,.94-5.14,1.23-.93,.15-5.22,.7-5.89,.3-.28-.18-.44-1.1-.49-1.44-.38-2.29-.34-2.83,.4-2.96Zm2.26,13.38c1.55,1.33,2.66,1.69,4.67,1.36,2.29-.38,4.52-1.12,6.61-2.1,.21-.1,.51-.21,.72-.25,.4-.07,.65,.31,.73,.58,.26,.81,.58,2.57,.68,3.19,.07,.4,.07,.62-.3,.88-1,.7-6.09,2.02-7.48,2.25-4.98,.82-7.58-1.3-7.7-2.01-.1-.59,.94-3.97,1.65-4.08,.15-.03,.3,.11,.41,.19Z"/><path class="e" d="M672.42,28.31c-.8,.15-.95,.05-1.13-.75l-1.66-7.25c-.48-1.89-1.51-6.1-1.63-6.71-.1-.52,.06-.68,.74-.81l3.76-.7c.68-.13,.89-.04,.98,.49,.11,.62,.65,4.89,.96,7.22l1.01,6.99c.12,.81,.02,.95-.78,1.1l-2.25,.42Zm5.05,4c.31,1.7-.52,3.38-2.62,3.77-1.66,.31-3.07-.58-3.37-2.18-.34-1.82,.53-3.51,2.56-3.89,1.66-.31,3.12,.66,3.42,2.3Z"/></g><g><path class="g" d="M366.63,27.68c1.82,.35,3.6,.61,5.38,.95,1.11,.22,1.12,.63,.88,1.87l-.44,2.26c-.23,1.2-.4,1.58-1.46,1.37-1.82-.35-3.57-.79-5.39-1.14l-1.82-.35c-.44-.09-.78-.01-.83,.25-.17,.89,5.93,5.66,6.95,6.32,1.06,.71,1.29,.94,1.21,1.34-.17,.89-2.02,2.36-2.73,2.92-.54,.4-1.18,.87-1.93,.73-.44-.09-.87-.49-1.23-.79-3.33-2.72-6.1-5.51-8.75-8.92-.29-.38-.54-.75-.81-.8-.31-.06-.54,.17-.63,.66l-.58,2.97c-.26,1.33-.38,2.68-.62,3.88-.21,1.06-.68,1.11-1.96,.86l-2.97-.58c-1.33-.26-1.79-.49-1.59-1.5,.17-.89,.62-2.45,.89-3.87l.48-2.48c.1-.53,.06-1-.39-1.09-.27-.05-.57,.12-.79,.26-3.69,2.41-8.73,4.23-12.39,5.08-.53,.13-.96,.23-1.45,.13-.89-.17-1.41-1.51-1.81-2.51-.35-.8-.84-2.05-.74-2.58s.72-.64,1.39-.74c2.91-.54,5.9-1.52,8.69-2.81,.35-.16,.71-.32,.76-.59,.05-.27-.24-.41-.68-.5l-1.95-.38c-1.77-.35-3.61-.61-5.38-.95-1.06-.21-1.07-.62-.84-1.82l.45-2.3c.23-1.2,.4-1.58,1.46-1.37,1.77,.35,3.57,.79,5.34,1.13l8.99,1.75c.8,.15,1.03-.08,1.16-.79,.03-.18,.02-.36,.06-.54,.09-.44,.63-.43,.99-.36,1.06,.21,3.85,.98,4.94,1.33,.74,.24,1.36,.36,1.24,.93-.03,.18-.15,.29-.3,.36-.15,.06-.27,.22-.29,.31-.04,.22,.13,.3,.66,.4l8.81,1.72ZM356.4,.91c.27,.05,3.73,1.6,4.28,1.85,1.61,.68,2.47,.99,2.36,1.56-.05,.27-.44,.37-.81,.39-1.34,.02-1.67,1.01-1.68,1.05-.04,.22,.11,.39,.64,.49l.89,.17c1.2,.23,2.37,.37,3.52,.59,.93,.18,1.59,.58,1.37,1.69l-.09,.44c-.05,.27-.07,.58,.24,.65,.44,.09,4.79-2.88,5.28-3.25,.33-.26,.55-.45,.77-.4,.35,.07,1.74,1.9,2.93,3.6,.61,.9,1.02,1.62,.96,1.93-.08,.4-.67,.38-.98,.31-.49-.09-.65,.01-1.12,.33-1.15,.7-5.51,3.25-6.3,3.1-.71-.14-1.49-1.3-1.89-1.88-.11-.16-.21-.32-.39-.35-.27-.05-.41,.2-.46,.46l-.58,2.97c-.06,.31-.11,.81,.24,.88,.22,.04,.38-.06,.59-.21,.54-.4,1.37-.88,1.9-.78,1.06,.21,5.18,5.51,6.07,6.61,.22,.27,.31,.52,.26,.79-.17,.89-3.6,3.39-4.49,3.22-.31-.06-.44-.32-.77-.75-.48-.6-3.72-4.72-4.21-4.82-.31-.06-.53,.13-.59,.44-.03,.18-.13,.89-.19,1.2-.22,1.15-1.45,1.05-2.6,.83l-14.93-2.91c-1.73-.34-2.32-.59-2.06-1.92,.07-.35,.19-.74,.24-1.01,.06-.31-.07-.57-.38-.63-.22-.04-.42,.06-.63,.15-1.32,.62-2.62,1.19-3.88,1.73-1.66,.73-1.79,.71-1.96,1.09-.17,.38-.39,.57-.7,.51-.4-.08-.82-.99-1.15-1.65-.37-.71-1.68-3.41-1.59-3.89,.07-.35,.46-.46,1.09-.66,1.96-.63,5.64-2.07,7.4-3.07,.31-.17,.44-.14,.53-.13,.53,.1,1.04,1.03,1.27,1.49,.13,.26,.31,.52,.53,.56,.27,.05,.41-.2,.47-.51l.72-3.72c.05-.27,.02-.55-.25-.6-.18-.03-.44,.14-.71,.32-.64,.47-1.87,1.34-2.67,1.18-.35-.07-.57-.39-.89-.86-1.32-1.96-2.75-3.84-4.19-5.64-.33-.43-.52-.65-.45-1.01,.17-.89,3.4-3.06,4.51-2.85,.35,.07,.61,.4,.87,.72,1.09,1.5,2.27,2.97,3.36,4.47,.11,.16,.43,.63,.65,.68,.31,.06,.43-.33,.48-.55l.07-.35c.22-1.11,.86-1.35,1.88-1.15,.97,.19,1.89,.46,2.82,.64,.75,.15,1.37,.04,1.87-.42,.56-.49,1.09-1.35,1.62-2.44,.25-.55,.34-.81,.87-.7Zm-4.73,14.62c-.31-.06-.63,.15-.69,.46l-.07,.35c-.06,.31,.15,.63,.46,.69l7.31,1.42c.31,.06,.63-.15,.69-.46l.07-.35c.07-.35-.15-.63-.46-.69l-7.31-1.42Zm8.15-2.92c.31,.06,.63-.15,.69-.46l.08-.4c.06-.31-.15-.63-.46-.69l-7.31-1.42c-.31-.06-.63,.15-.69,.46l-.08,.4c-.06,.31,.16,.58,.46,.69l7.31,1.42Z"/><path class="g" d="M392.49,20c.26,.11,.72,.32,.68,.59-.02,.14-.17,.22-.28,.24-.59,.23-.72,.62-1.02,1.45-1.49,4.07-2.37,8.34-3.02,12.61-.41,2.7-.82,5.46,1.91,5.88,2.15,.32,4.39-.63,5.94-2.07,1.34-1.23,2.36-2.93,2.93-4.62,.24-.66,.43-1.26,1.02-1.17,.75,.11,1.64,1.19,2.11,1.75,.53,.64,1.42,1.72,1.29,2.57-.15,1.02-1.45,3.13-2.1,3.98-2.79,3.7-7.05,5.78-11.73,5.08-2.42-.37-4.9-1.58-6.17-3.79-1.38-2.44-1.04-6.09-.63-8.83,.59-3.93,1.57-8.08,2.39-11.72,.18-.71,.39-1.86,.5-2.65,.11-.75,.18-1.2,.76-1.11,.79,.12,4.36,1.43,5.42,1.83Z"/><path class="g" d="M419.51,27.17c.34,.1,.7,.25,.67,.56-.01,.14-.13,.23-.39,.38-.48,.3-.65,.94-.81,1.44-.47,1.55-.78,3.18-.94,4.76-.22,2.17-.17,4.67,.55,6.73,.21,.61,.72,1.78,1.48,1.85,.79,.08,1.73-1.25,2.09-1.76,.28-.39,.64-.8,1.15-.75,1.03,.11,3.37,2.33,3.29,3.15s-1.85,2.48-2.51,3.07c-1.34,1.22-2.66,2.23-4.55,2.03-2.3-.24-4.09-2.12-5.17-4.04-2.17-3.84-1.9-8.88-1.46-13.11,.07-.65,.64-4.8,.72-5.27,.07-.37,.26-.53,.64-.49,.45,.05,4.39,1.18,5.23,1.44Zm12.69,.2c.93,.1,3.42,2.51,4.68,5.1,1.12,2.3,1.69,4.79,1.81,7.31,.01,.56,.03,1.39-.01,1.8-.07,.72-.28,1.01-.99,1.15-1.03,.21-2.29,.35-3.33,.25-1.27-.13-1.26-.58-1.23-1.9,.12-4.16-.99-7.57-4.01-10.24-.19-.19-.31-.34-.28-.62,.08-.79,2.32-2.96,3.35-2.85Z"/><path class="g" d="M475.93,40.57c.05-1.04-.21-1.41-1.33-1.46l-3.74-.17c-1.31-.06-3.41-.43-3.28-3.45,.11-2.39,1.33-3.33,3.58-3.22l6.27,.29c6.09,.28,5.94,4.39,5.86,6.28l-.38,8.3c-.06,1.26-.22,3.74-1.85,4.84-1.87,1.27-7.32,2.01-11.74,1.81-13.98-.64-19.76-10.53-19.33-19.82,.49-10.73,8.8-18.44,21.02-17.88,5.55,.26,9.43,2.2,10.4,2.74,1.5,.84,2.01,1.58,1.94,3.07-.09,1.94-1.44,3.73-3.42,3.64-.72-.03-.94-.13-2.54-.79-1.86-.76-3.59-1.48-6.7-1.62-9.38-.43-12.79,6.01-13.04,11.33-.25,5.32,2.39,11.86,11.91,12.3,3.25,.15,5.45-.61,5.63-.69,.51-.25,.52-.52,.56-1.42l.19-4.06Z"/><path class="g" d="M530.18,20.18c.5-2.18,.91-3.95,3.89-4,2.62-.05,4.05,1.5,4.07,2.85,.02,.9-.45,2.54-.53,2.85l-6.97,26c-.97,3.58-1.64,6.13-5.7,6.21-4.33,.09-5.02-2.52-5.94-5.98l-5.62-21.37-4.81,21.58c-.7,3.22-1.37,6.12-5.38,6.2-4.38,.09-5.05-2.16-6.26-5.97l-8.01-25.7c-.14-.45-.58-1.93-.6-2.79-.03-1.58,1.56-3.01,3.91-3.06,2.98-.06,3.46,1.6,4.09,3.85l6.46,23.07,4.94-21.81c.62-2.81,1.25-5.44,5.04-5.52,4.47-.09,5.09,1.84,6.02,5.3l5.8,21.6,5.58-23.31Z"/><path class="g" d="M565.12,31.13c2.38,2.05,3.68,4.69,3.91,7.79,.33,4.41-1.79,8.46-5.51,10.84-.75,.5-2.74,1.62-3.61,1.68-1.09,.08-2.96-2.67-3.03-3.55-.02-.28,.25-.43,1.14-.71,3.56-1.21,6.35-3.71,6.06-7.71-.36-4.91-4.26-6.57-5.2-6.5-.53,.04-.55,.61-.54,1.17-.02,4.37-.88,9.77-3.5,13.43-1.05,1.49-2.46,2.79-4.34,2.93-2.09,.16-3.92-1.15-4.99-2.87-.82-1.32-1.27-3.08-1.38-4.61-.56-7.5,4.78-13.9,12.31-14.46,3.19-.24,6.26,.48,8.67,2.56Zm-16.34,11.49c.06,.75,.41,3.02,1.51,2.94,.75-.06,1.66-2.2,1.92-2.88,.93-2.33,1.46-7.02,1.38-8.15-.02-.25-.16-.46-.44-.44-.91,.07-4.76,3.24-4.36,8.52Z"/><path class="g" d="M586.02,23.36c.61,.09,1.57,.27,1.61,.58,.02,.16-.16,.27-.28,.34-.41,.27-.48,.78-.65,1.84-.03,.29-.09,.64-.17,1.06-.02,.13-.04,.26-.03,.29,.04,.37,.31,.53,.65,.5,.47-.05,1.99-.84,2.44-1.08,.24-.12,.54-.28,.76-.3,.84-.09,1.17,2.99,1.27,3.93,.05,.44-.06,.64-.54,.85-1.2,.54-3.15,1.22-4.34,1.6-1.31,.42-1.4,.46-1.65,1.63-.9,3.91-2.86,10.96-4.51,14.41-.21,.43-.36,.79-.89,.85-.53,.06-3.92-1-4.02-1.93-.03-.28,.18-.68,.49-1.28,1.81-3.38,3.02-7.07,4.01-10.8,.07-.2,.16-.55,.14-.74-.05-.44-.4-.49-.74-.46-.62,.07-1.36,.24-2.05,.31-.65,.07-1.07,.02-1.33-.65-.22-.58-.63-2.64-.7-3.27-.04-.4-.01-.72,.48-.78,.31-.03,1.73-.03,3.35-.2,1.56-.17,2.06-.22,2.22-1.03,.25-1.16,.36-4.58,.29-5.83-.02-.19,.03-.35,.21-.37,.4-.04,3.39,.42,3.96,.52Zm1.31,19.53c1.44,1.39,3.85,1.48,5.72,1.28,1.75-.19,3.01-.48,4.63-1.16,.09-.04,.21-.09,.34-.1,.5-.05,.63,.62,.74,1.62l.1,.94c.18,1.71,.22,2.09-.32,2.3-.91,.35-4.19,.86-5.22,.97-2.21,.24-5.26,.28-7.25-.86-.54-.32-1.63-1.09-1.71-1.8-.06-.53,.95-2.06,1.27-2.53,.22-.31,.71-.99,1.09-1.03,.22-.02,.47,.23,.61,.38Zm2.04-9.8c2.71-.29,4.87-.14,7.17,.18,.45,.08,.81,.17,.86,.66,.08,.72-.26,2.86-.57,3.53-.1,.23-.27,.41-.55,.44-.22,.02-.54-.07-.8-.13-1.88-.52-3.55-.47-5.45-.27l-1.12,.12c-.72,.08-.94,0-1-.55-.38-3.58,.22-3.84,1.46-3.97Z"/><path class="g" d="M620.06,20.74c.29,.06,.69,.19,.74,.53,.03,.22-.04,.39-.11,.58-.23,.6-.35,1.41-.26,2.06,.07,.53,.63,.64,1.21,.72,4.43,.69,7.42,3.57,8.03,8.08,.73,5.31-2.33,9.08-6.54,11.87-.84,.56-1.37,.82-1.84,.88-.99,.14-2.9-2.45-3-3.2-.04-.31,.19-.5,1.05-.9,3.09-1.43,6.29-4.46,5.78-8.19-.47-3.42-3.6-4.35-4.25-4.26-.4,.06-.58,.36-.62,.81-.16,3.03-1.31,6.88-2.78,9.52-1.3,2.3-3.67,4.87-6.43,5.24-3.35,.46-4.93-2.71-5.31-5.51-.39-2.83,.15-5.37,1.66-7.79,.18-.28,.31-.49,.27-.83-.02-.16-.23-.54-.36-.77-.57-1.19-1.12-2.38-1.69-3.57-.09-.21-.15-.42-.18-.61-.04-.31,.24-.54,.54-.67,.6-.27,2.9-1.25,3.46-1.33,.5-.07,.61,.33,.94,1.36,.11,.36,.23,.79,.4,1.31,.11,.36,.29,.72,.75,.66,.19-.03,.27-.07,.56-.27,.73-.45,1.92-.99,2.74-1.26,1.06-.33,1.05-.68,.74-2.95-.05-.34-.12-.68-.17-1.02-.06-.4-.04-.72,.43-.79,.62-.08,3.6,.17,4.24,.27Zm-9.96,17.62c.06,.47,.29,1.67,.97,1.58,.4-.06,1.33-.91,1.26-1.44-.03-.19-.1-.3-.23-.51-1.01-1.63-1.41-2.24-1.69-2.2-.53,.07-.37,2.17-.31,2.57Zm3.64-7.84c-.32,.23-.6,.49-.53,.96,.03,.25,.84,1.72,1.03,2.01,.12,.17,.26,.31,.48,.28,.37-.05,.6-.94,.76-1.84,.16-.94,.27-1.74,.24-1.93-.03-.22-.21-.35-.42-.32-.31,.04-1.28,.62-1.56,.85Z"/><path class="g" d="M636.71,20.8c.06-.61,.12-1.23,.13-1.74,0-.6-.02-.89,.38-.95,.28-.05,3.43,.55,4.85,.92,.66,.18,.88,.33,.91,.49,.02,.12-.06,.2-.18,.28-.66,.46-.77,.73-.94,1.46-.63,2.55-.91,6.28-.44,9.09,.28,1.7,.42,2.54,.82,2.47,.22-.04,.33-.31,.44-.58,.13-.34,.26-.71,.6-.77,.37-.06,1.78,.79,1.86,1.25,.07,.43-.9,3.04-.62,4.71,.04,.22,.22,.98,.36,1.43,.06,.18,.21,.7,.24,.88,.19,1.14-1.95,2.42-2.91,2.58-.59,.1-.93-.26-1.67-1.28-2.02-2.81-3.05-6.2-3.61-9.6-.62-3.8-.58-6.83-.22-10.64Zm8.76-1.57c.19-.03,.69-.05,.98-.03,1.22,.05,2.95-.04,4.15-.24,1.55-.25,3.05-.76,4.48-1.37,.27-.11,.42-.16,.6-.19,.59-.1,.88,.52,1.02,.98,.22,.76,.48,1.73,.6,2.51,.12,.74,.06,.97-.72,1.23-1.69,.53-3.4,.94-5.14,1.23-.93,.15-5.22,.7-5.89,.3-.28-.18-.44-1.1-.49-1.44-.38-2.29-.34-2.83,.4-2.96Zm2.26,13.38c1.55,1.33,2.66,1.69,4.67,1.36,2.29-.38,4.52-1.12,6.61-2.1,.21-.1,.51-.21,.72-.25,.4-.07,.65,.31,.73,.58,.26,.81,.58,2.57,.68,3.19,.07,.4,.07,.62-.3,.88-1,.7-6.09,2.02-7.48,2.25-4.98,.82-7.58-1.3-7.7-2.01-.1-.59,.94-3.97,1.65-4.08,.15-.03,.3,.11,.41,.19Z"/><path class="g" d="M672.42,28.31c-.8,.15-.95,.05-1.13-.75l-1.66-7.25c-.48-1.89-1.51-6.1-1.63-6.71-.1-.52,.06-.68,.74-.81l3.76-.7c.68-.13,.89-.04,.98,.49,.11,.62,.65,4.89,.96,7.22l1.01,6.99c.12,.81,.02,.95-.78,1.1l-2.25,.42Zm5.05,4c.31,1.7-.52,3.38-2.62,3.77-1.66,.31-3.07-.58-3.37-2.18-.34-1.82,.53-3.51,2.56-3.89,1.66-.31,3.12,.66,3.42,2.3Z"/></g></g></g></g></svg>