<?xml version="1.0" encoding="UTF-8"?><svg xmlns="http://www.w3.org/2000/svg" viewBox="0 0 73.44 45.09"><defs><style>.d{fill:#fff;}.e{fill:#013591;}</style></defs><g id="a"/><g id="b"><g id="c"><g><g><rect class="d" x="10.74" y="1.26" width="31.13" height="43.15"/><g><rect class="d" x="58.07" y="-5.13" width="1.89" height="37.46" transform="translate(9.07 47.85) rotate(-47.42)"/><path class="d" d="M71.44,19.63c-.23,0-.46-.08-.64-.25L51.59,1.86c-.39-.35-.41-.95-.06-1.33,.35-.39,.95-.41,1.34-.06l19.21,17.53c.39,.35,.41,.95,.06,1.33-.19,.2-.44,.31-.7,.31Z"/></g><path class="e" d="M71.9,0H10.71c-.76,0-1.38,.62-1.38,1.38V43.71c0,.76,.62,1.38,1.38,1.38h61.19c.76,0,1.38-.62,1.38-1.38V1.38c0-.76-.62-1.38-1.38-1.38Zm-31.07,42.38c0,.37-.3,.66-.66,.66H12.04c-.37,0-.66-.3-.66-.66V2.71c0-.37,.3-.66,.66-.66h28.13c.37,0,.66,.3,.66,.66V42.38Zm30.4,0c0,.37-.3,.66-.66,.66h-27.03c-.36,0-.66-.3-.66-.66V26.38h2.71c.19,0,.34-.15,.34-.34v-6.98c0-.19-.15-.34-.34-.34h-2.71V2.71c0-.37,.3-.66,.66-.66h27.03c.37,0,.66,.3,.66,.66V42.38Zm-27.62-17.97v-3.73c0-.19,.15-.34,.34-.34h0c.19,0,.34,.15,.34,.34v3.73c0,.19-.15,.34-.34,.34h0c-.19,0-.34-.15-.34-.34Z"/></g><g><path class="e" d="M18.87,18.79c-3.75,0-7.48-1.53-10.09-4.23-.28-.29-.54-.58-.8-.87-.5-.56-.97-1.09-1.5-1.51-1.45-1.14-3.52-1.48-5.26-.86-.48,.17-1-.08-1.17-.56-.17-.48,.08-1,.56-1.17,2.32-.83,5.07-.38,7,1.14,.67,.52,1.21,1.14,1.74,1.73,.25,.28,.49,.55,.74,.81,2.68,2.77,6.71,4.12,10.52,3.54,.5-.08,.97,.27,1.04,.77,.08,.5-.27,.97-.77,1.04-.67,.1-1.35,.15-2.02,.15Z"/><path class="e" d="M18.87,27.11c-3.75,0-7.48-1.53-10.09-4.23-.28-.29-.54-.58-.8-.87-.5-.56-.97-1.09-1.5-1.51-1.45-1.14-3.52-1.48-5.26-.86-.48,.17-1-.08-1.17-.56-.17-.48,.08-1,.56-1.17,2.32-.83,5.07-.38,7,1.14,.67,.52,1.21,1.14,1.74,1.73,.25,.28,.49,.55,.74,.81,2.68,2.77,6.71,4.12,10.52,3.54,.5-.08,.97,.27,1.04,.77,.08,.5-.27,.97-.77,1.04-.67,.1-1.35,.15-2.02,.15Z"/><path class="e" d="M18.87,35.44c-3.75,0-7.48-1.53-10.09-4.23-.28-.29-.54-.58-.8-.87-.5-.56-.97-1.09-1.5-1.51-1.45-1.14-3.52-1.48-5.26-.86-.48,.17-1-.08-1.17-.56-.17-.48,.08-1,.56-1.17,2.32-.83,5.07-.38,7,1.14,.67,.52,1.21,1.14,1.74,1.73,.25,.28,.49,.55,.74,.81,2.68,2.77,6.71,4.12,10.52,3.54,.5-.08,.97,.27,1.04,.77,.08,.5-.27,.97-.77,1.04-.67,.1-1.35,.15-2.02,.15Z"/></g></g></g></g></svg>