<?xml version="1.0" encoding="UTF-8"?><svg xmlns="http://www.w3.org/2000/svg" viewBox="0 0 226.06 18.61"><defs><style>.d{fill:#013591;}</style></defs><g id="a"/><g id="b"><g id="c"><g><path class="d" d="M10.41,5.88h5.6c.3,0,1.16,.02,1.16,1.04,0,.84-.34,1.16-1.16,1.16h-5.6v2.2h6.5c.27,0,1.18,0,1.18,1.06,0,.91-.48,1.18-1.18,1.18h-6.5v3.57c0,2.39-1.27,2.39-3.63,2.39-.53,0-1.92,0-2.34-.11-.48-.13-.74-.66-.74-1.18,0-1.16,1.04-1.16,1.35-1.16,.29,0,1.56,.04,1.82,.04,.57,0,1.03,0,1.03-.67v-2.89H1.16c-.36,0-1.16-.04-1.16-1.04,0-.8,.27-1.2,1.16-1.2H7.9v-2.2H2.13c-.28,0-1.16,0-1.16-1.04,0-.84,.38-1.16,1.16-1.16H7.9V3.83c-1.01,.06-2.47,.1-3.65,.11-.38,0-2.03,.04-2.37,.04-.7,0-1.08-.4-1.08-1.1,0-1.04,.93-1.06,1.2-1.08,.68-.02,3.78-.08,4.41-.09,2.39-.1,5.3-.34,7.01-.59,.36-.06,1.96-.34,2.28-.34,.63,0,1.03,.51,1.03,1.18,0,.84-.49,1.03-1.08,1.12-1.58,.27-3.08,.4-5.22,.57v2.24Z"/><path class="d" d="M23.77,16.82c-.82,1.46-1.12,1.56-1.56,1.56-.47,0-1.22-.44-1.22-1.16,0-.32,.13-.53,.76-1.54,.59-.97,1.14-2.2,1.5-3.13,.46-1.2,.68-1.63,1.35-1.63,.57,0,1.27,.44,1.18,1.14-.1,.85-1.27,3.46-2.01,4.77Zm.76-9.75c.49,.38,.72,.63,.72,1.06,0,.68-.61,1.25-1.1,1.25-.36,0-.59-.15-1.67-.95-.19-.13-1.01-.68-1.16-.82-.13-.09-.3-.3-.3-.66,0-.46,.38-1.23,1.16-1.23,.61,0,2.24,1.27,2.36,1.35Zm.25-5.11c.99,.7,1.18,.93,1.18,1.33,0,.53-.53,1.27-1.22,1.27-.32,0-.57-.17-1.14-.59-.46-.34-1.18-.84-1.61-1.16-.13-.09-.46-.32-.46-.74,0-.61,.53-1.25,1.18-1.25,.44,0,1.56,.78,2.07,1.14Zm6.4,1.56V1.82c0-.28,0-1.18,1.12-1.18,1.01,0,1.23,.49,1.23,1.18v1.71h3.51c.25,0,1.18,0,1.18,1.06s-.93,1.08-1.18,1.08h-3.51v2.53h4.18c.23,0,1.18,0,1.18,1.06s-.95,1.04-1.18,1.04h-2.87v5.09c0,.72,.32,.72,.89,.72,.91,0,.93-.46,.97-1.84,.02-.55,.04-1.22,1.01-1.22,1.04,0,1.04,.72,1.04,1.23,0,.66-.02,2.62-.51,3.36-.47,.68-1.1,.68-2.77,.68-2.2,0-2.87-.06-2.87-2.28v-5.76h-1.5c-.11,3.02-.85,4.94-1.77,6.1-1.14,1.42-2.72,2.13-3.25,2.13-.85,0-1.22-.68-1.22-1.23,0-.46,.21-.63,.59-.84,1.73-.95,3.27-1.82,3.44-6.16h-2.17c-.21,0-1.16,0-1.16-1.04s.93-1.06,1.16-1.06h4.45v-2.53h-2.77c-.91,1.98-1.35,1.98-1.67,1.98-.57,0-1.29-.49-1.29-1.1,0-.34,.08-.46,.72-1.52,.55-.93,1.03-2.32,1.25-3.21,.09-.4,.23-.89,.97-.89,.59,0,1.25,.34,1.25,.93,0,.48-.36,1.5-.42,1.67h1.96Z"/><path class="d" d="M45.75,3.45c0,.27-.17,1.5-.21,1.79-.08,.84-.15,1.9-.15,2.93,0,3.08,.74,6.27,2.01,6.27,.53,0,1.1-1.14,1.46-2.01,.55-1.29,.65-1.58,1.25-1.58,.55,0,1.31,.38,1.31,1.14,0,.46-.57,1.77-.95,2.53-.89,1.71-1.8,2.75-3.21,2.75-2.51,0-4.37-3.57-4.37-9.31,0-2.01,.23-3.86,.3-4.27,.09-.55,.21-1.18,1.23-1.18,.46,0,1.31,.15,1.31,.95Zm11.82,2.93c.87,1.79,1.5,4.1,1.5,6.25,0,.55,0,1.61-1.33,1.61-1.08,0-1.14-.72-1.2-1.54-.23-3-.97-4.94-1.9-6.48-.51-.85-.55-.91-.55-1.2,0-.53,.55-1.08,1.22-1.08,.38,0,1.04,0,2.26,2.43Z"/><path class="d" d="M69.31,9.62c0,1.33-1.08,2.47-2.47,2.47s-2.47-1.1-2.47-2.47,1.12-2.47,2.47-2.47,2.47,1.14,2.47,2.47Z"/><path class="d" d="M84.34,5.88h5.6c.3,0,1.16,.02,1.16,1.04,0,.84-.34,1.16-1.16,1.16h-5.6v2.2h6.5c.27,0,1.18,0,1.18,1.06,0,.91-.48,1.18-1.18,1.18h-6.5v3.57c0,2.39-1.27,2.39-3.63,2.39-.53,0-1.92,0-2.34-.11-.48-.13-.74-.66-.74-1.18,0-1.16,1.04-1.16,1.35-1.16,.29,0,1.56,.04,1.82,.04,.57,0,1.03,0,1.03-.67v-2.89h-6.74c-.36,0-1.16-.04-1.16-1.04,0-.8,.27-1.2,1.16-1.2h6.74v-2.2h-5.78c-.28,0-1.16,0-1.16-1.04,0-.84,.38-1.16,1.16-1.16h5.78V3.83c-1.01,.06-2.47,.1-3.65,.11-.38,0-2.03,.04-2.37,.04-.7,0-1.08-.4-1.08-1.1,0-1.04,.93-1.06,1.2-1.08,.68-.02,3.78-.08,4.41-.09,2.39-.1,5.3-.34,7.01-.59,.36-.06,1.96-.34,2.28-.34,.63,0,1.03,.51,1.03,1.18,0,.84-.49,1.03-1.08,1.12-1.58,.27-3.08,.4-5.22,.57v2.24Z"/><path class="d" d="M99.79,9.24c.68-.27,.76-.3,.93-.36,.15-.04,.28-.06,.4-.06,.63,0,.97,.57,.97,1.14,0,.67-.15,.87-2.3,1.67v4.79c0,2.05-1.18,2.05-2.7,2.05-.93,0-1.9,0-1.9-1.27,0-1.08,.87-1.08,1.23-1.08,.85,0,1.06,0,1.06-.61v-3.06c-.67,.23-1.25,.44-1.58,.44-.84,0-1.01-.91-1.01-1.33,0-.84,.51-.97,1.04-1.1,.3-.08,1.18-.34,1.54-.46v-3.76h-1.42c-.32,0-1.12,0-1.12-1.1,0-1.03,.63-1.14,1.12-1.14h1.42V1.82c0-.42,.08-1.16,1.06-1.16,.84,0,1.23,.27,1.23,1.16v2.18h.93c.3,0,1.12,0,1.12,1.12,0,1.04-.66,1.12-1.12,1.12h-.93v3Zm4.67-6.4c1.29-.13,3.42-.7,4.16-.93,.32-.1,1.88-.68,2.26-.68,.84,0,1.1,.76,1.1,1.2,0,.78-.49,.97-1.88,1.35-1.1,.3-3.32,.89-5.64,1.1v.87c0,.27,.02,.55,.44,.57,.38,0,3.21,.02,4.45,.02,.8,0,.99-.08,1.12-.7,.17-.89,.25-1.25,1.08-1.25,.44,0,1.25,.17,1.25,.99,0,.38-.11,1.04-.25,1.54-.27,.91-.63,1.44-1.56,1.54-.68,.06-3.84,.06-4.75,.06-.63,0-2.05,0-2.58-.06-1.46-.17-1.54-1.33-1.54-2.03V1.82c0-.87,.4-1.16,1.23-1.16,1.08,0,1.1,.82,1.1,1.16v1.03Zm7.47,13.24c0,1.63-.68,2.18-2.2,2.18h-5.09c-1.46,0-2.18-.49-2.18-2.18v-4.52c0-1.71,.76-2.18,2.18-2.18h5.09c1.48,0,2.2,.51,2.2,2.18v4.52Zm-2.26-3.23v-1.01c0-.42-.25-.55-.57-.55h-3.82c-.4,0-.55,.19-.55,.55v1.01h4.94Zm0,1.84h-4.94v1.12c0,.32,.13,.55,.55,.55h3.82c.36,0,.57-.17,.57-.55v-1.12Z"/><path class="d" d="M120.78,11.98c0,.91-2.47,5.6-3.13,6.17-.17,.15-.4,.25-.66,.25-.55,0-1.22-.46-1.22-1.14,0-.4,.06-.48,.97-1.86,.67-1.03,.87-1.46,1.88-3.61,.28-.63,.44-.87,1.03-.87,.44,0,1.14,.36,1.14,1.06Zm-2.05-5.32c1.27,.85,1.5,1.06,1.5,1.56,0,.53-.46,1.27-1.18,1.27-.34,0-.42-.06-1.16-.59-.27-.21-1.5-1.03-1.75-1.22-.15-.11-.36-.36-.36-.72,0-.65,.53-1.23,1.14-1.23,.44,0,1.35,.63,1.8,.93Zm.63-5c1.42,.89,1.61,1.03,1.61,1.58,0,.51-.44,1.31-1.12,1.31-.34,0-.46-.08-1.39-.68-.25-.15-1.35-.82-1.56-.95-.29-.17-.59-.34-.59-.85s.49-1.25,1.18-1.25c.42,0,1.44,.59,1.86,.85Zm4.79,.87c.29,.47,.8,1.41,.8,1.84,0,.55-.46,1.03-1.22,1.03-.59,0-.65-.09-1.25-1.23-.15-.27-.84-1.42-.95-1.67-.08-.13-.13-.29-.13-.48,0-.89,1.01-1.06,1.23-1.06,.53,0,.7,.17,1.52,1.58Zm2.15-.93c0-.32,0-1.03,1.04-1.03,.89,0,1.18,.3,1.18,1.03V5.69h2.43c1.35,0,2.05,.46,2.05,2.07v8.64c0,2.07-1.22,2.07-2.64,2.07-.55,0-1.27,0-1.63-.06-.23-.04-.93-.15-.93-1.12,0-1.04,.82-1.04,1.06-1.04,.23,0,1.22,.04,1.41,.02,.29-.04,.42-.1,.42-.49v-1.82h-6.57v3.5c0,.4-.06,1.16-1.06,1.16-.84,0-1.23-.27-1.23-1.16V7.76c0-1.54,.65-2.07,2.05-2.07h2.43V1.61Zm-2.19,7.45h6.57v-.95c0-.3-.13-.46-.46-.46h-5.66c-.28,0-.46,.13-.46,.46v.95Zm6.57,1.71h-6.57v1.48h6.57v-1.48Zm2.77-8.85c0,.27-.11,.63-.87,1.94-.8,1.39-1.1,1.6-1.58,1.6s-1.22-.3-1.22-.99c0-.32,.06-.42,.59-1.27,.17-.28,.93-1.65,1.08-1.92,.23-.38,.53-.38,.91-.38s1.08,.36,1.08,1.03Z"/><path class="d" d="M144.51,1.36c0-.63,.51-.78,1.04-.78,.84,0,1.29,.15,1.29,.78v.46h6.44c.23,0,.99,.02,.99,.87,0,.72-.53,.87-.99,.87h-6.44v.65h5.66c.25,0,.84,.02,.84,.78,0,.65-.42,.78-.84,.78h-5.66v.72h6.86c.46,0,.99,.11,.99,.85,0,.61-.32,.87-.99,.87h-16.03c-.46,0-.99-.11-.99-.85,0-.61,.34-.87,.99-.87h6.84v-.72h-5.62c-.27,0-.82-.04-.82-.78,0-.59,.32-.78,.82-.78h5.62v-.65h-6.38c-.23,0-.99,0-.99-.87s.76-.87,.99-.87h6.38v-.46Zm-6.82,11.97c-.38,0-1.01-.08-1.01-.87,0-.7,.44-.91,1.01-.91h.89c.19-1.39,.21-1.56,.34-1.82,.42-.87,1.18-.87,1.75-.87h10.26c.63,0,1.99,0,1.99,1.75,0,.17,0,.51-.04,.95h.82c.38,0,.99,.1,.99,.89,0,.72-.46,.89-.99,.89h-.95c-.08,.7-.09,.76-.13,1.2h.76c.23,0,.97,.02,.97,.85,0,.65-.28,.95-.97,.95h-.97c-.19,1.2-.4,1.61-1.03,1.92-.48,.25-.97,.25-3.15,.25-.59,0-2.41,0-2.87-.06-.57-.06-.61-.53-.61-.74,0-.74,.46-.74,1.39-.74,.46,0,2.43,.04,2.85,.04,.8,0,.82,0,1.04-.66h-10.03c-.46,0-1.96,0-1.96-1.5,0-.3,0-.32,.23-1.5h-.59Zm2.93,0c-.11,.67-.11,.68-.11,.78,0,.42,.34,.42,.51,.42h3.1c.04-.17,.17-1.01,.21-1.2h-3.7Zm3.93-1.79c.06-.49,.06-.65,.09-1.06h-3.1c-.49,0-.51,.11-.65,1.06h3.65Zm1.99,1.79c-.1,.68-.13,.91-.17,1.2h3.95c.04-.36,.04-.44,.11-1.2h-3.89Zm4.03-1.79c.04-.34,.04-.4,.04-.53,0-.19-.02-.53-.53-.53h-3.23c-.02,.17-.08,.91-.09,1.06h3.82Z"/><path class="d" d="M164.31,9.62c0,1.33-1.08,2.47-2.47,2.47s-2.47-1.1-2.47-2.47,1.12-2.47,2.47-2.47,2.47,1.14,2.47,2.47Z"/><path class="d" d="M172.22,6.49c3.78-.87,5.45-.99,6.48-.99,4.35,0,5.59,2.62,5.59,4.94,0,6.46-8.25,7.43-10.09,7.43-.29,0-1.44,0-1.44-1.29,0-1.06,.74-1.12,1.37-1.16,4.05-.3,7.58-1.86,7.58-4.94,0-2.53-2.18-2.58-3.06-2.58-1.58,0-4.26,.61-6.23,1.16-.48,.13-1.54,.44-1.82,.44-.91,0-1.16-.89-1.16-1.37,0-.99,.55-1.12,2.79-1.63Zm1.61-5.21c.23,0,.61,.11,1.37,.32,1.33,.38,3.19,.78,4.79,1.01,.53,.08,1.2,.17,1.2,1.1,0,.11,0,1.25-1.12,1.25-.49,0-3.1-.38-5.74-1.06-1.2-.3-1.65-.44-1.65-1.23s.47-1.39,1.16-1.39Z"/><path class="d" d="M192.91,5.46c.11-.57,.65-3.44,.7-3.57,.09-.27,.32-.65,1.14-.65,.65,0,1.31,.29,1.31,.95,0,.51-.38,2.39-.55,3.06,3.72,.08,4.6,1.94,4.6,5.24,0,5.22-1.31,7.14-4.46,7.14-1.22,0-2.05-.15-2.05-1.29,0-.51,.21-1.22,.84-1.22,.13,0,.68,.06,.78,.06,.46,0,1.46-.28,1.73-.76,.61-1.14,.63-3.7,.63-4.24,0-2.39-.84-2.7-2.6-2.62-.93,3.44-1.84,6-3.13,8.43-.63,1.2-.93,1.63-1.56,1.63-.59,0-1.46-.4-1.46-1.22,0-.34,.08-.46,.76-1.63,1.25-2.17,2.11-4.52,2.77-6.93-.48,.08-2.56,.46-2.98,.46-.87,0-1.06-.8-1.06-1.27,0-1.01,.72-1.1,1.52-1.2l3.1-.38Zm11.8,5.62c0,.89-.93,1.18-1.41,1.18-.84,0-.91-.44-1.12-1.35-.57-2.64-1.69-4.26-2.32-5q-.8-.97-.8-1.27c0-.47,.47-1.01,1.12-1.01,1.5,0,4.52,5.4,4.52,7.45Zm-.34-6.55c0,.42-.38,.78-.8,.78-.38,0-.55-.25-.83-.72-.11-.17-.51-.82-1.5-1.9-.25-.27-.25-.4-.25-.51,0-.59,.59-.85,.93-.78,.59,.11,2.45,2.58,2.45,3.13Zm1.18-3.12c.34,.44,1.03,1.31,1.03,1.73s-.36,.8-.82,.8c-.36,0-.46-.15-.82-.72-.15-.25-.57-.89-1.5-1.9-.25-.29-.25-.42-.25-.53,0-.55,.55-.85,.93-.78,.4,.08,.95,.78,1.42,1.41Z"/><path class="d" d="M212.74,3.45c0,.27-.17,1.5-.21,1.79-.08,.84-.15,1.9-.15,2.93,0,3.08,.74,6.27,2.01,6.27,.53,0,1.1-1.14,1.46-2.01,.55-1.29,.65-1.58,1.25-1.58,.55,0,1.31,.38,1.31,1.14,0,.46-.57,1.77-.95,2.53-.89,1.71-1.8,2.75-3.21,2.75-2.51,0-4.37-3.57-4.37-9.31,0-2.01,.23-3.86,.3-4.27,.09-.55,.21-1.18,1.23-1.18,.46,0,1.31,.15,1.31,.95Zm11.82,2.93c.87,1.79,1.5,4.1,1.5,6.25,0,.55,0,1.61-1.33,1.61-1.08,0-1.14-.72-1.2-1.54-.23-3-.97-4.94-1.9-6.48-.51-.85-.55-.91-.55-1.2,0-.53,.55-1.08,1.22-1.08,.38,0,1.04,0,2.26,2.43Z"/></g></g></g></svg>