<?xml version="1.0" encoding="UTF-8"?><svg xmlns="http://www.w3.org/2000/svg" viewBox="0 0 179.19 18.07"><defs><style>.d{fill:#013591;}</style></defs><g id="a"/><g id="b"><g id="c"><g><path class="d" d="M13.93,2.66c1.03,0,2.2,0,2.2,1.31,0,.87-.93,2.05-2.24,3.72-.51,.65-1.86,2.34-4.22,4.9,.42,.44,1.06,1.08,1.25,1.29,.82,.89,.87,1.16,.87,1.46,0,.68-.72,1.33-1.39,1.33-.55,0-.8-.27-1.31-.85-1.2-1.35-2.6-2.77-4.52-4.41-1.23-1.04-1.37-1.16-1.37-1.63,0-.65,.61-1.23,1.35-1.23,.38,0,.61,.11,1.39,.74,.59,.46,1.37,1.14,1.96,1.65,2.47-2.62,4.58-5.36,4.58-5.66,0-.15-.13-.15-.44-.15H1.25c-.8,0-1.25-.42-1.25-1.25,0-.99,.67-1.22,1.25-1.22H13.93Z"/><path class="d" d="M22.17,4.33c-.46,0-1.27-.13-1.27-1.2,0-.91,.55-1.23,1.27-1.23h9.19c.57,0,2.13,0,2.13,1.54,0,.49-.32,2.32-2.79,5.97,1.65,1.35,3.17,2.85,4.54,4.48,.61,.7,.8,.99,.8,1.44,0,.7-.63,1.31-1.37,1.31-.55,0-.67-.13-1.6-1.29-1.61-1.98-3.31-3.46-3.93-3.99-3.46,3.91-7.09,5.62-7.81,5.62-.68,0-1.23-.68-1.23-1.35s.23-.8,1.56-1.46c5.83-2.94,8.74-8.72,8.74-9.57,0-.27-.28-.27-.61-.27h-7.62Z"/><path class="d" d="M52.74,1.92c.42,0,2.03,0,2.03,1.69,0,.89-1.01,6.27-5.19,10.3-2.22,2.15-5.07,3.51-6.02,3.51-.72,0-1.22-.74-1.22-1.35,0-.7,.38-.87,1.52-1.39,2.75-1.25,5.02-3.46,6.59-6.21,.59-1.03,1.37-2.89,1.37-3.74,0-.42-.32-.42-.65-.42h-4.33c-.76,0-.8,.08-1.31,.87-.32,.49-1.35,2.07-3.06,3.61-.44,.4-.78,.65-1.25,.65-.74,0-1.37-.67-1.37-1.29,0-.44,.19-.59,.91-1.25,1.65-1.48,2.38-2.7,3.1-3.88,.65-1.08,1.18-1.1,2.39-1.1h6.48Z"/><path class="d" d="M66.71,12.65c-.72,1.94-1.67,3.46-3.38,3.46-2.11,0-4.1-2.81-4.1-6.23,0-5.05,3.76-8.4,8.74-8.4,5.36,0,7.86,3.84,7.86,7.5,0,5.68-5.15,7.94-6.12,7.94-.82,0-1.25-.7-1.25-1.33,0-.49,.21-.76,.63-.95,1.35-.61,4.18-1.92,4.18-5.68,0-1.48-.48-4.65-4.56-5.21-.3,2.62-.8,5.74-1.99,8.89Zm-5.11-2.72c0,1.86,.8,3.55,1.65,3.55,.59,0,.97-1.04,1.27-1.86,.91-2.49,1.42-5.13,1.77-7.77-3.32,.85-4.69,3.53-4.69,6.08Z"/><path class="d" d="M96.2,15.39c.87,0,1.12,.57,1.12,1.08s-.15,1.16-1.14,1.16h-8.68c-1.92,0-3.27-.46-4.46-1.9-.49,.68-1.1,1.31-1.18,1.41-.48,.48-.72,.72-1.22,.72-.7,0-1.31-.7-1.31-1.42,0-.46,.21-.63,.95-1.25,.67-.55,.97-.87,1.2-1.1v-4.01c0-.15,0-.57-.44-.57h-.59c-.63,0-1.04-.36-1.04-1.08,0-.89,.36-1.23,1.18-1.23h1.04c1.73,0,2.13,.36,2.13,2.13v3.74c.15,1.61,1.75,2.34,3.5,2.34h8.95ZM82.48,1.44c.44,.44,.87,.87,1.27,1.35,.25,.3,.4,.53,.4,.89,0,.72-.67,1.25-1.25,1.25-.49,0-.82-.32-1.25-.85-.4-.51-.8-.93-1.29-1.44-.63-.63-.74-.84-.74-1.14,0-.48,.4-1.08,1.04-1.18,.53-.1,.85,.17,1.82,1.12Zm7.22,7.94v-.76h-1.94c-.59,0-.72-.46-.72-.85,0-.51,.25-.82,.72-.82h1.94v-.4c0-.34,.15-.46,.27-.53h-2.66c-.28,0-.44,.11-.44,.42v7.33c0,.61-.19,1.03-1.06,1.03-1.06,0-1.06-.78-1.06-1.06V6.35c0-1.29,.13-1.99,1.77-1.99h.59c-.11-.36-.21-.63-.42-1.18h-1.67c-.53,0-.99-.19-.99-.93,0-.87,.67-.93,.99-.93h4.43v-.48c0-.65,.46-.84,1.27-.84,.59,0,1.06,.21,1.06,.84v.48h4.5c.57,0,.99,.23,.99,.93,0,.85-.63,.93-.99,.93h-1.71c-.06,.19-.32,.87-.49,1.18h.67c1.65,0,1.86,.59,1.86,1.99v6.29c0,2.13-.65,2.13-2.85,2.13-.85,0-1.44,0-1.37-1.12-.25,.02-.34,.02-.49,.02h-2.45c-1.42,0-1.75-.34-1.75-1.75v-.8c0-1.39,.3-1.73,1.75-1.73h.27Zm-.84-6.21c.11,.3,.32,1.03,.36,1.18h2.66c.19-.36,.42-1.04,.47-1.18h-3.5Zm3,8.07c0-.23-.1-.36-.34-.36h-1.73c-.15,0-.34,.06-.34,.36v.49c0,.27,.13,.34,.34,.34h1.73c.19,0,.34-.08,.34-.34v-.49Zm.02-1.86c1.42,0,1.73,.34,1.73,1.73v.8c0,.28,0,.61-.06,.89,.61-.02,.85-.02,.85-.47V6.44c0-.25-.11-.42-.44-.42h-2.72c.3,.17,.3,.44,.3,.53v.4h1.99c.49,0,.63,.44,.63,.82,0,.25-.06,.85-.63,.85h-1.99v.76h.32Z"/><path class="d" d="M101.82,1.29c0-.34,.02-1.2,1.16-1.2,1.04,0,1.18,.65,1.18,1.2v3.8l2.83-.59c.1-.02,.27-.06,.46-.06,.65,0,.99,.7,.99,1.22,0,.57-.3,.95-.87,1.06l-3.4,.7v4.48c0,.46,.17,.57,.61,.57,.84,0,1.04,0,1.23-1.23,.15-.99,.21-1.41,.97-1.41,1.06,0,1.12,.7,1.12,1.06,0,.09-.08,2.17-.8,3.15-.32,.44-.84,.78-1.99,.78-2,0-2.07-.02-2.49-.17-.99-.38-.99-1.18-.99-2.11V7.92l-.44,.1c-.85,.19-1.27-.53-1.27-1.2,0-.55,.25-.93,.91-1.06l.8-.17V1.29Zm6.08,1.9c-.3,0-1.2,0-1.2-1.1,0-.95,.46-1.22,1.2-1.22h7.18c.74,0,2.38,0,2.58,1.77,.04,.34,.06,.74,.06,2.43,0,2.68-.11,7.2-.46,9.52-.46,2.96-1.27,3.31-3.69,3.31-.4,0-1.39,0-1.92-.09-.91-.17-.95-.99-.95-1.22,0-.97,.72-1.1,1.14-1.1,.27,0,1.35,.08,1.58,.08,.67,0,1.1,0,1.37-1.39,.42-2.15,.49-5.95,.49-8.15,0-.46,0-2.03-.04-2.34-.04-.44-.3-.49-.72-.49h-1.82c-.08,6.27-.82,9.29-2.6,11.55-1.58,1.99-4.01,3.32-5.15,3.32-.61,0-1.22-.61-1.22-1.31,0-.59,.46-.82,.91-.99,4.22-1.61,5.66-4.01,5.64-12.58h-2.39Z"/><path class="d" d="M124.55,12.8c-.46,.85-.74,1.39-1.5,1.39-.61,0-1.39-.4-1.39-1.2,0-.38,.06-.51,.7-1.63,.3-.55,1.48-2.96,2.39-5.41-2.05,.04-3,.08-3-1.25,0-1.2,.99-1.2,1.39-1.2,.47,0,2.01,0,2.41-.02,.11-.36,.55-2.09,.68-2.36,.21-.42,.57-.61,1.04-.61,.57,0,1.42,.27,1.42,1.01,0,.3-.06,.48-.44,1.75,.27-.04,1.41-.21,1.65-.21,.67,0,.99,.51,.99,1.14,0,1.2-.57,1.27-3.46,1.56-.85,2.39-1.73,4.79-2.91,7.05Zm7.03-5.02c0-1.08,.84-1.14,1.12-1.14,1.2,0,1.25,.87,1.27,1.22,.1,1.44,.13,2.72,.15,3.61,1.1,.4,2.43,1.08,3.04,1.5,.47,.32,.7,.57,.7,1.04,0,.61-.4,1.42-1.18,1.42-.25,0-.34-.06-1.18-.59-.48-.3-1.16-.65-1.31-.72,0,2.34-1.54,3.19-3.88,3.19-2.47,0-4.35-1.22-4.35-3.32,0-1.73,1.33-3.36,4.14-3.36,.67,0,1.35,.11,1.6,.15-.02-.42-.13-2.53-.13-3Zm-1.61,5.03c-1.25,0-1.79,.49-1.79,1.14,0,.99,1.22,1.23,1.88,1.23,.21,0,1.46-.02,1.69-.84,.06-.19,.04-.3,.04-1.25-.34-.11-1.1-.29-1.82-.29Zm6.38-8.28c1.1,.55,1.54,.78,1.54,1.46,0,.65-.44,1.39-1.08,1.39-.36,0-.47-.08-1.63-.74-.82-.46-2.11-1.03-2.56-1.23-.28-.13-.68-.32-.68-.91,0-.78,.63-1.25,1.23-1.25s2.43,.89,3.19,1.29Z"/><path class="d" d="M157.66,11.46v4.1c0,1.75-.8,2.22-2.22,2.22h-7.88c-1.44,0-2.22-.49-2.22-2.22v-1.71c-.46,.67-1.65,2.39-2.66,2.39-.67,0-1.31-.59-1.31-1.27q0-.46,1.41-1.81c.99-.93,1.81-2.7,2.26-4.58h-2.68c-.36,0-1.01-.06-1.01-.91,0-.68,.4-.91,1.01-.91h6.71v-.72h-5.51c-.29,0-.85-.04-.85-.82s.49-.82,.85-.82h5.51v-.7h-6.14c-.23,0-1.01,0-1.01-.91s.76-.93,1.01-.93h3.06c-.38-.76-.42-.84-.42-1.04,0-.59,.93-.72,1.35-.72,.63,0,.89,.19,1.1,.59,.11,.19,.44,.8,.57,1.18h3.48c.57-1.63,.95-1.77,1.61-1.77,.23,0,1.39,.08,1.39,.82,0,.19-.13,.48-.4,.95h3.04c.21,0,1.01,0,1.01,.91s-.78,.93-1.01,.93h-6.25v.7h5.55c.29,0,.85,.02,.85,.8,0,.72-.44,.84-.85,.84h-5.55v.72h6.8c.27,0,.99,0,.99,.91,0,.78-.53,.91-.99,.91h-10.79c-.04,.1-.15,.55-.17,.65h8.15c1.42,0,2.22,.46,2.22,2.22Zm-10.01,.23h7.62v-.38c0-.32-.17-.46-.46-.46h-6.71c-.28,0-.46,.13-.46,.46v.38Zm0,1.27v.82h7.62v-.82h-7.62Zm0,2.15v.44c0,.34,.17,.47,.46,.47h6.71c.27,0,.46-.13,.46-.47v-.44h-7.62Z"/><path class="d" d="M172.63,12.39v4.35c0,.48-.08,1.16-1.04,1.16-.82,0-1.22-.25-1.22-1.16v-4.35h-3.97c-.15,1.5-.4,2.74-1.08,4.22-.57,1.22-.91,1.41-1.48,1.41-.8,0-1.46-.59-1.46-1.31,0-.27,.02-.29,.8-1.79,.48-.95,.91-2.56,.91-4.96V3.21c0-1.82,.78-2.38,2.36-2.38h10.37c1.56,0,2.37,.53,2.37,2.38V15.73c0,2.22-1.18,2.22-3.23,2.22-1.06,0-1.98,0-1.98-1.27,0-.68,.28-1.18,1.08-1.18,.17,0,.97,.02,1.14,.02,.42,0,.57-.21,.57-.72v-2.41h-4.14Zm-2.26-6.82V3.08h-3.21c-.46,0-.65,.25-.65,.65v1.84h3.86Zm0,2.09h-3.86v2.6h3.86v-2.6Zm2.26-2.09h4.14v-1.84c0-.4-.21-.65-.65-.65h-3.5v2.49Zm4.14,2.09h-4.14v2.6h4.14v-2.6Z"/></g></g></g></svg>