<?xml version="1.0" encoding="UTF-8"?><svg xmlns="http://www.w3.org/2000/svg" viewBox="0 0 217.55 45.09"><defs><style>.d{fill:#fff;}.e{fill:#013591;}</style></defs><g id="a"/><g id="b"><g id="c"><g><path class="e" d="M113.69,24.97c.23-.04,.38-.06,.55-.06,1.18,0,1.18,1.08,1.18,1.29,0,.66-.27,1.08-.84,1.27-1.27,.44-4.65,.51-5.89,.51-4.83,0-8.09-.85-8.09-4.05,0-1.14,.68-3.12,1.96-3.12,.57,0,1.14,.36,1.14,.91,0,.21-.06,.32-.29,.78-.27,.57-.28,.85-.28,1.04,0,.78,.34,1.84,5.62,1.84,2.05,0,2.72-.1,4.94-.44Zm-10.96-11.23c.53-.19,2.83-.27,3.84-.27,1.42,0,5.55,.09,6.65,.65,.59,.29,.59,.89,.59,1.04,0,.19,0,1.33-1.16,1.33-.17,0-.21,0-.68-.06-1.99-.27-3.38-.36-5.03-.36-1.42,0-2.3,.06-3.32,.13-.19,.02-.32,.02-.38,.02-1.2,0-1.22-.99-1.22-1.31,0-.15,0-.91,.72-1.18Z"/><path class="e" d="M128.11,18.3c.65,0,3.46-.11,4.03-.11,.44,0,1.41,0,1.41,1.18,0,1.06-.8,1.12-1.12,1.14-.15,.02-1.16,.08-4.29,.13v2.2c1.67,.4,3.78,1.37,4.54,1.8,.89,.53,.99,.93,.99,1.29,0,.72-.49,1.37-1.18,1.37-.3,0-.42-.06-1.48-.68-.78-.46-1.79-.95-2.85-1.33-.02,1.22-.06,3.51-4.1,3.51-2.81,0-4.41-1.35-4.41-3.15,0-2.36,2.24-3.25,4.86-3.25,.57,0,.87,.02,1.16,.06v-1.79c-1.29,.02-4.27,.04-4.84,0-.38-.04-1.08-.08-1.08-1.2s.85-1.14,1.58-1.14h4.33v-1.48c-1.52,.02-3.88,.04-5.3,0-.4,0-1.27-.02-1.27-1.16s.87-1.18,1.61-1.18c.49,0,2.72,.04,3.15,.04h1.79v-1.42c0-1.1,.87-1.12,1.2-1.12,.4,0,1.27,.11,1.27,1.1v1.42c.78-.02,4.22-.13,4.92-.13,.32,0,1.27,0,1.27,1.14s-.78,1.18-1.41,1.2c-1.12,.04-3.5,.1-4.77,.1v1.46Zm-3.74,6.23c-.38,0-2.41,0-2.41,1.14,0,.63,.65,1.06,1.82,1.06,1.92,0,1.92-.84,1.9-2.11-.29-.04-.68-.1-1.31-.1Z"/><path class="e" d="M141.05,27.5c-1.31,0-2.98-1.06-2.98-4.03,0-2.07,.87-4.27,2.7-5.93-.21-.7-.74-2.53-.74-3.13,0-1.14,1.25-1.14,1.33-1.14,.82,0,.97,.53,1.03,.74,.08,.3,.38,1.75,.44,2.09,.49-.27,1.84-.95,3.84-1.1,.04-.15,.42-2.07,.44-2.13,.25-.67,.7-.74,1.01-.74,.4,0,1.37,.17,1.37,1.04,0,.42-.13,1.08-.32,1.92,5.05,.97,5.7,4.79,5.7,6.5,0,6.29-6.61,7.2-7.03,7.2-1.23,0-1.23-1.25-1.23-1.29,0-.76,.4-.85,1.25-1.08,.91-.23,4.5-1.14,4.5-4.84,0-1.16-.42-3.53-3.74-4.22-2.47,8.95-5.95,10.14-7.54,10.14Zm.53-7.52c-.74,.93-1.27,2.26-1.27,3.44,0,.44,.08,1.77,1.03,1.77,.72,0,1.52-.85,1.96-1.41-.36-.68-1.06-1.99-1.71-3.8Zm1.8-1.62c.55,1.65,.95,2.45,1.31,3.21,.82-1.75,1.14-2.96,1.48-4.24-.85,.13-1.88,.46-2.79,1.03Z"/><path class="e" d="M161.76,24.29c-.46,.85-.74,1.39-1.5,1.39-.61,0-1.39-.4-1.39-1.2,0-.38,.06-.51,.7-1.63,.3-.55,1.48-2.96,2.39-5.41-2.05,.04-3,.08-3-1.25,0-1.2,.99-1.2,1.39-1.2,.47,0,2.01,0,2.41-.02,.11-.36,.55-2.09,.68-2.36,.21-.42,.57-.61,1.04-.61,.57,0,1.42,.27,1.42,1.01,0,.3-.06,.48-.44,1.75,.27-.04,1.41-.21,1.65-.21,.67,0,.99,.51,.99,1.14,0,1.2-.57,1.27-3.46,1.56-.85,2.39-1.73,4.79-2.91,7.05Zm7.03-5.02c0-1.08,.84-1.14,1.12-1.14,1.2,0,1.25,.87,1.27,1.22,.1,1.44,.13,2.72,.15,3.61,1.1,.4,2.43,1.08,3.04,1.5,.47,.32,.7,.57,.7,1.04,0,.61-.4,1.42-1.18,1.42-.25,0-.34-.06-1.18-.59-.48-.3-1.16-.65-1.31-.72,0,2.34-1.54,3.19-3.88,3.19-2.47,0-4.35-1.22-4.35-3.32,0-1.73,1.33-3.36,4.14-3.36,.67,0,1.35,.11,1.6,.15-.02-.42-.13-2.53-.13-3Zm-1.61,5.03c-1.25,0-1.79,.49-1.79,1.14,0,.99,1.22,1.23,1.88,1.23,.21,0,1.46-.02,1.69-.84,.06-.19,.04-.3,.04-1.25-.34-.11-1.1-.29-1.82-.29Zm6.38-8.28c1.1,.55,1.54,.78,1.54,1.46,0,.65-.44,1.39-1.08,1.39-.36,0-.47-.08-1.63-.74-.82-.46-2.11-1.03-2.56-1.23-.28-.13-.68-.32-.68-.91,0-.78,.63-1.25,1.23-1.25s2.43,.89,3.19,1.29Z"/><path class="e" d="M185.08,24.65c-.3,0-1.06,0-1.06-.99,0-.76,.32-.97,.87-1.04v-4.79c0-.44,.02-.61,.04-.84-.38-.02-.67-.21-.85-.51-.04,.19-.15,.7-.7,.7h-.61v3.08c.3-.09,.8-.27,.91-.27,.08,0,.87,.02,.87,1.16,0,.74-.21,.87-1.79,1.46v4.65c0,1.67-.34,2.13-2.2,2.13-.95,0-1.84,0-1.84-1.31,0-1.04,.65-1.04,1.16-1.04,.48,0,.67-.02,.67-.55v-3.15c-.68,.21-.87,.23-1.04,.23-.89,0-1.08-.84-1.08-1.25,0-.87,.42-.97,2.13-1.41v-3.72h-.85c-.34,0-1.16-.02-1.16-1.12,0-1.04,.68-1.14,1.16-1.14h.85v-2.34c0-.29,0-1.03,1.1-1.03s1.12,.7,1.12,1.03v2.34h.61c.25,0,.53,.15,.65,.49,.13-.19,.23-.29,.8-.74,1.22-.93,1.94-1.92,2.39-2.55,.23-.3,.46-.63,1.22-.63,.27,0,1.08,.06,1.08,.78,0,.15-.04,.27-.08,.36h3.06c.46,0,1.69,0,1.69,1.27,0,.65-.28,1.12-.99,1.79h.27c1.82,0,2.2,.38,2.2,2.13v4.79c.3,.02,.91,.06,.91,.95,0,.74-.23,1.08-1.04,1.08h-3.82c1.22,1.62,2.39,2.01,4.03,2.58,.25,.08,.7,.25,.7,.89,0,.29-.17,1.29-1.27,1.29-.97,0-2.38-.85-2.74-1.08-1.25-.78-1.86-1.67-2.34-2.39-1.67,2.7-4.39,3.55-5.03,3.55s-1.22-.57-1.22-1.29,.46-.87,.82-.99c1.98-.67,2.93-1.33,3.63-2.56h-3.21Zm3.82-2.03c.06-.44,.08-.67,.11-.8,.15-.59,.82-.61,1.06-.61,1.18,0,1.18,.67,1.18,.95,0,.15-.02,.28-.04,.46h2.36v-1.41h-1.39c-1.01,0-1.67-.32-1.67-1.63v-2.09h-.72c-.04,1.48-.21,2.22-.63,2.93-.53,.89-.91,1.06-1.25,1.06-.63,0-.95-.44-.95-.8,0-.25,.06-.32,.46-.87,.47-.65,.53-1.5,.55-2.32h-.68c-.25,0-.47,.09-.47,.46v4.67h2.09Zm2.32-7.9c0-.23-.23-.23-.32-.23h-2.85c-.27,.3-.49,.55-1.18,1.22h3.36c.29-.23,.99-.74,.99-.99Zm.99,2.77v1.35c0,.32,0,.59,.59,.59h.78v-1.48c0-.27-.13-.46-.47-.46h-.89Z"/><path class="e" d="M216.12,12.81c.27,0,1.16,0,1.16,.99,0,.74-.38,1.06-1.16,1.06h-11.61c-.42,.65-.65,.97-.78,1.16,.11-.1,.3-.23,.68-.23h10.6c.72,0,.97,.42,.97,.97s-.21,1.01-.97,1.01h-10.6c-.68,0-.97-.38-.97-.99,0-.27,.06-.38,.09-.49-1.06,1.42-1.44,1.92-2.11,2.47h11c.76,0,2.11,0,2.11,1.73,0,.57-.13,3.06-.13,3.57,0,1.48,.11,2.53,.65,2.53,.25,0,.36-.21,.65-.8,.15-.29,.36-.68,.87-.68,.4,0,.97,.34,.97,1.03,0,.89-1.16,3.42-2.98,3.42-.82,0-1.54-.51-1.9-1.23-.51-1.06-.61-2.45-.61-3.97,0-.32,.02-1.39,.02-1.79,0-.17,.02-.93,.02-1.08,0-.34,0-.78-.78-.78h-9.97c-.34,0-1.14-.04-1.14-.97,0-.48,.17-.61,.28-.72-.63-.13-1.04-.76-1.04-1.27,0-.38,.15-.61,.49-.95,1.52-1.52,2.2-2.64,3.25-4.39,.36-.61,.57-.97,1.23-.97,.51,0,1.37,.25,1.37,.93,0,.17-.04,.29-.11,.46h10.45Zm-14.17,10.79c-.44-.23-.95-.53-.95-1.04,0-.55,.46-1.16,1.1-1.16,.3,0,.63,.09,1.67,.66,.57,.3,1.27,.72,2.79,1.71,.67-.55,1.29-1.04,2.38-2.2,.23-.27,.42-.44,.84-.44,.59,0,1.25,.47,1.25,1.12,0,.36-.19,.67-.95,1.42-.49,.49-1.06,.99-1.58,1.41,.85,.65,1.41,1.06,2.17,1.8,.32,.32,.44,.55,.44,.84,0,.72-.68,1.31-1.27,1.31-.4,0-.76-.3-.87-.4-1.69-1.56-1.86-1.73-2.38-2.11-3.17,2.17-5.17,2.81-5.64,2.81-.68,0-1.18-.63-1.18-1.29,0-.7,.44-.87,.76-.99,2.09-.78,3.29-1.46,4.05-1.94-.63-.4-1.71-1.01-2.62-1.52Z"/></g><g><g><rect class="d" x="10.74" y="1.26" width="31.13" height="43.15"/><g><rect class="d" x="58.07" y="-5.13" width="1.89" height="37.46" transform="translate(9.07 47.85) rotate(-47.42)"/><path class="d" d="M71.44,19.63c-.23,0-.46-.08-.64-.25L51.59,1.86c-.39-.35-.41-.95-.06-1.33,.35-.39,.95-.41,1.34-.06l19.21,17.53c.39,.35,.41,.95,.06,1.33-.19,.2-.44,.31-.7,.31Z"/></g><path class="e" d="M71.9,0H10.71c-.76,0-1.38,.62-1.38,1.38V43.71c0,.76,.62,1.38,1.38,1.38h61.19c.76,0,1.38-.62,1.38-1.38V1.38c0-.76-.62-1.38-1.38-1.38Zm-31.07,42.38c0,.37-.3,.66-.66,.66H12.04c-.37,0-.66-.3-.66-.66V2.71c0-.37,.3-.66,.66-.66h28.13c.37,0,.66,.3,.66,.66V42.38Zm30.4,0c0,.37-.3,.66-.66,.66h-27.03c-.36,0-.66-.3-.66-.66V26.38h2.71c.19,0,.34-.15,.34-.34v-6.98c0-.19-.15-.34-.34-.34h-2.71V2.71c0-.37,.3-.66,.66-.66h27.03c.37,0,.66,.3,.66,.66V42.38Zm-27.62-17.97v-3.73c0-.19,.15-.34,.34-.34h0c.19,0,.34,.15,.34,.34v3.73c0,.19-.15,.34-.34,.34h0c-.19,0-.34-.15-.34-.34Z"/></g><g><path class="e" d="M18.87,18.79c-3.75,0-7.48-1.53-10.09-4.23-.28-.29-.54-.58-.8-.87-.5-.56-.97-1.09-1.5-1.51-1.45-1.14-3.52-1.48-5.26-.86-.48,.17-1-.08-1.17-.56-.17-.48,.08-1,.56-1.17,2.32-.83,5.07-.38,7,1.14,.67,.52,1.21,1.14,1.74,1.73,.25,.28,.49,.55,.74,.81,2.68,2.77,6.71,4.12,10.52,3.54,.5-.08,.97,.27,1.04,.77,.08,.5-.27,.97-.77,1.04-.67,.1-1.35,.15-2.02,.15Z"/><path class="e" d="M18.87,27.11c-3.75,0-7.48-1.53-10.09-4.23-.28-.29-.54-.58-.8-.87-.5-.56-.97-1.09-1.5-1.51-1.45-1.14-3.52-1.48-5.26-.86-.48,.17-1-.08-1.17-.56-.17-.48,.08-1,.56-1.17,2.32-.83,5.07-.38,7,1.14,.67,.52,1.21,1.14,1.74,1.73,.25,.28,.49,.55,.74,.81,2.68,2.77,6.71,4.12,10.52,3.54,.5-.08,.97,.27,1.04,.77,.08,.5-.27,.97-.77,1.04-.67,.1-1.35,.15-2.02,.15Z"/><path class="e" d="M18.87,35.44c-3.75,0-7.48-1.53-10.09-4.23-.28-.29-.54-.58-.8-.87-.5-.56-.97-1.09-1.5-1.51-1.45-1.14-3.52-1.48-5.26-.86-.48,.17-1-.08-1.17-.56-.17-.48,.08-1,.56-1.17,2.32-.83,5.07-.38,7,1.14,.67,.52,1.21,1.14,1.74,1.73,.25,.28,.49,.55,.74,.81,2.68,2.77,6.71,4.12,10.52,3.54,.5-.08,.97,.27,1.04,.77,.08,.5-.27,.97-.77,1.04-.67,.1-1.35,.15-2.02,.15Z"/></g></g></g></g></svg>