<?xml version="1.0" encoding="UTF-8"?><svg xmlns="http://www.w3.org/2000/svg" viewBox="0 0 281 39.87"><defs><style>.d{fill:#fff;}.e{fill:#013591;}</style></defs><g id="a"/><g id="b"><g id="c"><g><path class="e" d="M115.73,10.29c1.03,0,2.2,0,2.2,1.31,0,.87-.93,2.05-2.24,3.72-.51,.65-1.86,2.34-4.22,4.9,.42,.44,1.06,1.08,1.25,1.29,.82,.89,.87,1.16,.87,1.46,0,.68-.72,1.33-1.39,1.33-.55,0-.8-.27-1.31-.85-1.2-1.35-2.6-2.77-4.52-4.41-1.23-1.04-1.37-1.16-1.37-1.63,0-.65,.61-1.23,1.35-1.23,.38,0,.61,.11,1.39,.74,.59,.46,1.37,1.14,1.96,1.65,2.47-2.62,4.58-5.36,4.58-5.66,0-.15-.13-.15-.44-.15h-10.79c-.8,0-1.25-.42-1.25-1.25,0-.99,.67-1.22,1.25-1.22h12.67Z"/><path class="e" d="M123.98,11.96c-.46,0-1.27-.13-1.27-1.2,0-.91,.55-1.23,1.27-1.23h9.19c.57,0,2.13,0,2.13,1.54,0,.49-.32,2.32-2.79,5.97,1.65,1.35,3.17,2.85,4.54,4.48,.61,.7,.8,.99,.8,1.44,0,.7-.63,1.31-1.37,1.31-.55,0-.67-.13-1.6-1.29-1.61-1.98-3.31-3.46-3.93-3.99-3.46,3.91-7.09,5.62-7.81,5.62-.68,0-1.23-.68-1.23-1.35s.23-.8,1.56-1.46c5.83-2.94,8.74-8.72,8.74-9.57,0-.27-.28-.27-.61-.27h-7.62Z"/><path class="e" d="M154.55,9.55c.42,0,2.03,0,2.03,1.69,0,.89-1.01,6.27-5.19,10.3-2.22,2.15-5.07,3.51-6.02,3.51-.72,0-1.22-.74-1.22-1.35,0-.7,.38-.87,1.52-1.39,2.75-1.25,5.02-3.46,6.59-6.21,.59-1.03,1.37-2.89,1.37-3.74,0-.42-.32-.42-.65-.42h-4.33c-.76,0-.8,.08-1.31,.87-.32,.49-1.35,2.07-3.06,3.61-.44,.4-.78,.65-1.25,.65-.74,0-1.37-.67-1.37-1.29,0-.44,.19-.59,.91-1.25,1.65-1.48,2.38-2.7,3.1-3.88,.65-1.08,1.18-1.1,2.39-1.1h6.48Z"/><path class="e" d="M168.52,20.28c-.72,1.94-1.67,3.46-3.38,3.46-2.11,0-4.1-2.81-4.1-6.23,0-5.05,3.76-8.4,8.74-8.4,5.36,0,7.86,3.84,7.86,7.5,0,5.68-5.15,7.94-6.12,7.94-.82,0-1.25-.7-1.25-1.33,0-.49,.21-.76,.63-.95,1.35-.61,4.18-1.92,4.18-5.68,0-1.48-.48-4.65-4.56-5.21-.3,2.62-.8,5.74-1.99,8.89Zm-5.11-2.72c0,1.86,.8,3.55,1.65,3.55,.59,0,.97-1.04,1.27-1.86,.91-2.49,1.42-5.13,1.77-7.77-3.32,.85-4.69,3.53-4.69,6.08Z"/><path class="e" d="M198,23.02c.87,0,1.12,.57,1.12,1.08s-.15,1.16-1.14,1.16h-8.68c-1.92,0-3.27-.46-4.46-1.9-.49,.68-1.1,1.31-1.18,1.41-.48,.48-.72,.72-1.22,.72-.7,0-1.31-.7-1.31-1.42,0-.46,.21-.63,.95-1.25,.67-.55,.97-.87,1.2-1.1v-4.01c0-.15,0-.57-.44-.57h-.59c-.63,0-1.04-.36-1.04-1.08,0-.89,.36-1.23,1.18-1.23h1.04c1.73,0,2.13,.36,2.13,2.13v3.74c.15,1.61,1.75,2.34,3.5,2.34h8.95Zm-13.72-13.94c.44,.44,.87,.87,1.27,1.35,.25,.3,.4,.53,.4,.89,0,.72-.67,1.25-1.25,1.25-.49,0-.82-.32-1.25-.85-.4-.51-.8-.93-1.29-1.44-.63-.63-.74-.84-.74-1.14,0-.48,.4-1.08,1.04-1.18,.53-.1,.85,.17,1.82,1.12Zm7.22,7.94v-.76h-1.94c-.59,0-.72-.46-.72-.85,0-.51,.25-.82,.72-.82h1.94v-.4c0-.34,.15-.46,.27-.53h-2.66c-.28,0-.44,.11-.44,.42v7.33c0,.61-.19,1.03-1.06,1.03-1.06,0-1.06-.78-1.06-1.06v-7.39c0-1.29,.13-1.99,1.77-1.99h.59c-.11-.36-.21-.63-.42-1.18h-1.67c-.53,0-.99-.19-.99-.93,0-.87,.67-.93,.99-.93h4.43v-.48c0-.65,.46-.84,1.27-.84,.59,0,1.06,.21,1.06,.84v.48h4.5c.57,0,.99,.23,.99,.93,0,.85-.63,.93-.99,.93h-1.71c-.06,.19-.32,.87-.49,1.18h.67c1.65,0,1.86,.59,1.86,1.99v6.29c0,2.13-.65,2.13-2.85,2.13-.85,0-1.44,0-1.37-1.12-.25,.02-.34,.02-.49,.02h-2.45c-1.42,0-1.75-.34-1.75-1.75v-.8c0-1.39,.3-1.73,1.75-1.73h.27Zm-.84-6.21c.11,.3,.32,1.03,.36,1.18h2.66c.19-.36,.42-1.04,.47-1.18h-3.5Zm3,8.07c0-.23-.1-.36-.34-.36h-1.73c-.15,0-.34,.06-.34,.36v.49c0,.27,.13,.34,.34,.34h1.73c.19,0,.34-.08,.34-.34v-.49Zm.02-1.86c1.42,0,1.73,.34,1.73,1.73v.8c0,.28,0,.61-.06,.89,.61-.02,.85-.02,.85-.47v-5.89c0-.25-.11-.42-.44-.42h-2.72c.3,.17,.3,.44,.3,.53v.4h1.99c.49,0,.63,.44,.63,.82,0,.25-.06,.85-.63,.85h-1.99v.76h.32Z"/><path class="e" d="M203.63,8.92c0-.34,.02-1.2,1.16-1.2,1.04,0,1.18,.65,1.18,1.2v3.8l2.83-.59c.1-.02,.27-.06,.46-.06,.65,0,.99,.7,.99,1.22,0,.57-.3,.95-.87,1.06l-3.4,.7v4.48c0,.46,.17,.57,.61,.57,.84,0,1.04,0,1.23-1.23,.15-.99,.21-1.41,.97-1.41,1.06,0,1.12,.7,1.12,1.06,0,.09-.08,2.17-.8,3.15-.32,.44-.84,.78-1.99,.78-2,0-2.07-.02-2.49-.17-.99-.38-.99-1.18-.99-2.11v-4.64l-.44,.1c-.85,.19-1.27-.53-1.27-1.2,0-.55,.25-.93,.91-1.06l.8-.17v-4.29Zm6.08,1.9c-.3,0-1.2,0-1.2-1.1,0-.95,.46-1.22,1.2-1.22h7.18c.74,0,2.38,0,2.58,1.77,.04,.34,.06,.74,.06,2.43,0,2.68-.11,7.2-.46,9.52-.46,2.96-1.27,3.31-3.69,3.31-.4,0-1.39,0-1.92-.09-.91-.17-.95-.99-.95-1.22,0-.97,.72-1.1,1.14-1.1,.27,0,1.35,.08,1.58,.08,.67,0,1.1,0,1.37-1.39,.42-2.15,.49-5.95,.49-8.15,0-.46,0-2.03-.04-2.34-.04-.44-.3-.49-.72-.49h-1.82c-.08,6.27-.82,9.29-2.6,11.55-1.58,1.99-4.01,3.32-5.15,3.32-.61,0-1.22-.61-1.22-1.31,0-.59,.46-.82,.91-.99,4.22-1.61,5.66-4.01,5.64-12.58h-2.39Z"/><path class="e" d="M226.35,20.44c-.46,.85-.74,1.39-1.5,1.39-.61,0-1.39-.4-1.39-1.2,0-.38,.06-.51,.7-1.63,.3-.55,1.48-2.96,2.39-5.41-2.05,.04-3,.08-3-1.25,0-1.2,.99-1.2,1.39-1.2,.47,0,2.01,0,2.41-.02,.11-.36,.55-2.09,.68-2.36,.21-.42,.57-.61,1.04-.61,.57,0,1.42,.27,1.42,1.01,0,.3-.06,.48-.44,1.75,.27-.04,1.41-.21,1.65-.21,.67,0,.99,.51,.99,1.14,0,1.2-.57,1.27-3.46,1.56-.85,2.39-1.73,4.79-2.91,7.05Zm7.03-5.02c0-1.08,.84-1.14,1.12-1.14,1.2,0,1.25,.87,1.27,1.22,.1,1.44,.13,2.72,.15,3.61,1.1,.4,2.43,1.08,3.04,1.5,.47,.32,.7,.57,.7,1.04,0,.61-.4,1.42-1.18,1.42-.25,0-.34-.06-1.18-.59-.48-.3-1.16-.65-1.31-.72,0,2.34-1.54,3.19-3.88,3.19-2.47,0-4.35-1.22-4.35-3.32,0-1.73,1.33-3.36,4.14-3.36,.67,0,1.35,.11,1.6,.15-.02-.42-.13-2.53-.13-3Zm-1.61,5.03c-1.25,0-1.79,.49-1.79,1.14,0,.99,1.22,1.23,1.88,1.23,.21,0,1.46-.02,1.69-.84,.06-.19,.04-.3,.04-1.25-.34-.11-1.1-.29-1.82-.29Zm6.38-8.28c1.1,.55,1.54,.78,1.54,1.46,0,.65-.44,1.39-1.08,1.39-.36,0-.47-.08-1.63-.74-.82-.46-2.11-1.03-2.56-1.23-.28-.13-.68-.32-.68-.91,0-.78,.63-1.25,1.23-1.25s2.43,.89,3.19,1.29Z"/><path class="e" d="M259.47,19.09v4.1c0,1.75-.8,2.22-2.22,2.22h-7.88c-1.44,0-2.22-.49-2.22-2.22v-1.71c-.46,.67-1.65,2.39-2.66,2.39-.67,0-1.31-.59-1.31-1.27q0-.46,1.41-1.81c.99-.93,1.81-2.7,2.26-4.58h-2.68c-.36,0-1.01-.06-1.01-.91,0-.68,.4-.91,1.01-.91h6.71v-.72h-5.51c-.29,0-.85-.04-.85-.82s.49-.82,.85-.82h5.51v-.7h-6.14c-.23,0-1.01,0-1.01-.91s.76-.93,1.01-.93h3.06c-.38-.76-.42-.84-.42-1.04,0-.59,.93-.72,1.35-.72,.63,0,.89,.19,1.1,.59,.11,.19,.44,.8,.57,1.18h3.48c.57-1.63,.95-1.77,1.61-1.77,.23,0,1.39,.08,1.39,.82,0,.19-.13,.48-.4,.95h3.04c.21,0,1.01,0,1.01,.91s-.78,.93-1.01,.93h-6.25v.7h5.55c.29,0,.85,.02,.85,.8,0,.72-.44,.84-.85,.84h-5.55v.72h6.8c.27,0,.99,0,.99,.91,0,.78-.53,.91-.99,.91h-10.79c-.04,.1-.15,.55-.17,.65h8.15c1.42,0,2.22,.46,2.22,2.22Zm-10.01,.23h7.62v-.38c0-.32-.17-.46-.46-.46h-6.71c-.28,0-.46,.13-.46,.46v.38Zm0,1.27v.82h7.62v-.82h-7.62Zm0,2.15v.44c0,.34,.17,.47,.46,.47h6.71c.27,0,.46-.13,.46-.47v-.44h-7.62Z"/><path class="e" d="M274.44,20.02v4.35c0,.48-.08,1.16-1.04,1.16-.82,0-1.22-.25-1.22-1.16v-4.35h-3.97c-.15,1.5-.4,2.74-1.08,4.22-.57,1.22-.91,1.41-1.48,1.41-.8,0-1.46-.59-1.46-1.31,0-.27,.02-.29,.8-1.79,.48-.95,.91-2.56,.91-4.96v-6.74c0-1.82,.78-2.38,2.36-2.38h10.37c1.56,0,2.37,.53,2.37,2.38v12.52c0,2.22-1.18,2.22-3.23,2.22-1.06,0-1.98,0-1.98-1.27,0-.68,.28-1.18,1.08-1.18,.17,0,.97,.02,1.14,.02,.42,0,.57-.21,.57-.72v-2.41h-4.14Zm-2.26-6.82v-2.49h-3.21c-.46,0-.65,.25-.65,.65v1.84h3.86Zm0,2.09h-3.86v2.6h3.86v-2.6Zm2.26-2.09h4.14v-1.84c0-.4-.21-.65-.65-.65h-3.5v2.49Zm4.14,2.09h-4.14v2.6h4.14v-2.6Z"/></g><g><g><path class="d" d="M18.4,28.86c-2.08-.59-6.12-1.91-9.81-4.21C3.61,21.54,.92,17.77,.59,13.42c-.18-2.32,.4-3.6,1.4-4.91,1.19-1.57,3.37-2.51,5.81-2.51,.16,0,.32,0,.48,.01,2.31,.12,4.46,1.01,6.25,1.87l.29,.14-.85,1.48-.29-.14c-1.62-.77-3.54-1.58-5.51-1.68-.13,0-.26,0-.39,0-1.84,0-3.45,.67-4.3,1.79-.66,.87-1.24,1.82-1.08,3.85,.68,8.83,12.82,12.92,16.53,13.96l.32,.09-.54,1.59-.32-.09Z"/><path class="e" d="M18.72,29.5s-.1,0-.15-.02l-.32-.09h0c-2.11-.59-6.21-1.94-9.96-4.28C3.16,21.92,.38,17.99,.03,13.46c-.19-2.48,.47-3.91,1.51-5.29,1.3-1.71,3.64-2.73,6.25-2.73,.17,0,.34,0,.51,.01,2.41,.12,4.62,1.04,6.46,1.92l.29,.14c.14,.07,.24,.19,.29,.34,.05,.15,.03,.31-.05,.44l-.85,1.48c-.14,.25-.46,.35-.72,.23l-.29-.14c-1.57-.75-3.43-1.53-5.3-1.63-1.81-.09-3.42,.51-4.22,1.56-.61,.81-1.11,1.63-.97,3.47,.65,8.47,12.51,12.45,16.13,13.47l.32,.09c.15,.04,.27,.14,.34,.28,.07,.13,.08,.29,.03,.44l-.54,1.59c-.08,.23-.29,.38-.53,.38ZM7.8,6.55c-2.27,0-4.28,.86-5.37,2.29-.94,1.24-1.46,2.38-1.29,4.53,.32,4.16,2.92,7.8,7.74,10.8,3.52,2.2,7.38,3.49,9.48,4.1l.18-.54c-4.05-1.17-16-5.39-16.69-14.39-.17-2.22,.5-3.31,1.19-4.23,1.02-1.35,2.98-2.11,5.16-2,1.99,.1,3.92,.88,5.55,1.65l.29-.51c-1.69-.79-3.68-1.59-5.8-1.7-.15,0-.3-.01-.45-.01Z"/></g><g><path class="d" d="M68.64,28.86c2.08-.59,6.12-1.91,9.81-4.21,4.97-3.1,7.67-6.88,8-11.23,.18-2.32-.4-3.6-1.4-4.91-1.19-1.57-3.37-2.51-5.81-2.51-.16,0-.32,0-.48,.01-2.31,.12-4.46,1.01-6.25,1.87l-.29,.14,.85,1.48,.29-.14c1.62-.77,3.54-1.58,5.51-1.68,.13,0,.26,0,.39,0,1.84,0,3.45,.67,4.3,1.79,.66,.87,1.24,1.82,1.08,3.85-.68,8.83-12.82,12.92-16.53,13.96l-.32,.09,.54,1.59,.32-.09Z"/><path class="e" d="M68.32,29.5c-.23,0-.45-.15-.53-.38l-.54-1.59c-.05-.14-.04-.3,.03-.44,.07-.13,.19-.23,.34-.28l.32-.09c3.62-1.02,15.47-5,16.13-13.47,.14-1.84-.36-2.66-.97-3.47-.8-1.06-2.41-1.66-4.22-1.56-1.87,.1-3.73,.88-5.3,1.63l-.29,.14c-.26,.13-.58,.03-.72-.23l-.85-1.48c-.08-.13-.09-.29-.05-.44,.05-.15,.15-.27,.29-.34l.29-.14c1.84-.88,4.05-1.8,6.46-1.92,.17,0,.34-.01,.51-.01,2.62,0,4.96,1.02,6.25,2.73,1.05,1.38,1.71,2.81,1.51,5.29-.35,4.54-3.13,8.46-8.26,11.66-3.75,2.34-7.85,3.68-9.96,4.28h0l-.32,.09c-.05,.01-.1,.02-.15,.02Zm.17-1.77l.18,.54c2.1-.6,5.96-1.9,9.48-4.1,4.82-3,7.42-6.64,7.74-10.8,.17-2.15-.35-3.29-1.29-4.53-1.09-1.44-3.1-2.29-5.37-2.29-.15,0-.3,0-.46,.01-2.11,.11-4.1,.9-5.8,1.7l.29,.51c1.63-.77,3.55-1.55,5.55-1.65,2.18-.11,4.14,.66,5.16,2,.7,.92,1.36,2,1.19,4.23-.69,9-12.63,13.21-16.69,14.39Z"/></g><g><path class="d" d="M73.98,6.83c-.52-.15-4.57-1.35-6.37-1.9-2.99-.92-5.57-1.71-7.5-2.09-8.4-1.67-12.15-2-15.8-2h-1.6c-3.64,0-7.39,.33-15.8,2-1.93,.38-4.51,1.18-7.5,2.09-1.79,.55-5.82,1.74-6.37,1.9-.04,.01-.06,.04-.05,.08,.16,.75,1.69,7.95,2.57,12.02,.47,2.17,.91,4.2,1.23,5.7,.64,3.02,1.44,4.26,1.6,4.49,3.9,6.02,12.4,8.44,18.86,9.4,2.04,.31,4.14,.48,6.26,.51,2.12-.03,4.22-.2,6.26-.51,6.45-.97,14.96-3.38,18.86-9.4,.15-.24,.95-1.47,1.6-4.5,.32-1.5,.76-3.53,1.23-5.71,.88-4.08,2.41-11.3,2.56-12.02,0-.04,0-.06-.04-.07Z"/><path class="e" d="M43.53,39.87c-2.17-.03-4.32-.21-6.39-.52-6.62-.99-15.37-3.49-19.43-9.78-.67-1.03-1.28-2.73-1.71-4.77-.32-1.49-.76-3.52-1.23-5.7-.82-3.79-2.18-10.21-2.53-11.86l-.04-.17c-.1-.47,.17-.92,.63-1.05,.75-.22,4.6-1.36,6.36-1.9,3.02-.93,5.61-1.72,7.58-2.11C35.23,.33,39.03,0,42.72,0h1.6c3.69,0,7.49,.33,15.96,2.01,1.97,.39,4.57,1.19,7.58,2.12,1.57,.48,4.97,1.49,6.36,1.9,.45,.13,.72,.58,.62,1.04-.02,.07-1.61,7.63-2.56,12.02l-.02,.1c-.46,2.14-.89,4.14-1.21,5.61-.44,2.05-1.04,3.75-1.71,4.78-4.06,6.28-12.81,8.78-19.43,9.78-2.07,.31-4.21,.49-6.37,.52h0ZM13.97,7.43c.47,2.2,1.67,7.86,2.42,11.33,.47,2.17,.91,4.21,1.23,5.7,.39,1.83,.93,3.36,1.48,4.22,3.73,5.76,12,8.09,18.28,9.03,2,.3,4.07,.47,6.15,.5,2.06-.03,4.12-.2,6.12-.5,6.28-.94,14.55-3.27,18.28-9.03,.55-.85,1.09-2.39,1.48-4.22,.29-1.34,.67-3.13,1.09-5.05l.14-.66c.71-3.29,1.87-8.73,2.41-11.32-2.69-.8-4.66-1.39-5.69-1.7-2.96-.91-5.52-1.7-7.41-2.07-8.34-1.66-12.04-1.98-15.63-1.98h-1.6c-3.59,0-7.3,.32-15.63,1.98-1.89,.38-4.45,1.16-7.41,2.07-1.49,.46-4.55,1.36-5.7,1.71Z"/></g><g><path class="e" d="M67.64,11.61c-.07,0-.14-.01-.21-.04-6.4-2.65-13.06-4.34-19.8-5.02-1.09-.11-2.07-.18-2.98-.22-.49-.02-.98-.03-1.5-.03-1.01,0-2.09,.04-3.31,.12-6.76,.46-13.48,1.93-19.95,4.36-.06,.02-.13,.04-.2,.04-.23,0-.44-.14-.52-.36-.05-.14-.05-.29,.01-.43,.06-.14,.17-.24,.31-.29,6.58-2.47,13.4-3.96,20.27-4.43,1.25-.09,2.35-.13,3.38-.13,.53,0,1.05,.01,1.55,.03,.94,.04,1.94,.11,3.05,.22,6.85,.69,13.62,2.41,20.11,5.1,.14,.06,.24,.16,.3,.3,.06,.14,.06,.29,0,.43-.09,.21-.29,.34-.51,.34Z"/><path class="e" d="M66.55,17.91c-.07,0-.13-.01-.19-.03-4.31-1.56-14.06-2.57-24.85-2.57-8.85,0-16.43,.67-20.79,1.83-.05,.01-.09,.02-.14,.02-.25,0-.47-.17-.54-.41-.08-.3,.1-.6,.39-.68,4.42-1.18,12.08-1.85,21.02-1.85,10.97,0,20.89,1.03,25.29,2.62,.29,.1,.44,.42,.33,.71-.08,.22-.29,.37-.52,.37Z"/><path class="e" d="M44.22,24.6c-7.5,0-15.06-.57-22.48-1.69-.15-.02-.28-.1-.36-.22-.09-.12-.12-.27-.1-.41,.04-.27,.28-.47,.55-.47,.03,0,.05,0,.08,0,7.37,1.12,14.87,1.68,22.32,1.68,6.93,0,13.94-.49,20.82-1.46,.03,0,.06,0,.08,0,.28,0,.51,.2,.55,.48,.02,.15-.02,.29-.11,.41-.09,.12-.22,.2-.37,.22-6.37,.9-12.85,1.39-19.27,1.46-.57,0-1.13,0-1.7,0Z"/><path class="e" d="M43.65,33.56c-7.58,0-14.99-1.87-21.42-5.41-.14-.08-.24-.2-.29-.36-.04-.15-.03-.31,.05-.45,.1-.19,.3-.31,.52-.31,.1,0,.2,.03,.29,.07,6.26,3.44,13.47,5.26,20.85,5.26s14.49-1.82,20.58-5.26c.09-.05,.19-.08,.29-.08,.21,0,.41,.12,.52,.3,.08,.14,.1,.3,.06,.45-.04,.15-.14,.28-.28,.36-6.26,3.54-13.58,5.41-21.17,5.41Z"/><path class="e" d="M66.63,28.67s-.07,0-.11-.01c-.15-.03-.27-.11-.35-.24-.08-.12-.11-.27-.08-.42l3.91-19.18c.05-.26,.28-.44,.55-.44,.04,0,.07,0,.11,.01,.3,.06,.49,.36,.43,.66l-3.91,19.18c-.05,.26-.28,.44-.54,.44Z"/><path class="e" d="M20.63,29.13c-.26,0-.49-.19-.54-.44L15.96,9.05c-.06-.3,.13-.59,.43-.66,.04,0,.08-.01,.11-.01,.26,0,.49,.19,.54,.44l4.13,19.64c.06,.3-.13,.59-.43,.66-.03,0-.07,.01-.1,.01h-.01Z"/></g></g></g></g></svg>