<?xml version="1.0" encoding="UTF-8"?><svg xmlns="http://www.w3.org/2000/svg" viewBox="0 0 324.46 67.6"><defs><style>.d{fill:#fff;}.e{fill:#c7e7ef;}.f{fill:#013591;}</style></defs><g id="a"/><g id="b"><g id="c"><g><path class="f" d="M108.81,28.18h5.6c.3,0,1.16,.02,1.16,1.04,0,.84-.34,1.16-1.16,1.16h-5.6v2.2h6.5c.27,0,1.18,0,1.18,1.06,0,.91-.48,1.18-1.18,1.18h-6.5v3.57c0,2.39-1.27,2.39-3.63,2.39-.53,0-1.92,0-2.34-.11-.48-.13-.74-.66-.74-1.18,0-1.16,1.04-1.16,1.35-1.16,.29,0,1.56,.04,1.82,.04,.57,0,1.03,0,1.03-.67v-2.89h-6.74c-.36,0-1.16-.04-1.16-1.04,0-.8,.27-1.2,1.16-1.2h6.74v-2.2h-5.78c-.28,0-1.16,0-1.16-1.04,0-.84,.38-1.16,1.16-1.16h5.78v-2.05c-1.01,.06-2.47,.1-3.65,.11-.38,0-2.03,.04-2.37,.04-.7,0-1.08-.4-1.08-1.1,0-1.04,.93-1.06,1.2-1.08,.68-.02,3.78-.08,4.41-.09,2.39-.1,5.3-.34,7.01-.59,.36-.06,1.96-.34,2.28-.34,.63,0,1.03,.51,1.03,1.18,0,.84-.49,1.03-1.08,1.12-1.58,.27-3.08,.4-5.22,.57v2.24Z"/><path class="f" d="M122.17,39.13c-.82,1.46-1.12,1.56-1.56,1.56-.47,0-1.22-.44-1.22-1.16,0-.32,.13-.53,.76-1.54,.59-.97,1.14-2.2,1.5-3.13,.46-1.2,.68-1.63,1.35-1.63,.57,0,1.27,.44,1.18,1.14-.1,.85-1.27,3.46-2.01,4.77Zm.76-9.75c.49,.38,.72,.63,.72,1.06,0,.68-.61,1.25-1.1,1.25-.36,0-.59-.15-1.67-.95-.19-.13-1.01-.68-1.16-.82-.13-.09-.3-.3-.3-.66,0-.46,.38-1.23,1.16-1.23,.61,0,2.24,1.27,2.36,1.35Zm.25-5.11c.99,.7,1.18,.93,1.18,1.33,0,.53-.53,1.27-1.22,1.27-.32,0-.57-.17-1.14-.59-.46-.34-1.18-.84-1.61-1.16-.13-.09-.46-.32-.46-.74,0-.61,.53-1.25,1.18-1.25,.44,0,1.56,.78,2.07,1.14Zm6.4,1.56v-1.71c0-.28,0-1.18,1.12-1.18,1.01,0,1.23,.49,1.23,1.18v1.71h3.51c.25,0,1.18,0,1.18,1.06s-.93,1.08-1.18,1.08h-3.51v2.53h4.18c.23,0,1.18,0,1.18,1.06s-.95,1.04-1.18,1.04h-2.87v5.09c0,.72,.32,.72,.89,.72,.91,0,.93-.46,.97-1.84,.02-.55,.04-1.22,1.01-1.22,1.04,0,1.04,.72,1.04,1.23,0,.66-.02,2.62-.51,3.36-.47,.68-1.1,.68-2.77,.68-2.2,0-2.87-.06-2.87-2.28v-5.76h-1.5c-.11,3.02-.85,4.94-1.77,6.1-1.14,1.42-2.72,2.13-3.25,2.13-.85,0-1.22-.68-1.22-1.23,0-.46,.21-.63,.59-.84,1.73-.95,3.27-1.82,3.44-6.16h-2.17c-.21,0-1.16,0-1.16-1.04s.93-1.06,1.16-1.06h4.45v-2.53h-2.77c-.91,1.98-1.35,1.98-1.67,1.98-.57,0-1.29-.49-1.29-1.1,0-.34,.08-.46,.72-1.52,.55-.93,1.03-2.32,1.25-3.21,.09-.4,.23-.89,.97-.89,.59,0,1.25,.34,1.25,.93,0,.48-.36,1.5-.42,1.67h1.96Z"/><path class="f" d="M144.15,25.75c0,.27-.17,1.5-.21,1.79-.08,.84-.15,1.9-.15,2.93,0,3.08,.74,6.27,2.01,6.27,.53,0,1.1-1.14,1.46-2.01,.55-1.29,.65-1.58,1.25-1.58,.55,0,1.31,.38,1.31,1.14,0,.46-.57,1.77-.95,2.53-.89,1.71-1.8,2.75-3.21,2.75-2.51,0-4.37-3.57-4.37-9.31,0-2.01,.23-3.86,.3-4.27,.09-.55,.21-1.18,1.23-1.18,.46,0,1.31,.15,1.31,.95Zm11.82,2.93c.87,1.79,1.5,4.1,1.5,6.25,0,.55,0,1.61-1.33,1.61-1.08,0-1.14-.72-1.2-1.54-.23-3-.97-4.94-1.9-6.48-.51-.85-.55-.91-.55-1.2,0-.53,.55-1.08,1.22-1.08,.38,0,1.04,0,2.26,2.43Z"/><path class="f" d="M167.71,31.93c0,1.33-1.08,2.47-2.47,2.47s-2.47-1.1-2.47-2.47,1.12-2.47,2.47-2.47,2.47,1.14,2.47,2.47Z"/><path class="f" d="M182.74,28.18h5.6c.3,0,1.16,.02,1.16,1.04,0,.84-.34,1.16-1.16,1.16h-5.6v2.2h6.5c.27,0,1.18,0,1.18,1.06,0,.91-.48,1.18-1.18,1.18h-6.5v3.57c0,2.39-1.27,2.39-3.63,2.39-.53,0-1.92,0-2.34-.11-.48-.13-.74-.66-.74-1.18,0-1.16,1.04-1.16,1.35-1.16,.29,0,1.56,.04,1.82,.04,.57,0,1.03,0,1.03-.67v-2.89h-6.74c-.36,0-1.16-.04-1.16-1.04,0-.8,.27-1.2,1.16-1.2h6.74v-2.2h-5.78c-.28,0-1.16,0-1.16-1.04,0-.84,.38-1.16,1.16-1.16h5.78v-2.05c-1.01,.06-2.47,.1-3.65,.11-.38,0-2.03,.04-2.37,.04-.7,0-1.08-.4-1.08-1.1,0-1.04,.93-1.06,1.2-1.08,.68-.02,3.78-.08,4.41-.09,2.39-.1,5.3-.34,7.01-.59,.36-.06,1.96-.34,2.28-.34,.63,0,1.03,.51,1.03,1.18,0,.84-.49,1.03-1.08,1.12-1.58,.27-3.08,.4-5.22,.57v2.24Z"/><path class="f" d="M198.19,31.55c.68-.27,.76-.3,.93-.36,.15-.04,.28-.06,.4-.06,.63,0,.97,.57,.97,1.14,0,.67-.15,.87-2.3,1.67v4.79c0,2.05-1.18,2.05-2.7,2.05-.93,0-1.9,0-1.9-1.27,0-1.08,.87-1.08,1.23-1.08,.85,0,1.06,0,1.06-.61v-3.06c-.67,.23-1.25,.44-1.58,.44-.84,0-1.01-.91-1.01-1.33,0-.84,.51-.97,1.04-1.1,.3-.08,1.18-.34,1.54-.46v-3.76h-1.42c-.32,0-1.12,0-1.12-1.1,0-1.03,.63-1.14,1.12-1.14h1.42v-2.18c0-.42,.08-1.16,1.06-1.16,.84,0,1.23,.27,1.23,1.16v2.18h.93c.3,0,1.12,0,1.12,1.12,0,1.04-.66,1.12-1.12,1.12h-.93v3Zm4.67-6.4c1.29-.13,3.42-.7,4.16-.93,.32-.1,1.88-.68,2.26-.68,.84,0,1.1,.76,1.1,1.2,0,.78-.49,.97-1.88,1.35-1.1,.3-3.32,.89-5.64,1.1v.87c0,.27,.02,.55,.44,.57,.38,0,3.21,.02,4.45,.02,.8,0,.99-.08,1.12-.7,.17-.89,.25-1.25,1.08-1.25,.44,0,1.25,.17,1.25,.99,0,.38-.11,1.04-.25,1.54-.27,.91-.63,1.44-1.56,1.54-.68,.06-3.84,.06-4.75,.06-.63,0-2.05,0-2.58-.06-1.46-.17-1.54-1.33-1.54-2.03v-4.6c0-.87,.4-1.16,1.23-1.16,1.08,0,1.1,.82,1.1,1.16v1.03Zm7.47,13.24c0,1.63-.68,2.18-2.2,2.18h-5.09c-1.46,0-2.18-.49-2.18-2.18v-4.52c0-1.71,.76-2.18,2.18-2.18h5.09c1.48,0,2.2,.51,2.2,2.18v4.52Zm-2.26-3.23v-1.01c0-.42-.25-.55-.57-.55h-3.82c-.4,0-.55,.19-.55,.55v1.01h4.94Zm0,1.84h-4.94v1.12c0,.32,.13,.55,.55,.55h3.82c.36,0,.57-.17,.57-.55v-1.12Z"/><path class="f" d="M219.18,34.28c0,.91-2.47,5.6-3.13,6.17-.17,.15-.4,.25-.66,.25-.55,0-1.22-.46-1.22-1.14,0-.4,.06-.48,.97-1.86,.67-1.03,.87-1.46,1.88-3.61,.28-.63,.44-.87,1.03-.87,.44,0,1.14,.36,1.14,1.06Zm-2.05-5.32c1.27,.85,1.5,1.06,1.5,1.56,0,.53-.46,1.27-1.18,1.27-.34,0-.42-.06-1.16-.59-.27-.21-1.5-1.03-1.75-1.22-.15-.11-.36-.36-.36-.72,0-.65,.53-1.23,1.14-1.23,.44,0,1.35,.63,1.8,.93Zm.63-5c1.42,.89,1.61,1.03,1.61,1.58,0,.51-.44,1.31-1.12,1.31-.34,0-.46-.08-1.39-.68-.25-.15-1.35-.82-1.56-.95-.29-.17-.59-.34-.59-.85s.49-1.25,1.18-1.25c.42,0,1.44,.59,1.86,.85Zm4.79,.87c.29,.47,.8,1.41,.8,1.84,0,.55-.46,1.03-1.22,1.03-.59,0-.65-.09-1.25-1.23-.15-.27-.84-1.42-.95-1.67-.08-.13-.13-.29-.13-.48,0-.89,1.01-1.06,1.23-1.06,.53,0,.7,.17,1.52,1.58Zm2.15-.93c0-.32,0-1.03,1.04-1.03,.89,0,1.18,.3,1.18,1.03v4.08h2.43c1.35,0,2.05,.46,2.05,2.07v8.64c0,2.07-1.22,2.07-2.64,2.07-.55,0-1.27,0-1.63-.06-.23-.04-.93-.15-.93-1.12,0-1.04,.82-1.04,1.06-1.04,.23,0,1.22,.04,1.41,.02,.29-.04,.42-.1,.42-.49v-1.82h-6.57v3.5c0,.4-.06,1.16-1.06,1.16-.84,0-1.23-.27-1.23-1.16v-9.69c0-1.54,.65-2.07,2.05-2.07h2.43v-4.08Zm-2.19,7.45h6.57v-.95c0-.3-.13-.46-.46-.46h-5.66c-.28,0-.46,.13-.46,.46v.95Zm6.57,1.71h-6.57v1.48h6.57v-1.48Zm2.77-8.85c0,.27-.11,.63-.87,1.94-.8,1.39-1.1,1.6-1.58,1.6s-1.22-.3-1.22-.99c0-.32,.06-.42,.59-1.27,.17-.28,.93-1.65,1.08-1.92,.23-.38,.53-.38,.91-.38s1.08,.36,1.08,1.03Z"/><path class="f" d="M242.91,23.66c0-.63,.51-.78,1.04-.78,.84,0,1.29,.15,1.29,.78v.46h6.44c.23,0,.99,.02,.99,.87,0,.72-.53,.87-.99,.87h-6.44v.65h5.66c.25,0,.84,.02,.84,.78,0,.65-.42,.78-.84,.78h-5.66v.72h6.86c.46,0,.99,.11,.99,.85,0,.61-.32,.87-.99,.87h-16.03c-.46,0-.99-.11-.99-.85,0-.61,.34-.87,.99-.87h6.84v-.72h-5.62c-.27,0-.82-.04-.82-.78,0-.59,.32-.78,.82-.78h5.62v-.65h-6.38c-.23,0-.99,0-.99-.87s.76-.87,.99-.87h6.38v-.46Zm-6.82,11.97c-.38,0-1.01-.08-1.01-.87,0-.7,.44-.91,1.01-.91h.89c.19-1.39,.21-1.56,.34-1.82,.42-.87,1.18-.87,1.75-.87h10.26c.63,0,1.99,0,1.99,1.75,0,.17,0,.51-.04,.95h.82c.38,0,.99,.1,.99,.89,0,.72-.46,.89-.99,.89h-.95c-.08,.7-.09,.76-.13,1.2h.76c.23,0,.97,.02,.97,.85,0,.65-.28,.95-.97,.95h-.97c-.19,1.2-.4,1.61-1.03,1.92-.48,.25-.97,.25-3.15,.25-.59,0-2.41,0-2.87-.06-.57-.06-.61-.53-.61-.74,0-.74,.46-.74,1.39-.74,.46,0,2.43,.04,2.85,.04,.8,0,.82,0,1.04-.66h-10.03c-.46,0-1.96,0-1.96-1.5,0-.3,0-.32,.23-1.5h-.59Zm2.93,0c-.11,.67-.11,.68-.11,.78,0,.42,.34,.42,.51,.42h3.1c.04-.17,.17-1.01,.21-1.2h-3.7Zm3.93-1.79c.06-.49,.06-.65,.09-1.06h-3.1c-.49,0-.51,.11-.65,1.06h3.65Zm1.99,1.79c-.1,.68-.13,.91-.17,1.2h3.95c.04-.36,.04-.44,.11-1.2h-3.89Zm4.03-1.79c.04-.34,.04-.4,.04-.53,0-.19-.02-.53-.53-.53h-3.23c-.02,.17-.08,.91-.09,1.06h3.82Z"/><path class="f" d="M262.71,31.93c0,1.33-1.08,2.47-2.47,2.47s-2.47-1.1-2.47-2.47,1.12-2.47,2.47-2.47,2.47,1.14,2.47,2.47Z"/><path class="f" d="M270.61,28.79c3.78-.87,5.45-.99,6.48-.99,4.35,0,5.59,2.62,5.59,4.94,0,6.46-8.25,7.43-10.09,7.43-.29,0-1.44,0-1.44-1.29,0-1.06,.74-1.12,1.37-1.16,4.05-.3,7.58-1.86,7.58-4.94,0-2.53-2.18-2.58-3.06-2.58-1.58,0-4.26,.61-6.23,1.16-.48,.13-1.54,.44-1.82,.44-.91,0-1.16-.89-1.16-1.37,0-.99,.55-1.12,2.79-1.63Zm1.61-5.21c.23,0,.61,.11,1.37,.32,1.33,.38,3.19,.78,4.79,1.01,.53,.08,1.2,.17,1.2,1.1,0,.11,0,1.25-1.12,1.25-.49,0-3.1-.38-5.74-1.06-1.2-.3-1.65-.44-1.65-1.23s.47-1.39,1.16-1.39Z"/><path class="f" d="M291.3,27.77c.11-.57,.65-3.44,.7-3.57,.09-.27,.32-.65,1.14-.65,.65,0,1.31,.29,1.31,.95,0,.51-.38,2.39-.55,3.06,3.72,.08,4.6,1.94,4.6,5.24,0,5.22-1.31,7.14-4.46,7.14-1.22,0-2.05-.15-2.05-1.29,0-.51,.21-1.22,.84-1.22,.13,0,.68,.06,.78,.06,.46,0,1.46-.28,1.73-.76,.61-1.14,.63-3.7,.63-4.24,0-2.39-.84-2.7-2.6-2.62-.93,3.44-1.84,6-3.13,8.43-.63,1.2-.93,1.63-1.56,1.63-.59,0-1.46-.4-1.46-1.22,0-.34,.08-.46,.76-1.63,1.25-2.17,2.11-4.52,2.77-6.93-.48,.08-2.56,.46-2.98,.46-.87,0-1.06-.8-1.06-1.27,0-1.01,.72-1.1,1.52-1.2l3.1-.38Zm11.8,5.62c0,.89-.93,1.18-1.41,1.18-.84,0-.91-.44-1.12-1.35-.57-2.64-1.69-4.26-2.32-5q-.8-.97-.8-1.27c0-.47,.47-1.01,1.12-1.01,1.5,0,4.52,5.4,4.52,7.45Zm-.34-6.55c0,.42-.38,.78-.8,.78-.38,0-.55-.25-.83-.72-.11-.17-.51-.82-1.5-1.9-.25-.27-.25-.4-.25-.51,0-.59,.59-.85,.93-.78,.59,.11,2.45,2.58,2.45,3.13Zm1.18-3.12c.34,.44,1.03,1.31,1.03,1.73s-.36,.8-.82,.8c-.36,0-.46-.15-.82-.72-.15-.25-.57-.89-1.5-1.9-.25-.29-.25-.42-.25-.53,0-.55,.55-.85,.93-.78,.4,.08,.95,.78,1.42,1.41Z"/><path class="f" d="M311.14,25.75c0,.27-.17,1.5-.21,1.79-.08,.84-.15,1.9-.15,2.93,0,3.08,.74,6.27,2.01,6.27,.53,0,1.1-1.14,1.46-2.01,.55-1.29,.65-1.58,1.25-1.58,.55,0,1.31,.38,1.31,1.14,0,.46-.57,1.77-.95,2.53-.89,1.71-1.8,2.75-3.21,2.75-2.51,0-4.37-3.57-4.37-9.31,0-2.01,.23-3.86,.3-4.27,.09-.55,.21-1.18,1.23-1.18,.46,0,1.31,.15,1.31,.95Zm11.82,2.93c.87,1.79,1.5,4.1,1.5,6.25,0,.55,0,1.61-1.33,1.61-1.08,0-1.14-.72-1.2-1.54-.23-3-.97-4.94-1.9-6.48-.51-.85-.55-.91-.55-1.2,0-.53,.55-1.08,1.22-1.08,.38,0,1.04,0,2.26,2.43Z"/></g><g><path class="e" d="M17.71,60.87c-.44,0-.88-.1-1.29-.29-.77-.36-1.09-1.14-.8-1.93,.23-.63,.66-1.08,1-1.41,.69-.66,1.39-1.31,2.08-1.96,1.67-1.57,3.41-3.19,5.05-4.85l.18-.18c.5-.5,1.02-1.02,1.41-1.63,.18-.27,.22-.38,.11-.5-.05-.06-.09-.07-.12-.07-.08,0-.19,.06-.28,.12l-.08,.05c-.65,.35-1.26,.8-1.82,1.35-1.9,1.54-9.95,7.6-10.96,8.12-.8,.41-1.56,.81-2.42,.81-.3,0-.6-.05-.88-.15-.5-.17-.85-.47-1.01-.88-.16-.41-.11-.88,.15-1.37,.49-.91,1.2-1.73,2.17-2.52,.76-.61,1.5-1.26,2.22-1.89,.88-.77,1.79-1.57,2.74-2.3,.67-.51,1.35-1.02,2.02-1.52,.75-.56,1.51-1.12,2.25-1.7,.43-.33,.84-.72,1.23-1.1l.34-.32c.16-.15,.4-.45,.18-.7-.06-.06-.12-.09-.19-.09-.14,0-.3,.1-.42,.17-.76,.49-1.37,.92-1.9,1.34-2.38,1.91-4.96,3.61-7.45,5.25l-1.6,1.05c-1.39,.92-2.98,1.61-4.73,2.04-.24,.06-.5,.09-.79,.09-.19,0-.38-.01-.58-.03-.87-.1-1.41-.49-1.64-1.2-.25-.77,.14-1.71,.65-2.25,1.56-1.63,3.44-2.89,5.25-4.12,.48-.32,.95-.64,1.42-.97,1.04-.73,3.23-2.36,7.72-6.01l.24-.19c.06-.04,.06-.07,.06-.07,0-.02-.02-.03-.04-.03-.02,0-.04,.01-.08,.04l-.11,.06c-1.43,.87-2.93,1.67-4.38,2.45-1.85,.99-3.76,2.02-5.55,3.18-1.23,.8-2.56,1.27-3.97,1.39-.1,0-.21,.01-.31,.01-.34,0-.67-.05-.99-.15-.5-.15-.88-.49-1.08-.95-.21-.47-.19-1.01,.04-1.5,.27-.57,.62-1.06,1.05-1.46,.81-.74,1.58-1.35,2.36-1.86,1.91-1.24,3.83-2.47,5.75-3.7l1.26-.8c.63-.4,6.09-3.93,7.71-6.07,.24-.31,.37-.53,.26-.81-.11-.27-.32-.38-.77-.39h-.2c-.53,0-1.03,.05-1.53,.17-.78,.18-1.56,.41-2.32,.64-1.02,.3-2.07,.62-3.15,.81l-.34,.06c-.58,.11-1.17,.22-1.78,.22-.34,0-.65-.03-.95-.11-.05-.01-.11-.02-.16-.03-.11-.02-.22-.04-.32-.08-.53-.19-1.44-.64-1.64-1.5-.15-.66,.15-1.38,.91-2.17,.28-.29,.82-.66,1.19-.83,1.37-.61,2.72-1.25,4.08-1.89l1.97-.92c2.35-1.1,4.78-2.24,7.36-2.87,3.13-.87,6.57-1.05,8.91-1.05,1.45,0,2.55,.07,3.02,.1l.35,.02c1.28,0,2.25-.81,3.06-1.57,1.02-.97,8.58-11.58,12.44-17.05l.1-.14,14.3,9.15-.09,.15c-2.24,3.55-5.34,7.98-5.37,8.02-2.18,2.91-11.85,15.29-13.16,16.87-1.59,1.93-2.82,3.56-3.86,5.11-2.97,4.42-6.79,8.67-12.01,13.37-.56,.51-1.11,1.03-1.66,1.56-.98,.94-2,1.92-3.11,2.77-1.55,1.2-3.25,2.17-4.85,3.05-.63,.34-1.25,.52-1.84,.52h0Z"/><path class="f" d="M17.71,61.45c-.53,0-1.04-.12-1.54-.35-1.05-.5-1.49-1.56-1.1-2.65,.27-.74,.75-1.26,1.14-1.63,.69-.65,1.38-1.3,2.08-1.95,1.48-1.39,3-2.81,4.46-4.26-2.76,2.16-9.4,7.12-10.32,7.6-.82,.42-1.68,.87-2.68,.87-.36,0-.72-.06-1.07-.18-.65-.22-1.13-.65-1.35-1.21-.22-.57-.16-1.22,.17-1.85,.53-.98,1.28-1.86,2.32-2.69,.76-.61,1.52-1.28,2.2-1.87,.67-.59,1.36-1.19,2.07-1.77-.85,.57-1.7,1.13-2.55,1.69l-1.61,1.06c-1.44,.96-3.09,1.67-4.91,2.12-.29,.07-.59,.11-.92,.11-.2,0-.41-.01-.65-.04-1.1-.12-1.82-.66-2.12-1.59-.32-.98,.15-2.16,.78-2.82,1.6-1.67,3.5-2.95,5.34-4.19l.16-.11c.42-.28,.84-.57,1.26-.86,.53-.37,1.44-1.03,2.95-2.2-1.5,.81-3.02,1.66-4.45,2.59-1.31,.85-2.73,1.35-4.23,1.49-.12,.01-.24,.02-.36,.02-.4,0-.79-.06-1.16-.17-.66-.2-1.17-.65-1.44-1.26-.27-.62-.26-1.34,.04-1.97,.3-.64,.7-1.19,1.18-1.64,.83-.76,1.63-1.39,2.44-1.92,1.9-1.23,3.83-2.47,5.7-3.67l1.3-.83c2.21-1.41,6.29-4.25,7.56-5.93,.12-.17,.17-.24,.18-.27h-.01s-.1,0-.23-.01h-.18c-.49,0-.95,.05-1.41,.15-.77,.18-1.57,.42-2.28,.63-1.04,.31-2.11,.63-3.22,.83l-.32,.06c-.61,.11-1.24,.23-1.9,.23-.38,0-.74-.04-1.09-.12l-.09-.02c-.16-.03-.31-.06-.46-.11-1.1-.4-1.81-1.08-2-1.91-.2-.86,.16-1.76,1.05-2.69,.33-.34,.93-.76,1.37-.96,1.37-.61,2.75-1.26,4.09-1.89l1.95-.91c2.37-1.11,4.83-2.26,7.46-2.91,2.55-.71,5.58-1.06,8.98-1.06,1.01,0,2.06,.03,3.12,.1,0,0,.27,.01,.31,.01,.97,0,1.73-.54,2.66-1.42,.98-.93,8.51-11.49,12.35-16.95l.1-.14,1.19,.76-.1,.15c-4.23,6.04-11.49,16.3-12.5,17.26-.94,.88-2.07,1.83-3.68,1.83-.07,0-.15,0-.22,0h-.19c-1-.07-1.99-.1-2.96-.1-3.27,0-6.27,.35-8.67,1.01-2.51,.61-4.89,1.73-7.2,2.81l-2.06,.97c-1.31,.62-2.66,1.25-4.01,1.85-.27,.12-.71,.43-.91,.63-.5,.52-.74,1-.67,1.32,.07,.31,.48,.63,1.06,.84,.04,.01,.11,.02,.17,.04l.21,.04c.23,.05,.48,.08,.75,.08,.52,0,1.05-.1,1.61-.2l.34-.06c1.02-.18,2.05-.49,3.05-.79,.81-.24,1.59-.47,2.38-.65,.57-.13,1.13-.19,1.73-.19h.23c.82,.02,1.36,.35,1.61,.97,.31,.79-.14,1.38-.38,1.7-1.73,2.29-7.31,5.88-7.94,6.29l-1.3,.83c-1.87,1.2-3.8,2.44-5.71,3.67-.74,.48-1.47,1.05-2.24,1.76-.34,.31-.62,.71-.84,1.17-.12,.25-.13,.51-.03,.73,.09,.21,.27,.37,.51,.44,.23,.07,.48,.11,.72,.11,.08,0,.15,0,.23-.01,1.25-.11,2.44-.53,3.54-1.25,1.82-1.19,3.75-2.22,5.62-3.22,1.46-.78,2.93-1.57,4.34-2.42l.17,.1-.1-.15c.07-.05,.3-.2,.6-.2,.07,0,.14,0,.21,.02,.18,.04,.42,.15,.6,.46,.21,.36,.21,.89-.28,1.27l-.21,.17c-4.51,3.67-6.72,5.32-7.79,6.06-.48,.33-.96,.66-1.43,.98-1.77,1.2-3.6,2.43-5.1,3.99-.31,.33-.57,.94-.44,1.32,.1,.29,.28,.5,.86,.56,.18,.02,.34,.03,.48,.03,.21,0,.39-.02,.56-.06,1.65-.41,3.14-1.05,4.44-1.92l1.58-1.04c2.52-1.66,5.07-3.33,7.4-5.21,.56-.45,1.19-.9,1.98-1.4,.33-.21,.64-.31,.93-.31,.34,0,.64,.14,.87,.41,.5,.57,.41,1.37-.24,1.98l-.26,.25-.2-.05,.12,.13c-.41,.39-.83,.8-1.3,1.16-.7,.54-1.42,1.08-2.12,1.6l-.13,.1c-.69,.51-1.36,1.01-2.02,1.52-.93,.71-1.83,1.5-2.7,2.27-.72,.63-1.47,1.29-2.24,1.91-.88,.7-1.51,1.43-1.94,2.23-.13,.24-.16,.44-.1,.59,.06,.14,.21,.26,.44,.34,.19,.07,.39,.1,.59,.1,.63,0,1.27-.33,1.94-.67,.94-.49,8.83-6.4,10.83-8.02,.59-.58,1.26-1.08,1.99-1.47,.2-.11,.48-.27,.82-.27,.31,0,.59,.13,.81,.39,.57,.66,.12,1.37-.03,1.6-.45,.69-1.01,1.25-1.54,1.79l-.17,.17c-1.65,1.68-3.39,3.3-5.07,4.87-.7,.66-1.39,1.31-2.08,1.96-.41,.39-.64,.7-.77,1.06-.13,.34,0,.62,.33,.78,.3,.14,.59,.21,.9,.21,.44,0,.89-.13,1.39-.41,1.57-.86,3.23-1.81,4.73-2.97,1.07-.83,2.07-1.79,3.03-2.71l.08-.08c.53-.5,1.06-1.01,1.6-1.5,5.17-4.65,8.93-8.84,11.86-13.2,1.06-1.58,2.31-3.23,3.92-5.18,1.32-1.6,10.97-13.96,13.13-16.83,.35-.5,3.41-5.26,5.2-8.05l.09-.15,1.4,.89-.09,.15c-2.17,3.45-5.06,7.58-5.38,8.04-2.18,2.91-11.87,15.31-13.19,16.91-1.58,1.92-2.8,3.53-3.83,5.06-2.99,4.46-6.84,8.74-12.1,13.47-.55,.49-1.11,1.03-1.6,1.51-1.03,.99-2.06,1.98-3.19,2.85-1.59,1.22-3.3,2.21-4.93,3.1-.72,.39-1.43,.59-2.11,.59Z"/><path class="d" d="M36.77,66.99c-.92,0-1.83-.06-2.7-.18-4.67-.63-8.36-2.81-9.65-5.68-.09-.2-.15-.4-.21-.6-.11-.38-.2-.64-.43-.81-.03-.02-.1-.04-.29-.05-.15,0-.31-.01-.46-.01h-.65c-.36,0-.79,0-1.22-.08-.77-.13-1.44-.31-2.04-.54-1.39-.52-2.6-1.33-3.49-2.33-.83-.92-1.35-2-1.51-3.13-.13-.91,0-1.79,.14-2.64l.08-.53c.12-.79,.11-1.05-.21-1.25-1.21-.76-1.91-1.68-2.14-2.82-.39-1.89-.19-3.69,.57-5.37,.58-1.28,1.54-2.41,2.91-3.45,.23-.18,.24-.3,.14-.56-.11-.28-.21-.56-.3-.86-.07-.21-.13-.39-.19-.58-1.46-4.07,.81-8.4,3.69-10.4,1.05-.73,2.14-1.23,3.23-1.47,.55-.12,1.12-.19,1.7-.19,.29,0,.58,.02,.87,.05,.78,.09,1.48,.29,2.08,.49,.08-.19,.17-.39,.27-.59,.67-1.35,1.56-2.52,2.66-3.47,1.08-.94,2.41-1.7,3.93-2.26,.75-.28,1.56-.41,2.49-.41s1.86,.15,2.55,.27c2.7,.5,5.02,1.83,7.07,4.06l.79-.99c1.34-1.68,3.21-2.61,6.06-3.01,.54-.08,1.07-.12,1.59-.12,1.76,0,3.41,.43,5.05,1.33,2.12,1.16,3.49,3.09,3.98,5.59,.04,.21,.06,.43,.08,.65,.02,.29,.04,.53,.1,.72,.04,.12,.17,.24,.34,.33,.14,.07,.32,.11,.51,.16,.12,.03,.24,.06,.36,.1,.29,.09,.59,.19,.87,.3,.55,.22,1.08,.48,1.57,.77,1.83,1.09,3.3,2.78,4.25,4.88,.59,1.3,1.25,2.77,1.56,4.28,.83,4.08-.42,7.2-3.71,9.27-.5,.32-.64,.63-.53,1.25,.27,1.61,.24,3.92-1.42,5.76-1.6,1.78-3.44,2.68-5.44,2.68-.15,0-.29,0-.44-.01-.05,0-.1,0-.14,0-.33,0-.51,.08-.59,.52-.28,1.49-1.11,2.75-2.54,3.85-1.06,.81-2.29,1.18-3.82,1.47-.64,.13-1.28,.19-1.92,.19-.59,0-1.18-.05-1.75-.16-.27-.05-.47-.09-.61-.09-.24,0-.37,.1-.79,.6-2.68,3.23-7.13,5.08-12.23,5.08Z"/><path class="f" d="M36.77,67.6c-.94,0-1.87-.06-2.79-.19-4.87-.66-8.75-2.97-10.12-6.03-.1-.23-.17-.45-.24-.67-.05-.18-.1-.34-.16-.43h-.02c-.13,0-.27,0-.41,0h-.64c-.49,0-.91-.01-1.36-.09-.81-.14-1.51-.32-2.15-.57-1.48-.56-2.77-1.42-3.73-2.49-.91-1.01-1.48-2.2-1.65-3.44-.14-1.01,0-1.93,.14-2.82l.08-.53c.08-.52,.06-.64,.06-.67-1.35-.83-2.14-1.88-2.4-3.18-.41-2.02-.21-3.95,.62-5.74,.61-1.34,1.6-2.52,3-3.61-.11-.28-.2-.54-.29-.82-.07-.2-.13-.38-.19-.56-1.56-4.36,.85-8.97,3.91-11.1,1.12-.78,2.27-1.3,3.44-1.56,.59-.13,1.21-.2,1.83-.2,.31,0,.62,.02,.94,.05,.54,.06,1.07,.17,1.69,.36l.06-.12c.7-1.43,1.65-2.66,2.8-3.66,1.14-.99,2.53-1.79,4.12-2.37,.82-.3,1.7-.45,2.69-.45s1.95,.15,2.66,.28c2.63,.49,4.89,1.71,6.92,3.73l.36-.45c1.44-1.8,3.43-2.8,6.44-3.23,.57-.08,1.13-.12,1.68-.12,1.86,0,3.6,.46,5.33,1.4,2.28,1.24,3.76,3.32,4.28,6,.05,.24,.07,.49,.08,.73,.01,.18,.03,.38,.06,.51,.01,0,.03,.02,.05,.03,.09,.04,.23,.08,.39,.12,.14,.03,.27,.07,.39,.11,.31,.09,.61,.2,.91,.32,.58,.23,1.14,.5,1.66,.81,1.94,1.15,3.49,2.93,4.49,5.15,.6,1.33,1.28,2.84,1.6,4.41,.88,4.36-.46,7.69-3.98,9.9-.27,.17-.33,.22-.26,.64,.29,1.74,.26,4.24-1.57,6.27-1.72,1.91-3.71,2.88-5.91,2.88-.15,0-.31,0-.46-.01h-.1v.02c-.32,1.64-1.22,3.02-2.78,4.21-1.15,.88-2.46,1.27-4.07,1.59-.67,.13-1.36,.2-2.04,.2-.62,0-1.25-.06-1.86-.17-.2-.04-.42-.08-.51-.08,.02,0-.11,.13-.32,.38-2.79,3.37-7.42,5.3-12.7,5.3Zm-13.75-8.89c.17,0,.35,0,.51,.01,.25,.01,.54,.05,.79,.22,.51,.36,.66,.87,.8,1.31,.05,.18,.1,.33,.17,.48,1.15,2.57,4.57,4.54,8.91,5.13,.84,.11,1.71,.17,2.58,.17,4.81,0,9-1.73,11.5-4.74,.53-.64,.89-.94,1.51-.94,.23,0,.48,.04,.8,.1,.52,.09,1.05,.14,1.58,.14,.57,0,1.16-.06,1.73-.17,1.39-.27,2.51-.6,3.42-1.3,1.24-.95,1.95-2.01,2.19-3.26,.16-.85,.71-1.29,1.58-1.29h.15c.13,.01,.25,.02,.38,.02,1.72,0,3.32-.8,4.73-2.37,1.41-1.56,1.42-3.56,1.19-4.97-.17-.99,.14-1.69,.97-2.21,2.92-1.83,4.02-4.62,3.28-8.27-.28-1.4-.93-2.82-1.49-4.07-.87-1.93-2.21-3.47-3.87-4.46-.45-.27-.93-.5-1.44-.7-.26-.1-.53-.2-.8-.28-.1-.03-.2-.06-.31-.08-.22-.05-.46-.11-.7-.23-.41-.2-.7-.51-.82-.87-.1-.3-.13-.62-.15-.92-.02-.21-.03-.4-.06-.58-.43-2.21-1.64-3.92-3.5-4.93-1.5-.82-3-1.21-4.6-1.21-.47,0-.95,.04-1.44,.11-2.59,.37-4.27,1.19-5.45,2.67l-1.49,1.86-.61-.68c-1.95-2.16-4.14-3.44-6.67-3.91-.65-.12-1.5-.26-2.37-.26-.81,0-1.52,.12-2.16,.35-1.42,.52-2.64,1.23-3.64,2.09-1,.87-1.81,1.93-2.42,3.17-.12,.24-.22,.48-.32,.69l-.28,.67-.69-.24c-.58-.2-1.28-.42-2.02-.5-.26-.03-.51-.04-.77-.04-.5,0-1,.06-1.49,.16-.97,.22-1.94,.66-2.89,1.32-2.59,1.8-4.64,5.67-3.34,9.3,.07,.19,.13,.39,.2,.59,.1,.31,.18,.56,.29,.81,.27,.67,.11,1.24-.45,1.67-1.24,.95-2.1,1.96-2.62,3.09-.68,1.49-.85,3.09-.51,4.78,.18,.87,.74,1.59,1.72,2.2,.89,.56,.76,1.47,.64,2.2l-.08,.53c-.12,.78-.25,1.59-.14,2.36,.13,.93,.57,1.84,1.27,2.63,.79,.89,1.87,1.6,3.12,2.07,.54,.21,1.15,.37,1.87,.49,.37,.06,.74,.07,1.1,.07h.61Z"/><path class="e" d="M40.69,64.47c-.53,0-.96-.2-1.33-.62-.65-.74-.25-1.88,.34-2.7,.61-.85,2.69-2.76,4.7-4.61,1.55-1.43,3.31-3.05,3.44-3.35,.1-.24,.07-.3,.07-.3,0,0-.03-.04-.22-.04h-.09c-.49,.03-.9,.29-1.34,.61-1.5,1.08-3.06,2.12-4.56,3.13-1.11,.74-2.22,1.48-3.32,2.25-1.9,1.32-3.99,2.34-5.78,3.16-.56,.26-1.21,.4-1.82,.4-.88,0-1.6-.29-2.02-.82-.48-.59-.36-1.7,.06-2.37,1.22-1.76,9.92-7.35,13.19-9.46,.62-.4,1.03-.66,1.14-.74,.16-.12,.25-.23,.3-.38,.08-.27,.07-.37,.04-.41-.03-.04-.12-.09-.41-.09h0c-.27,0-.46,.08-.72,.23-.74,.42-1.47,.86-2.19,1.29-1.44,.86-2.93,1.75-4.45,2.53-1.01,.52-2.01,1.06-3.01,1.61-2.12,1.16-4.31,2.35-6.61,3.27-.46,.18-1.95,.66-3.33,.66-.92,0-1.6-.21-2.02-.64-.33-.33-.49-.78-.49-1.34,0-.08,.01-.17,.03-.26,.31-1.33,.91-1.94,2.22-2.87,.04-.03,.09-.06,.13-.08,.94-.52,1.57-.91,2.17-1.3,.49-.31,.95-.6,1.52-.92,2.89-1.61,9.43-5.19,11.18-6.13,.89-.48,1.47-.99,1.58-1.41,.04-.15,.02-.29-.06-.42-.04-.08-.12-.11-.25-.11-.58,0-1.77,.57-2.56,.96-.34,.17-.64,.31-.83,.38-6.92,3.33-11.46,4.93-13.92,4.93-1.25,0-1.99-.42-2.18-1.25-.34-1.47,1.72-3.15,3.58-4.15,2.2-1.18,5.16-2.52,8.28-3.94,2.89-1.31,5.88-2.67,8.44-3.98,2.2-1.29,2.94-2.71,2.92-3.54-.01-.39-.37-.72-.92-.83-.29-.06-.58-.09-.89-.09-1.01,0-2.04,.31-3.03,.6-.51,.15-1.03,.31-1.54,.42l-.09,.02c-1.51,.33-3.08,.67-4.67,.67-.24,0-.49,0-.74-.03-.5-.04-.94-.14-1.29-.32-1.06-.54-1.63-1.13-1.77-1.79-.12-.6,.12-1.25,.74-1.97,.6-.7,1.55-.99,2.39-1.25,.22-.07,.43-.13,.62-.2,1.5-.53,2.99-1.16,4.43-1.77,1.36-.58,2.77-1.17,4.19-1.69,2.46-.89,10.3-2.31,11.8-2.5,.39-.02,.71-.03,1.02-.03,1.96,0,3.62,.28,4.71,.47,.43,.07,.76,.13,.97,.14,.09,0,.18,0,.28,0,.92,0,1.76-.29,2.56-.88,1.99-1.46,4.77-4.48,8.06-8.72l.1-.13,14.93,9.55-.1,.15c-.66,1.02-1.35,2.02-2.04,2.97-4.23,5.81-11.12,13.5-13.14,15.59-1.28,1.32-2.51,2.73-3.69,4.09l-1.13,1.31c-1.13,1.27-9.59,9.54-10.88,10.58-1.05,.84-2.13,1.67-3.2,2.49-.88,.67-1.76,1.35-2.63,2.04-1.19,.94-2.79,2.15-4.58,3.15-.98,.54-1.7,.79-2.29,.79h0Z"/><path class="f" d="M40.69,64.74c-.61,0-1.11-.23-1.53-.71-.76-.86-.33-2.13,.32-3.04,.62-.87,2.69-2.77,4.7-4.61,1.19-1.09,3.1-2.85,3.39-3.25-.39,.03-.75,.27-1.15,.55-1.54,1.11-3.15,2.18-4.58,3.13l-.14,.09c-1.04,.7-2.12,1.42-3.17,2.15-1.92,1.33-4.02,2.36-5.82,3.18-.55,.25-1.2,.4-1.82,.42h-.12c-.96,0-1.76-.32-2.24-.92-.57-.7-.42-1.94,.04-2.68,1.26-1.82,9.98-7.43,13.27-9.54,.61-.39,1.04-.67,1.14-.74,.13-.09,.17-.16,.2-.24,.02-.06,.03-.11,.04-.15-.04,0-.09,0-.16,0-.21,0-.35,.06-.58,.2-.7,.4-1.4,.82-2.09,1.23l-.1,.06c-1.37,.82-2.92,1.74-4.47,2.54-1.01,.52-2.02,1.07-3,1.6-2.12,1.16-4.32,2.36-6.63,3.28-.63,.25-2.02,.64-3.25,.68h-.18c-1,0-1.74-.24-2.22-.71-.38-.38-.57-.9-.57-1.53,0-.11,.01-.22,.04-.33,.34-1.41,.96-2.05,2.32-3.02l.14-.09c.96-.53,1.58-.92,2.18-1.3,.49-.31,.96-.6,1.53-.92,2.83-1.58,9.39-5.17,11.19-6.13,.81-.44,1.36-.9,1.45-1.24,.02-.08,.01-.14-.03-.2-.57,.04-1.71,.59-2.46,.95-.35,.17-.65,.31-.84,.39-6.78,3.26-11.31,4.88-13.84,4.95h-.17c-1.4,0-2.22-.49-2.45-1.46-.37-1.62,1.77-3.41,3.71-4.45,2.19-1.17,5.11-2.5,8.2-3.91,2.96-1.34,5.95-2.7,8.53-4.02,2.08-1.22,2.79-2.53,2.77-3.29,0-.32-.38-.51-.7-.57-.27-.05-.55-.08-.84-.08h-.14c-.92,.03-1.88,.31-2.81,.59-.48,.14-1.03,.31-1.57,.43l-.09,.02c-1.42,.31-2.89,.63-4.39,.67-.11,0-.22,0-.33,0-.26,0-.51,0-.76-.03-.54-.04-1.01-.16-1.4-.35-1.14-.58-1.76-1.23-1.91-1.98-.14-.69,.12-1.41,.8-2.2,.65-.76,1.64-1.07,2.52-1.34,.22-.07,.42-.13,.61-.2,1.5-.53,2.98-1.16,4.41-1.76,1.37-.58,2.79-1.18,4.21-1.69,2.49-.9,10.36-2.32,11.86-2.51,.22-.01,.35-.02,.48-.02,.19,0,.38,0,.56,0,1.98,0,3.65,.29,4.75,.47,.45,.08,.76,.13,.95,.14,.09,0,.17,0,.26,0h.12c.82-.02,1.57-.29,2.29-.82,2.28-1.68,5.59-5.65,7.96-8.68l.1-.13,.18,.02,1.15,.74-.18,.23c-2.86,3.57-6.6,8.06-8.18,9.22-1,.74-2.11,1.13-3.27,1.16h-.17c-.12,0-.24,0-.36,0-.28-.02-.62-.08-1.1-.16-1.01-.18-2.66-.46-4.5-.46-.17,0-.34,0-.51,0h-.35c-1.47,.2-9.12,1.59-11.45,2.43-1.39,.5-2.77,1.09-4.11,1.65-1.47,.62-2.99,1.27-4.52,1.8-.21,.07-.43,.14-.65,.21-.7,.21-1.41,.44-1.73,.81-.37,.43-.42,.67-.41,.73,.02,.08,.23,.37,.99,.76,.17,.09,.42,.14,.72,.17,.21,.01,.42,.02,.64,.02h.28c1.33-.04,2.65-.33,4.04-.64l.11-.02c.45-.1,.91-.24,1.39-.38,1.08-.32,2.15-.64,3.31-.67h.19c.42,0,.8,.04,1.19,.11,1.22,.25,2.07,1.15,2.1,2.24,.05,1.68-1.3,3.48-3.6,4.83l-.11,.06c-2.58,1.32-5.56,2.67-8.45,3.98-3.15,1.43-6.1,2.77-8.26,3.93-2.12,1.14-2.88,2.3-2.83,2.52h0s.15,.11,.73,.11h.13c3.39-.1,10.71-3.61,13.12-4.77l.14-.06c.14-.05,.39-.18,.65-.3,1.28-.62,2.38-1.12,3.22-1.14,1,0,1.44,.54,1.61,.87,.27,.46,.34,.98,.2,1.51-.23,.85-1,1.63-2.31,2.33-1.72,.92-8.24,4.49-11.16,6.11-.53,.3-.97,.57-1.43,.86-.61,.38-1.28,.81-2.27,1.35-1.13,.81-1.42,1.17-1.62,1.98,0,.17,.05,.23,.06,.24,.1,.1,.44,.2,.98,.2h.14c.99-.03,2.15-.36,2.65-.55,2.21-.89,4.35-2.05,6.43-3.18,1.04-.57,2.05-1.11,3.06-1.63,1.48-.76,2.95-1.63,4.37-2.48,.73-.43,1.47-.88,2.22-1.31,.37-.21,.79-.41,1.36-.43h.11c.3,0,1.1,.02,1.59,.71,.49,.69,.26,1.44,.17,1.72-.15,.46-.43,.84-.86,1.14-.11,.08-.38,.25-.93,.61l-.26,.17c-7.71,4.95-12,7.99-12.76,9.03-.14,.24-.14,.6-.12,.68,.11,.12,.44,.22,.84,.22,.44-.01,.86-.1,1.21-.26,1.73-.79,3.74-1.78,5.55-3.03,1.09-.76,2.22-1.51,3.3-2.24l.05-.03h.02l.02-.03c1.5-1,3.01-2.02,4.47-3.06,.46-.33,1.16-.84,2.13-.88h.18c.8,0,1.22,.37,1.43,.68,.32,.48,.35,1.05,.07,1.71-.23,.55-.93,1.22-3.8,3.86-1.77,1.63-3.97,3.65-4.5,4.38-.37,.51-.4,.86-.39,.92,.06,.05,.1,.06,.19,.06,.23,0,.69-.12,1.57-.61,1.69-.94,3.23-2.1,4.38-3.01,.85-.67,1.73-1.35,2.58-1.99,1.12-.86,2.19-1.68,3.24-2.52,1.21-.97,9.63-9.2,10.7-10.4l1.13-1.3c1.18-1.37,2.41-2.79,3.74-4.15,2.01-2.07,8.83-9.69,13.01-15.43,.6-.82,1.25-1.8,1.95-2.92l.14-.23,1.52,.97-.14,.22c-.67,1.02-1.35,2.03-2.05,2.98-4.31,5.91-11.07,13.46-13.17,15.62-1.29,1.32-2.5,2.72-3.67,4.07l-1.14,1.32c-1.13,1.27-9.62,9.58-10.92,10.61-1.03,.82-2.09,1.64-3.13,2.43l-.18,.14c-.87,.67-1.71,1.31-2.52,1.95-1.2,.95-2.81,2.16-4.62,3.17-.98,.54-1.73,.81-2.36,.82h-.07Z"/><path class="d" d="M56.33,53.34c-.75-.05-1.35-.41-1.6-.97-.06-.13-.06-.13-.2-.13-.03,0-.07,0-.12,0-.16,.01-.31,.02-.46,.02-1.49,0-2.63-.58-3.48-1.77-.61-.85-.44-1.7-.31-2.34-1.69-.73-2.69-2.1-2.82-3.86-.1-1.33,.26-2.63,1.02-3.65,.88-1.19,1.78-2,2.84-2.55,.12-.06,.37-.19,.13-1.16-.02-.09-.05-.17-.07-.26-.07-.23-.13-.45-.16-.69-.17-1.34,.25-3.06,3.21-3.64,.2-.04,.38-.06,.56-.06,1.25,0,1.96,.93,2.26,1.39,.31-.14,.66-.21,1.04-.21,1.05,0,2.17,.54,2.85,1.37,.81,.99,1.15,1.94,1.07,3.01,.21,1.34-.77,2.21-1.36,2.73v.03c.76,1.85,.61,3.58-.43,5.12-.16,.24-.3,.49-.44,.75-.25,.45-.5,.91-.87,1.34-.09,.1-.03,.43,.02,.7l.03,.2c.21,1.32-.05,2.55-.8,3.77-.33,.53-1,.86-1.76,.86-.06,0-.11,0-.17,0Z"/><path class="f" d="M56.5,53.86c-.07,0-.14,0-.21,0-.86-.06-1.57-.46-1.94-1.09-.15,0-.27,.01-.39,.01-1.66,0-2.97-.67-3.91-1.99-.6-.84-.58-1.68-.47-2.34-1.64-.85-2.62-2.3-2.75-4.11-.11-1.46,.29-2.88,1.12-4,.92-1.25,1.88-2.11,3.01-2.7h0s-.03-.19-.12-.58l-.05-.2c-.08-.26-.15-.52-.19-.81-.16-1.28,.09-3.52,3.63-4.21,.22-.04,.45-.07,.66-.07,.97,0,1.79,.44,2.46,1.3,.26-.07,.54-.1,.83-.1,1.21,0,2.49,.61,3.26,1.55,.89,1.08,1.27,2.14,1.19,3.33,.18,1.32-.61,2.27-1.27,2.89,.68,1.91,.47,3.68-.61,5.29-.14,.21-.27,.44-.4,.67-.26,.46-.51,.93-.87,1.37,0,.02,.09,.57,.09,.57,.23,1.45-.06,2.79-.87,4.12-.42,.68-1.26,1.11-2.2,1.11Zm-1.98-2.49c.49,0,.8,.2,1,.64,.12,.26,.44,.43,.86,.46h.11c.44,0,.86-.18,1.02-.44,.63-1.03,.86-2.07,.68-3.18l-.03-.18c-.08-.47-.18-1.01,.18-1.42,.3-.35,.53-.77,.76-1.17,.17-.31,.32-.58,.5-.84,.87-1.29,.99-2.74,.35-4.31-.04-.09-.06-.17-.08-.24l-.07-.3,.22-.31s.08-.08,.15-.15c.52-.46,1.22-1.08,1.08-1.99v-.14c.06-.85-.22-1.61-.88-2.41-.52-.63-1.4-1.05-2.19-1.05-.3,0-.56,.06-.77,.17l-.57,.31-.34-.55c-.48-.76-.99-1.12-1.61-1.12-.13,0-.26,.01-.39,.04-1.88,.37-2.7,1.25-2.52,2.68,.02,.18,.07,.35,.12,.52,.04,.12,.07,.23,.09,.33,.17,.7,.3,1.68-.57,2.13-.94,.49-1.74,1.21-2.54,2.29-.63,.86-.93,1.95-.85,3.07,.11,1.48,.95,2.58,2.42,3.18l.54,.22-.14,.66c-.13,.59-.24,1.14,.15,1.7,.69,.96,1.57,1.41,2.77,1.41,.13,0,.26,0,.4-.01,.06,0,.11,0,.17,0Z"/><path class="d" d="M55.25,30.97c-.45-.01-1.61-.05-2.03-1.25-.02,0-.22,0-.22,0-1.17,0-1.96-.52-2.31-1.51-.3-.84-.08-1.88,.53-2.48,.37-.36,.97-.58,1.58-.58,.36,0,.69,.08,.97,.22,.53-.67,1.52-.91,2.3-.91,.56,0,1.09,.12,1.47,.34,1.35,.77,1.97,2.3,1.46,3.63-.36,.95-2.7,2.54-3.74,2.54h-.01Z"/><path class="f" d="M55.23,31.49c-.43-.01-1.72-.04-2.35-1.25-1.33-.05-2.25-.69-2.67-1.85-.37-1.04-.1-2.28,.66-3.02,.47-.45,1.2-.72,1.94-.72,.29,0,.58,.04,.84,.12,.58-.51,1.48-.82,2.43-.82,.65,0,1.27,.15,1.73,.41,1.57,.9,2.28,2.69,1.69,4.26-.43,1.13-2.99,2.87-4.22,2.87h-.04Zm-2.09-2.63c.16,0,.3,0,.43,.05l.23,.08,.17,.27,.05,.12c.18,.6,.58,.72,1.25,.74,.65,0,2.71-1.39,2.93-1.98,.35-.93-.1-2.01-1.08-2.57-.26-.15-.63-.23-1.04-.23-.74,0-1.41,.26-1.67,.65l-.39,.55-.6-.36c-.15-.09-.37-.14-.6-.14-.39,0-.77,.13-.98,.34-.37,.35-.51,1.04-.32,1.56,.23,.65,.68,.94,1.46,.94h.05l.03,.02,.04-.02h.04Z"/></g></g></g></svg>