<?xml version="1.0" encoding="UTF-8"?><svg xmlns="http://www.w3.org/2000/svg" viewBox="0 0 87.04 39.87"><defs><style>.d{fill:#fff;}.e{fill:#013591;}</style></defs><g id="a"/><g id="b"><g id="c"><g><g><path class="d" d="M18.4,28.86c-2.08-.59-6.12-1.91-9.81-4.21C3.61,21.54,.92,17.77,.59,13.42c-.18-2.32,.4-3.6,1.4-4.91,1.19-1.57,3.37-2.51,5.81-2.51,.16,0,.32,0,.48,.01,2.31,.12,4.46,1.01,6.25,1.87l.29,.14-.85,1.48-.29-.14c-1.62-.77-3.54-1.58-5.51-1.68-.13,0-.26,0-.39,0-1.84,0-3.45,.67-4.3,1.79-.66,.87-1.24,1.82-1.08,3.85,.68,8.83,12.82,12.92,16.53,13.96l.32,.09-.54,1.59-.32-.09Z"/><path class="e" d="M18.72,29.5s-.1,0-.15-.02l-.32-.09h0c-2.11-.59-6.21-1.94-9.96-4.28C3.16,21.92,.38,17.99,.03,13.46c-.19-2.48,.47-3.91,1.51-5.29,1.3-1.71,3.64-2.73,6.25-2.73,.17,0,.34,0,.51,.01,2.41,.12,4.62,1.04,6.46,1.92l.29,.14c.14,.07,.24,.19,.29,.34,.05,.15,.03,.31-.05,.44l-.85,1.48c-.14,.25-.46,.35-.72,.23l-.29-.14c-1.57-.75-3.43-1.53-5.3-1.63-1.81-.09-3.42,.51-4.22,1.56-.61,.81-1.11,1.63-.97,3.47,.65,8.47,12.51,12.45,16.13,13.47l.32,.09c.15,.04,.27,.14,.34,.28,.07,.13,.08,.29,.03,.44l-.54,1.59c-.08,.23-.29,.38-.53,.38ZM7.8,6.55c-2.27,0-4.28,.86-5.37,2.29-.94,1.24-1.46,2.38-1.29,4.53,.32,4.16,2.92,7.8,7.74,10.8,3.52,2.2,7.38,3.49,9.48,4.1l.18-.54c-4.05-1.17-16-5.39-16.69-14.39-.17-2.22,.5-3.31,1.19-4.23,1.02-1.35,2.98-2.11,5.16-2,1.99,.1,3.92,.88,5.55,1.65l.29-.51c-1.69-.79-3.68-1.59-5.8-1.7-.15,0-.3-.01-.45-.01Z"/></g><g><path class="d" d="M68.64,28.86c2.08-.59,6.12-1.91,9.81-4.21,4.97-3.1,7.67-6.88,8-11.23,.18-2.32-.4-3.6-1.4-4.91-1.19-1.57-3.37-2.51-5.81-2.51-.16,0-.32,0-.48,.01-2.31,.12-4.46,1.01-6.25,1.87l-.29,.14,.85,1.48,.29-.14c1.62-.77,3.54-1.58,5.51-1.68,.13,0,.26,0,.39,0,1.84,0,3.45,.67,4.3,1.79,.66,.87,1.24,1.82,1.08,3.85-.68,8.83-12.82,12.92-16.53,13.96l-.32,.09,.54,1.59,.32-.09Z"/><path class="e" d="M68.32,29.5c-.23,0-.45-.15-.53-.38l-.54-1.59c-.05-.14-.04-.3,.03-.44,.07-.13,.19-.23,.34-.28l.32-.09c3.62-1.02,15.47-5,16.13-13.47,.14-1.84-.36-2.66-.97-3.47-.8-1.06-2.41-1.66-4.22-1.56-1.87,.1-3.73,.88-5.3,1.63l-.29,.14c-.26,.13-.58,.03-.72-.23l-.85-1.48c-.08-.13-.09-.29-.05-.44,.05-.15,.15-.27,.29-.34l.29-.14c1.84-.88,4.05-1.8,6.46-1.92,.17,0,.34-.01,.51-.01,2.62,0,4.96,1.02,6.25,2.73,1.05,1.38,1.71,2.81,1.51,5.29-.35,4.54-3.13,8.46-8.26,11.66-3.75,2.34-7.85,3.68-9.96,4.28h0l-.32,.09c-.05,.01-.1,.02-.15,.02Zm.17-1.77l.18,.54c2.1-.6,5.96-1.9,9.48-4.1,4.82-3,7.42-6.64,7.74-10.8,.17-2.15-.35-3.29-1.29-4.53-1.09-1.44-3.1-2.29-5.37-2.29-.15,0-.3,0-.46,.01-2.11,.11-4.1,.9-5.8,1.7l.29,.51c1.63-.77,3.55-1.55,5.55-1.65,2.18-.11,4.14,.66,5.16,2,.7,.92,1.36,2,1.19,4.23-.69,9-12.63,13.21-16.69,14.39Z"/></g><g><path class="d" d="M73.98,6.83c-.52-.15-4.57-1.35-6.37-1.9-2.99-.92-5.57-1.71-7.5-2.09-8.4-1.67-12.15-2-15.8-2h-1.6c-3.64,0-7.39,.33-15.8,2-1.93,.38-4.51,1.18-7.5,2.09-1.79,.55-5.82,1.74-6.37,1.9-.04,.01-.06,.04-.05,.08,.16,.75,1.69,7.95,2.57,12.02,.47,2.17,.91,4.2,1.23,5.7,.64,3.02,1.44,4.26,1.6,4.49,3.9,6.02,12.4,8.44,18.86,9.4,2.04,.31,4.14,.48,6.26,.51,2.12-.03,4.22-.2,6.26-.51,6.45-.97,14.96-3.38,18.86-9.4,.15-.24,.95-1.47,1.6-4.5,.32-1.5,.76-3.53,1.23-5.71,.88-4.08,2.41-11.3,2.56-12.02,0-.04,0-.06-.04-.07Z"/><path class="e" d="M43.53,39.87c-2.17-.03-4.32-.21-6.39-.52-6.62-.99-15.37-3.49-19.43-9.78-.67-1.03-1.28-2.73-1.71-4.77-.32-1.49-.76-3.52-1.23-5.7-.82-3.79-2.18-10.21-2.53-11.86l-.04-.17c-.1-.47,.17-.92,.63-1.05,.75-.22,4.6-1.36,6.36-1.9,3.02-.93,5.61-1.72,7.58-2.11C35.23,.33,39.03,0,42.72,0h1.6c3.69,0,7.49,.33,15.96,2.01,1.97,.39,4.57,1.19,7.58,2.12,1.57,.48,4.97,1.49,6.36,1.9,.45,.13,.72,.58,.62,1.04-.02,.07-1.61,7.63-2.56,12.02l-.02,.1c-.46,2.14-.89,4.14-1.21,5.61-.44,2.05-1.04,3.75-1.71,4.78-4.06,6.28-12.81,8.78-19.43,9.78-2.07,.31-4.21,.49-6.37,.52h0ZM13.97,7.43c.47,2.2,1.67,7.86,2.42,11.33,.47,2.17,.91,4.21,1.23,5.7,.39,1.83,.93,3.36,1.48,4.22,3.73,5.76,12,8.09,18.28,9.03,2,.3,4.07,.47,6.15,.5,2.06-.03,4.12-.2,6.12-.5,6.28-.94,14.55-3.27,18.28-9.03,.55-.85,1.09-2.39,1.48-4.22,.29-1.34,.67-3.13,1.09-5.05l.14-.66c.71-3.29,1.87-8.73,2.41-11.32-2.69-.8-4.66-1.39-5.69-1.7-2.96-.91-5.52-1.7-7.41-2.07-8.34-1.66-12.04-1.98-15.63-1.98h-1.6c-3.59,0-7.3,.32-15.63,1.98-1.89,.38-4.45,1.16-7.41,2.07-1.49,.46-4.55,1.36-5.7,1.71Z"/></g><g><path class="e" d="M67.64,11.61c-.07,0-.14-.01-.21-.04-6.4-2.65-13.06-4.34-19.8-5.02-1.09-.11-2.07-.18-2.98-.22-.49-.02-.98-.03-1.5-.03-1.01,0-2.09,.04-3.31,.12-6.76,.46-13.48,1.93-19.95,4.36-.06,.02-.13,.04-.2,.04-.23,0-.44-.14-.52-.36-.05-.14-.05-.29,.01-.43,.06-.14,.17-.24,.31-.29,6.58-2.47,13.4-3.96,20.27-4.43,1.25-.09,2.35-.13,3.38-.13,.53,0,1.05,.01,1.55,.03,.94,.04,1.94,.11,3.05,.22,6.85,.69,13.62,2.41,20.11,5.1,.14,.06,.24,.16,.3,.3,.06,.14,.06,.29,0,.43-.09,.21-.29,.34-.51,.34Z"/><path class="e" d="M66.55,17.91c-.07,0-.13-.01-.19-.03-4.31-1.56-14.06-2.57-24.85-2.57-8.85,0-16.43,.67-20.79,1.83-.05,.01-.09,.02-.14,.02-.25,0-.47-.17-.54-.41-.08-.3,.1-.6,.39-.68,4.42-1.18,12.08-1.85,21.02-1.85,10.97,0,20.89,1.03,25.29,2.62,.29,.1,.44,.42,.33,.71-.08,.22-.29,.37-.52,.37Z"/><path class="e" d="M44.22,24.6c-7.5,0-15.06-.57-22.48-1.69-.15-.02-.28-.1-.36-.22-.09-.12-.12-.27-.1-.41,.04-.27,.28-.47,.55-.47,.03,0,.05,0,.08,0,7.37,1.12,14.87,1.68,22.32,1.68,6.93,0,13.94-.49,20.82-1.46,.03,0,.06,0,.08,0,.28,0,.51,.2,.55,.48,.02,.15-.02,.29-.11,.41-.09,.12-.22,.2-.37,.22-6.37,.9-12.85,1.39-19.27,1.46-.57,0-1.13,0-1.7,0Z"/><path class="e" d="M43.65,33.56c-7.58,0-14.99-1.87-21.42-5.41-.14-.08-.24-.2-.29-.36-.04-.15-.03-.31,.05-.45,.1-.19,.3-.31,.52-.31,.1,0,.2,.03,.29,.07,6.26,3.44,13.47,5.26,20.85,5.26s14.49-1.82,20.58-5.26c.09-.05,.19-.08,.29-.08,.21,0,.41,.12,.52,.3,.08,.14,.1,.3,.06,.45-.04,.15-.14,.28-.28,.36-6.26,3.54-13.58,5.41-21.17,5.41Z"/><path class="e" d="M66.63,28.67s-.07,0-.11-.01c-.15-.03-.27-.11-.35-.24-.08-.12-.11-.27-.08-.42l3.91-19.18c.05-.26,.28-.44,.55-.44,.04,0,.07,0,.11,.01,.3,.06,.49,.36,.43,.66l-3.91,19.18c-.05,.26-.28,.44-.54,.44Z"/><path class="e" d="M20.63,29.13c-.26,0-.49-.19-.54-.44L15.96,9.05c-.06-.3,.13-.59,.43-.66,.04,0,.08-.01,.11-.01,.26,0,.49,.19,.54,.44l4.13,19.64c.06,.3-.13,.59-.43,.66-.03,0-.07,.01-.1,.01h-.01Z"/></g></g></g></g></svg>