<?xml version="1.0" encoding="UTF-8"?><svg xmlns="http://www.w3.org/2000/svg" viewBox="0 0 565.25 23.43"><defs><style>.d{fill:#013591;}</style></defs><g id="a"/><g id="b"><g id="c"><g><path class="d" d="M3.88,12.71c-1.66,1.5-2.15,1.79-2.64,1.79-.7,0-1.24-.65-1.24-1.29,0-.36,.18-.75,.6-1.01,2.17-1.37,4.43-3.81,5.72-6.09,.23-.41,.6-.6,.93-.6,.7,0,1.37,.62,1.37,1.35,0,.18-.03,.78-2.25,3.31l-.26,12.02c-.03,.78-.67,1.17-1.29,1.17s-1.22-.36-1.22-1.11v-.05l.29-9.48ZM1.58,8.31c-.7,0-1.27-.54-1.27-1.17,0-.39,.23-.83,.78-1.17,1.97-1.24,3.63-3.16,4.64-4.87,.26-.47,.65-.65,1.04-.65,.65,0,1.29,.57,1.29,1.27,0,.26-.08,.52-.26,.78-1.73,2.51-4.84,5.8-6.21,5.8Zm4.74,12.46c0-.26,.13-.52,.41-.78,.93-.83,1.92-2.46,2.28-3.44,.18-.49,.54-.67,.93-.67,.57,0,1.17,.47,1.17,1.06,0,.49-1.81,4.89-3.55,4.89-.67,0-1.24-.49-1.24-1.06ZM16.42,5.31l-.03,1.74c1.17,0,2.36,.03,3.44,.03,2.43,.05,2.43,1.76,2.43,3.44s-.26,3.34-2.43,3.37c-1.61,.03-3.26,.05-4.87,.05,.52,.18,3.31,1.22,3.31,2.49,0,.65-.57,1.27-1.19,1.27-.26,0-.49-.1-.73-.31-.83-.83-2.15-1.58-2.64-1.79-.44-.18-.65-.49-.65-.83s.21-.65,.52-.85c-.93,0-1.84,0-2.69-.03-2.12-.05-2.54-.85-2.54-3.21,0-2.54,.39-3.57,2.46-3.6,.96,0,2.02-.03,3.11-.03l-.03-1.74h-4.92c-.75,0-1.11-.54-1.11-1.09s.36-1.09,1.11-1.09h4.92V1.55c0-.8,.62-1.22,1.24-1.22s1.27,.41,1.27,1.22v1.58h5.77c.73,0,1.09,.54,1.09,1.09s-.36,1.09-1.09,1.09h-5.77Zm-4.04,3.68l-.93,.03c-.88,0-.98,.21-.98,1.55,0,1.17,.1,1.45,1.04,1.45l.88,.03v-3.06Zm1.27,7.38c-.03,.8-.1,2.02-.1,2.98,0,1.14,.05,1.55,1.81,1.55s2.38-.16,2.38-1.11c0-.7,.49-1.01,1.04-1.01s1.29,.31,1.29,1.24c0,2.95-2.95,2.98-4.97,2.98-2.54,0-3.83-.44-3.83-2.72,0-.91,.05-2.8,.08-3.88,.03-.67,.57-.96,1.14-.96s1.17,.34,1.17,.91v.03Zm2.43-7.41h-1.79v3.11h1.79v-3.11Zm1.92,3.08c.39,0,.78-.03,1.17-.03,.93-.03,.93-.44,.93-1.22,0-1.61,0-1.76-.96-1.79-.36,0-.75-.03-1.14-.03v3.06Zm3.47,8.34c-.47-1.09-1.53-2.36-2.23-2.95-.28-.23-.41-.52-.41-.75,0-.52,.54-.96,1.17-.96,1.11,0,3.78,3,3.78,4.12,0,.73-.65,1.29-1.29,1.29-.39,0-.78-.21-1.01-.75Z"/><path class="d" d="M33.79,13.36v.18c.03,.88,.65,.96,1.4,.96h1.55c2.77,0,7.02,.05,10,.1,1.86,.05,2.72,.78,2.72,2.12,0,.54-.36,6.4-6.47,6.4-.85,0-1.79-.1-2.8-.34-.49-.13-.73-.54-.73-.98,0-.23,.08-.49,.21-.7-1.09,.03-2.64,.03-4.12,.03s-2.85,0-3.65-.03c-2.12-.08-2.8-1.01-2.82-2.25,0-.36,.03-1.01,.03-1.4,0-.73,.62-1.09,1.24-1.09s1.22,.36,1.22,1.06v.03c0,.23-.03,.7-.03,.96,0,.91,.18,.91,3.34,.91v-2.74h-.39c-1.66,0-2.9-.65-3-2.56-.03-.88-.05-2.25-.05-3.73,0-1.81,.03-3.75,.05-5.15,.03-1.4,.8-2.41,2.59-2.49,.73-.03,1.61-.05,2.56-.05,.13-.49,.28-1.11,.36-1.61,.13-.67,.75-.98,1.37-.98,.7,0,1.45,.41,1.45,1.09,0,.41-.36,1.27-.47,1.5,1.32,0,2.59,.03,3.57,.05,2.23,.08,2.69,1.11,2.8,1.81,.05,.36,.08,1.53,.08,2.43,0,1.63-.03,3.24-2.85,3.31-1.71,.03-4.4,.05-6.76,.05h-2.41c0,.31-.03,.7-.03,1.14h15.28c.65,0,.98,.49,.98,.98s-.31,.98-.98,.98h-15.25Zm.03-6.06v1.22c.91,0,1.97,.03,3.03,.03,2.1,0,4.3-.03,5.72-.1,.65-.03,.85-.39,.91-.85,0-.08,.03-.18,.03-.28h-9.68Zm9.68-1.58c0-.16-.03-.26-.03-.36-.05-.57-.31-.85-.96-.88-.78-.03-2.15-.05-3.6-.05s-2.95,.03-4.04,.05c-.7,.03-1.01,.39-1.04,1.09v.16h9.66Zm-.31,13.05c-.03,.96-.41,1.71-1.42,2.07,.47,.08,.91,.13,1.32,.13,3.65,0,3.73-3.6,3.73-3.75,0-.49-.23-.67-.83-.7-.93-.03-2.67-.03-4.53-.03-1.37,0-2.82,0-4.09,.03v2.8c3.39,0,3.42,0,3.42-1.17,0-.18,0-.39-.03-.52v-.05c0-.6,.57-.91,1.17-.91s1.24,.34,1.27,.96v1.14Z"/><path class="d" d="M56.59,22.68c-.8,0-1.29-.65-1.29-1.27,0-.49,.28-.98,.93-1.19,1.79-.57,3.29-1.4,4.74-2.54,.23-.18,.47-.26,.67-.26,.65,0,1.19,.62,1.19,1.24,0,.28-.13,.6-.41,.85-1.99,1.73-5.13,3.16-5.83,3.16Zm18.98-8.16c.78,0,1.17,.54,1.17,1.09s-.39,1.11-1.19,1.14c-1.76,.05-5.08,.05-8.31,.05l.08,5.46v.03c0,.7-.65,1.06-1.29,1.06s-1.29-.36-1.29-1.06v-.03l.08-5.46c-2.17-.03-4.14-.03-5.28-.08-2.12-.08-3.26-1.11-3.29-3.16-.03-1.17-.03-2.46-.03-3.81,0-1.89,.03-3.86,.08-5.67,.03-.78,.65-1.14,1.27-1.14,.67,0,1.32,.39,1.32,1.09v.05c-.05,1.73-.1,3.99-.1,6.01,0,3.86,0,4.35,1.61,4.43,1.4,.05,4.14,.08,6.94,.08,3.24,0,6.6-.03,8.23-.08h.03ZM67.31,.96c1.35,0,2.69,0,3.44,.05,1.71,.08,2.69,1.04,2.75,2.15,.05,1.17,.08,2.54,.08,3.91s-.03,2.69-.08,3.81c-.05,1.19-1.11,2.23-2.75,2.3-.72,.03-1.89,.05-3.08,.05-1.48,0-2.98-.03-3.81-.05-1.79-.05-2.64-1.01-2.69-2.28-.03-1.11-.05-2.43-.05-3.78s.03-2.72,.05-3.94c.03-1.04,.78-2.1,2.72-2.18,.75-.05,2.07-.05,3.42-.05Zm3.83,5.28h-7.66v1.58h7.66v-1.58Zm-.03-1.81c0-.23-.03-.47-.03-.67-.03-.6-.26-.88-.96-.91-.65-.03-1.81-.05-2.95-.05s-2.2,.03-2.67,.05c-.7,.03-.96,.44-.98,.93,0,.21-.03,.44-.03,.65h7.61Zm-7.61,5.21l.03,.83c.05,.93,.6,.96,3.26,.96,4.07,0,4.25,0,4.3-.98,0-.26,.03-.52,.03-.8h-7.61Zm10.72,12.38c-1.06-.98-2.77-1.99-4.07-2.41-.6-.18-.85-.6-.85-.98,0-.57,.52-1.14,1.27-1.14,.62,0,5.8,1.71,5.8,3.6,0,.7-.54,1.35-1.22,1.35-.31,0-.62-.13-.93-.41Z"/><path class="d" d="M91.36,7.87c2.18-.18,3.83,1.09,3.94,3.99,.05,1.81-.21,4.14-.88,5.77-1.06,2.56-3.6,3.83-6.09,3.11-2.05-.6-1.22-2.98,.36-2.59,1.48,.36,2.56,.13,3.29-1.4,.6-1.27,.83-3.11,.83-4.48,0-1.58-.54-2.33-1.73-2.23-.39,.03-.78,.08-1.19,.13-1.27,4.01-3,7.54-5.02,10.41-1.24,1.76-3.94,.26-2.25-1.63,1.79-1.99,3.39-4.95,4.58-8.42l-.31,.05c-1.11,.21-2.12,.36-2.8,.36-1.76,0-1.73-2.33-.08-2.49,.8-.08,1.61-.05,2.54-.13l1.29-.13c.31-1.14,.65-2.67,.8-4.12,.18-1.68,2.82-1.53,2.62,.21-.1,.88-.44,2.43-.75,3.65l.85-.08Zm9.53,5.83c-.62-1.42-1.79-3.39-3.7-4.45-1.27-.7-.13-2.64,1.48-1.71,2.07,1.22,3.91,3.06,4.61,4.92,.65,1.71-1.68,2.85-2.38,1.24Z"/><path class="d" d="M115.05,22.94c-2.1,.41-2.77-2.15-.57-2.59,1.35-.26,2.67-.65,3.47-1.11,2.85-1.66,3.62-3.44,3.08-4.48-.54-1.04-2.43-1.42-5.18-.18-1.53,.7-3.16,1.92-3.47,2.23-1.53,1.48-2.56,.75-3.03-.16-.47-.91-.41-2.51-.21-4.4s.54-3.88,.75-5.2c.26-1.66,2.62-1.61,2.38,.26-.13,1.09-.41,2.54-.62,3.78-.21,1.27-.34,2.23-.16,2.69,.08,.21,.21,.21,.44,.08,.52-.29,1.74-.96,2.95-1.48,7.82-3.39,13.34,3.6,4.58,8.96-1.09,.67-2.72,1.27-4.43,1.61Zm-.1-16.52c-1.24,.31-2.18-1.35-1.09-1.94,.13-.08,.39-.21,.21-.34-.54-.34-1.42-.75-1.84-1.22-1.11-1.22,.6-2.59,1.89-1.66,.47,.34,1.35,.72,2.1,1.22s1.42,1.11,1.48,1.89c.05,.75-.34,1.61-1.63,1.81-.34,.05-.7,.13-1.11,.23Z"/><path class="d" d="M133.76,17.5c-1.24,1.53-3.24,3.5-4.14,3.5-.65,0-1.17-.52-1.17-1.09,0-.34,.18-.67,.62-.93,1.37-.78,3.19-2.36,4.53-4.12l-3.37,.08h-.03c-.7,0-1.06-.52-1.06-1.01,0-.52,.34-1.01,1.06-1.01h.03l3.55,.03-.03-1.14v-.03c0-.7,.52-1.04,1.06-1.04s1.06,.34,1.06,1.04v.03l-.03,1.14,3.21-.03h.03c.62,0,.96,.52,.96,1.04s-.31,.98-.96,.98h-.03l-3.24-.08,.03,.96c.16-.1,.34-.18,.49-.18,.41,0,2.18,.85,2.82,1.4,.28,.23,.41,.54,.41,.85,0,.62-.52,1.24-1.14,1.24-.21,0-.44-.08-.67-.28-.62-.57-1.35-1.14-1.92-1.42l.05,4.84c0,.65-.54,.96-1.09,.96s-1.09-.31-1.09-.98l.03-4.74Zm-3.94-6.86c-.67,0-1.04-.49-1.04-1.01s.36-.98,1.04-.98h2.62c-.13-.13-.23-.29-.31-.52-.26-.75-.57-1.27-.8-1.58-.16-.18-.21-.39-.21-.54,0-.52,.54-.93,1.11-.93,1.11,0,1.99,2.2,1.99,2.64,0,.41-.18,.73-.47,.93h1.22c.39-.78,.85-2.02,1.09-2.87,.16-.57,.54-.8,.96-.8,.62,0,1.27,.49,1.27,1.14,0,.36-.39,1.17-1.14,2.54h2.38c.7,0,1.04,.49,1.04,.98,0,.52-.34,1.01-1.04,1.01h-9.71Zm.73-5.88c-.75,0-1.11-.49-1.11-.98,0-.52,.36-1.01,1.11-1.01h3.11l-.03-1.48c0-.73,.6-1.09,1.19-1.09s1.19,.36,1.19,1.09v1.48h2.93c.73,0,1.06,.49,1.06,.98,0,.52-.34,1.01-1.06,1.01h-8.39Zm15.48,5.52h-2.62c-.1,4.17-.6,8.7-2.9,11.86-.34,.47-.8,.67-1.24,.67-.7,0-1.35-.52-1.35-1.14,0-.23,.08-.47,.28-.7,2.46-2.9,2.93-7.02,2.93-10.98,0-1.29-.05-2.56-.1-3.78v-.31c0-1.73,.65-2.49,2.38-3,1.01-.31,3.52-1.35,4.48-1.81,.23-.1,.44-.16,.65-.16,.75,0,1.32,.65,1.32,1.29,0,.44-.23,.88-.83,1.14-.85,.39-3.75,1.32-4.45,1.53-.85,.26-1.14,.67-1.14,1.45v1.76l7.41-.05c.83,0,1.24,.57,1.24,1.11s-.41,1.14-1.24,1.14h-2.46l.03,11.86c0,.73-.6,1.09-1.22,1.09s-1.19-.36-1.19-1.09l.03-11.89Z"/><path class="d" d="M157.27,22.63c-.8,0-1.22-.52-1.22-1.06s.41-1.06,1.22-1.06l8.49,.03v-2.36l-6.19,.03c-.78,0-1.17-.52-1.17-1.04s.39-1.04,1.17-1.04l6.16,.03v-1.5c-.23,.18-.52,.26-.83,.26-.57,0-1.14-.31-1.14-.98l.03-5.05h-2.51c-.6,4.17-2.98,6.45-4.17,6.45-.67,0-1.14-.47-1.14-1.04,0-.28,.13-.6,.44-.85,1.81-1.58,2.41-2.77,2.64-4.53h-2.07c-.78,0-1.14-.52-1.14-1.06s.39-1.06,1.14-1.06h.03l2.17,.03,.03-.65c.03-.41,.03-.8,.03-1.17,0-.39,0-.75-.03-1.14h-1.42c-.75,0-1.14-.52-1.14-1.04,0-.54,.39-1.09,1.17-1.09h9.55c.7,0,1.04,.54,1.04,1.06,0,.54-.34,1.06-1.01,1.06h-1.37l.03,2.95,2.07-.03h.03c.67,0,1.01,.52,1.01,1.06s-.34,1.06-1.01,1.06h-2.1l.03,4.79c.23-.23,.6-.36,.93-.36,.62,0,1.24,.41,1.24,1.22v1.61l5.96-.03c.78,0,1.17,.52,1.17,1.04s-.39,1.04-1.17,1.04l-5.96-.03v2.36l8.34-.03c.73,0,1.14,.57,1.14,1.11s-.36,1.01-1.14,1.01h-19.32Zm6.53-18.8h-2.3c0,.88-.03,1.71-.03,2.41v.57h2.33V3.83Zm5.98-.8c0-.75,.57-1.11,1.11-1.11,.6,0,1.17,.39,1.17,1.11v7.61c0,.7-.57,1.04-1.14,1.04s-1.14-.34-1.14-1.04V3.03Zm7.3,8.73v.05c0,1.5-.88,3.19-3.5,3.19-1.68,0-2.64-.39-2.64-1.37,0-.62,.41-1.24,1.11-1.24,.1,0,.23,.03,.34,.05,.39,.1,.83,.21,1.19,.21,.6,0,1.06-.26,1.09-1.29,0-1.06,.03-5.44,.03-8.03V1.76c0-.75,.57-1.11,1.17-1.11s1.17,.36,1.17,1.11v7.07l.05,2.93Z"/><path class="d" d="M194.91,19.5c-2.75,.16-7.02,.18-9.68,.18-1.94,0-1.94-2.77-.03-2.69,2.77,.1,7.48,.1,9.4-.03,.78-.05,1.45-.49,1.5-1.45,.08-1.55,.08-4.19,.03-5.54-.03-.85-.65-1.32-1.63-1.35-2.28-.08-6.37,.08-9.06,.21-2.02,.1-2.12-2.43-.13-2.51,2.85-.13,7.51-.18,10.1-.13,2.56,.05,3.47,1.58,3.47,3.31,0,1.58,.03,4.32-.03,6.63-.05,2.49-1.97,3.26-3.94,3.37Z"/><path class="d" d="M217.82,19.99c-3.21,.1-5,.08-7.51,0-2.64-.1-3.96-1.45-4.04-3.62-.08-2.56-.08-4.43,0-6.65,.08-1.92,1.24-3.44,3.96-3.57,2.9-.13,5.31-.08,7.82,0,2.15,.08,3.63,1.66,3.68,3.29,.08,2.36,.08,4.66,0,6.89-.08,2.17-1.48,3.6-3.91,3.68Zm1.19-9.68c-.05-1.11-.6-1.76-1.92-1.81-2.23-.08-4.27-.08-6.29,0-1.45,.05-1.89,.78-1.94,1.84-.1,1.68-.1,3.7,0,5.46,.05,1.14,.57,1.63,1.99,1.68,2.36,.08,3.91,.13,6.27,0,1.09-.05,1.81-.65,1.86-1.73,.08-1.71,.1-3.7,.03-5.44Z"/><path class="d" d="M231.98,22.29c-2.17,.85-2.9-1.71-1.22-2.33,4.51-1.68,6.55-5.15,6.73-8.88-2.38,.03-4.76,.13-7.1,.21-1.84,.08-2.12-2.41-.08-2.49,2.3-.08,4.71-.13,7.15-.16-.03-1.5-.08-2.95-.1-3.83-.08-1.94,2.56-1.71,2.69-.18,.13,1.53,.1,2.77,.1,3.99,2.07-.03,4.09-.03,6.03,0,1.06,.03,1.53,.67,1.5,1.32-.03,.65-.57,1.29-1.61,1.24-1.92-.08-3.91-.1-5.9-.1-.16,4.79-2.9,9.11-8.21,11.21Z"/><path class="d" d="M262.82,6.55c1.22,0,2.38,.03,3.39,.05,1.86,.05,3.24,1.04,3.13,2.93-.34,5.52-3.62,10.98-11.37,12.92-1.84,.47-2.62-2.15-.67-2.54,6.08-1.22,8.93-5.72,9.14-9.71,.05-.83-.34-1.32-1.22-1.37-2.12-.1-6.14-.08-7.66,0-.85,.05-1.19,.73-1.19,1.29,0,.62,.05,2.2,.08,2.98,.03,1.61-2.67,1.76-2.69,.13-.03-.75,0-2.43-.03-3.73-.05-2.28,2.18-2.85,3.19-2.87s2.12-.05,3.26-.05c0-1.01-.03-2.46-.03-3.11,0-.85,.67-1.27,1.35-1.27s1.32,.41,1.32,1.22v3.13Z"/><path class="d" d="M276.43,17.19c-2.38,1.45-3.73-1.19-1.97-2.05,4.76-2.33,9.71-7.09,12.64-11.7,1.14-1.79,3.42-.13,2.3,1.37-1.17,1.55-2.28,2.95-3.39,4.25-.08,2.64-.13,9.43-.05,12.01,.05,1.97-2.74,2.2-2.72,.08,.03-2.07,.13-6.29,.16-9.32-2.05,1.99-4.27,3.73-6.97,5.36Z"/><path class="d" d="M293.47,18.28c3.83-1.71,6.14-5.7,5.9-10.64-.1-1.99,2.62-1.86,2.67-.21,.18,4.89-2.05,10.28-7.12,13.1-1.99,1.11-3.42-1.37-1.45-2.25Zm13.59,.93c-1.68,.83-3.52,.16-3.34-2.07,.18-2.33,.36-8.49,.36-10.02,0-1.89,2.62-1.86,2.59,0-.03,1.01-.28,7.85-.31,8.73-.03,.57,.28,.62,.78,.34,2.23-1.27,4.27-3.68,5.77-6.47,.93-1.73,3.26-.31,2.36,1.29-1.79,3.21-4.69,6.42-8.21,8.21Z"/><path class="d" d="M321.14,21.03c-1.89,.7-2.77-1.84-.83-2.51,4.71-1.63,8.8-5.77,10.85-9.63,.23-.44,.13-.85-.44-.85-1.63-.03-5.2,.1-7.48,.16-1.55,.05-1.66-2.43,0-2.51,1.89-.08,5.7-.13,8.31-.13,2.33,0,3.65,1.48,2.64,3.24-.88,1.53-1.81,3-2.87,4.4,2.15,1.29,5.44,3.47,6.63,5.13,1.04,1.45-.91,3.47-2.12,1.94-1.27-1.58-3.94-3.94-6.06-5.21-2.28,2.54-5.08,4.64-8.62,5.98Z"/><path class="d" d="M344.13,22.55c-.85,0-1.37-.67-1.37-1.19,0-.41,.28-.85,.91-1.11,.65-.26,2.07-1.53,2.46-2.36,.23-.49,.6-.67,1.01-.67,.62,0,1.29,.52,1.29,1.17,0,1.27-2.93,4.17-4.3,4.17Zm19.21-17.38c-1.76-.03-3.52-.05-5.28-.05,.23,1.84,.54,3.55,1.06,5,.54-.98,.96-1.99,1.24-2.98,.16-.52,.54-.73,.96-.73,.57,0,1.19,.44,1.19,1.11,0,.26-.65,2.54-2.25,4.82,.49,.7,1.19,1.48,1.76,1.48,.44,0,.78-.49,.98-1.76,.1-.65,.54-.91,1.01-.91,.62,0,1.27,.44,1.27,1.19,0,1.01-.85,3.91-3.13,3.91-.6,0-1.97-.18-3.34-2.15-.88,.91-1.89,1.66-2.98,2.2-.03,.03-.05,.05-.08,.05,1.37,.93,1.53,1.5,1.53,1.86,0,.7-.62,1.29-1.27,1.29-.31,0-.6-.13-.85-.44-.65-.83-1.81-1.66-2.51-2.07-.34-.21-.49-.49-.49-.75,0-.54,.57-1.09,1.24-1.09,.21,0,.36,.03,.83,.23v-.08c0-.34,.16-.7,.57-.88,1.17-.57,2.15-1.37,2.93-2.28-.96-2.07-1.5-4.56-1.86-7.04-2.46,0-4.82,.03-6.99,.05-.78,0-1.09,.44-1.09,1.06,0,.31,.03,.67,.03,1.11,0,2.41-.28,6.45-2.41,9.17-.36,.44-.78,.62-1.19,.62-.7,0-1.35-.54-1.35-1.19,0-.26,.1-.54,.36-.83,1.86-1.99,2.15-4.95,2.15-7.22,0-.83-.03-1.58-.05-2.18v-.1c0-1.32,.98-2.46,2.74-2.49,2.33-.03,4.89-.03,7.54-.03-.05-.49-.13-.98-.18-1.48v-.21c0-.73,.54-1.11,1.09-1.11,.6,0,1.19,.41,1.24,1.24,.03,.52,.05,1.04,.1,1.55,.93,0,1.89,.03,2.82,.03-.52-.54-1.11-.85-1.66-1.14-.29-.13-.39-.36-.39-.57,0-.49,.52-1.01,1.06-1.01,.41,0,2.69,.83,2.69,1.99,0,.26-.1,.52-.26,.73h1.24c.67,0,1.01,.49,1.01,1.01s-.34,1.04-1.01,1.04h-.03Zm-14.14,3.16c-.62,0-.93-.44-.93-.88,0-.47,.34-.96,.93-.96h5.62c.6,0,.91,.47,.91,.91,0,.47-.31,.93-.91,.93h-5.62Zm2.93,6.24c-3.19,0-3.55-.36-3.55-2.64,0-1.58,.23-2.49,2.1-2.49,.6,0,1.24-.03,1.86-.03,2.87,0,2.95,.6,2.95,2.72,0,1.79-.18,2.43-3.37,2.43Zm2.02,8.44c-4.01,0-5.1-.78-5.1-2.95,0-2.56,.03-2.82,.03-3.03,.05-.78,.65-1.14,1.24-1.14s1.24,.41,1.24,1.11-.03,2.51-.03,2.8c.05,.91,.6,1.11,2.69,1.11,2.46,0,3.34-.21,3.34-1.4,0-.67,.54-.96,1.14-.96,.67,0,1.37,.39,1.37,1.01,0,2.85-1.61,3.44-5.93,3.44Zm-3.63-10.62c0,.34,.16,.44,1.71,.44,1.22,0,1.35-.08,1.35-.88,0-.85-.03-.85-1.55-.85-1.19,0-1.48,.05-1.5,.39v.91Zm12.51,8.88c-.72-1.14-1.86-2.05-2.67-2.59-.36-.26-.52-.54-.52-.85,0-.54,.54-1.06,1.24-1.06,.93,0,4.27,2.38,4.27,3.73,0,.75-.67,1.35-1.35,1.35-.36,0-.73-.16-.98-.57Z"/><path class="d" d="M390.86,16.29l-7.41-.1c2.56,1.94,5.18,3.03,8.05,4.09,.6,.23,.85,.65,.85,1.06,0,.67-.62,1.37-1.42,1.37-.7,0-4.87-1.81-8.78-5.1l.05,4.82v.03c0,.65-.62,.98-1.22,.98s-1.22-.34-1.22-.98v-.03l.05-4.76c-3,2.67-7.87,5.18-8.78,5.18-.75,0-1.29-.57-1.29-1.17,0-.39,.26-.8,.85-1.04,3.08-1.19,5.41-2.43,7.79-4.45l-7.15,.1h-.03c-.73,0-1.09-.52-1.09-1.06s.39-1.11,1.11-1.11h8.54l-.03-1.14c-.03-.8,.65-1.14,1.22-1.14,.62,0,1.22,.36,1.22,1.09v.05l-.03,1.14h8.67c.75,0,1.11,.54,1.11,1.09s-.36,1.09-1.09,1.09h-.03Zm-17.63-8.86c-.75-.44-1.48-.73-2.23-.88-.52-.1-.75-.47-.75-.85,0-.54,.49-1.14,1.22-1.14s2.07,.39,2.82,.78c.47,.23,.65,.65,.65,1.04,0,.62-.47,1.24-1.11,1.24-.18,0-.39-.05-.6-.18Zm-1.5,6.01c-.7,0-1.19-.6-1.19-1.19,0-.36,.18-.73,.6-.96,1.68-.98,2.87-1.99,4.07-3.31,.23-.26,.52-.39,.8-.39,.54,0,1.06,.47,1.06,1.06,0,.26-.1,.57-.36,.85-1.84,2.07-4.09,3.94-4.97,3.94Zm3.06-9.43c-.62-.6-1.89-1.14-2.41-1.37-.41-.18-.6-.47-.6-.8,0-.54,.54-1.11,1.22-1.11,.52,0,2.49,.85,3.24,1.45,.31,.26,.44,.57,.44,.88,0,.65-.54,1.27-1.17,1.27-.23,0-.49-.1-.73-.31Zm15.02,3.6c0-.67,.54-.98,1.11-.98s1.35,.28,1.35,1.19c0,3.55-1.37,4.12-4.12,4.12-2.38,0-2.98-.91-2.98-2.43,0-.96,.39-2.62,.49-3.39v-.16c0-.41-.26-.57-.73-.57h-1.04c-.52,3.06-1.89,5.75-5.75,7.17-.23,.08-.41,.13-.6,.13-.78,0-1.19-.62-1.19-1.22,0-.41,.21-.8,.65-.98,2.82-1.09,4.01-2.75,4.45-5.08-1.24,.03-2.43,.05-2.77,.05-.67,0-1.09-.54-1.09-1.09s.39-1.04,1.19-1.04c.54,0,1.66,0,2.87-.03,.03-.28,.03-.54,.03-.83s0-.57-.03-.85v-.05c0-.78,.6-1.14,1.22-1.14s1.29,.41,1.29,1.19v.03c0,.54-.03,1.09-.05,1.63h1.63c1.48,.03,2.49,.54,2.49,1.81,0,.18-.03,.36-.05,.54-.21,1.09-.54,2.9-.54,3.55v.05c0,.41,.03,.6,.67,.6,.96,0,1.48-.1,1.48-1.99v-.23Z"/><path class="d" d="M409.58,19.68v.05c0,1.71-1.17,3.52-4.45,3.52-1.04,0-3.31-.03-3.31-1.58,0-.6,.41-1.17,1.14-1.17,.1,0,.23,.03,.36,.05,.7,.16,1.29,.23,1.79,.23,1.35,0,1.92-.6,1.92-1.63v-7.72c-3.39,.03-6.89,.05-8.62,.08h-.03c-.67,0-1.04-.54-1.04-1.09s.36-1.09,1.04-1.09c1.86-.03,5.88-.05,9.68-.08-1.11-.8-2.72-1.63-3.75-2.05-.49-.18-.67-.52-.67-.88,0-.54,.52-1.14,1.24-1.14,.62,0,2.46,.88,3.34,1.35,.05-.03,3.83-2.02,3.83-2.56,0-.13-.1-.18-2.36-.18-2.46,0-6.34,.05-8.34,.13h-.08c-.83,0-1.27-.54-1.27-1.09s.44-1.14,1.32-1.17c1.22-.05,3.08-.05,5-.05,2.64,0,5.41,.03,6.81,.05,1.58,.03,2.41,.78,2.41,1.71,0,.52-.26,1.09-.8,1.61-.7,.7-2.77,2.05-4.4,2.87,.05,.05,.1,.1,.16,.13,.28,.26,.39,.57,.39,.88,0,.13,0,.26-.05,.39,2.56,0,4.71,0,5.54,.03,1.32,.03,2.2,.91,2.2,1.99,0,1.79-3.26,5.1-4.71,5.1-.83,0-1.45-.6-1.45-1.22,0-.34,.21-.7,.67-.98,.57-.34,2.67-1.94,2.67-2.49,0-.16-.16-.26-.49-.26h-5.7v5.9l.03,2.33Z"/><path class="d" d="M425.7,23.38c-.62,0-1.27-.39-1.27-1.14,0-4.71,.03-13.23,.13-18.7,.05-2.46,1.48-2.46,3.94-2.46,.52,0,1.04,0,1.5,.03,1.55,.05,2.3,.83,2.3,1.94,0,.54-.16,1.29-1.37,3.73-.26,.52-.39,.85-.39,1.17,0,.39,.23,.73,.7,1.37,.78,1.06,1.19,2.12,1.19,3.73,0,2.49-1.63,3.96-3.47,3.96-.75,0-1.86-.26-1.86-1.27,0-.54,.36-1.09,.96-1.09,.08,0,.18,.03,.29,.05,.13,.03,.26,.05,.36,.05,1.29,0,1.29-1.55,1.29-1.89,0-1.04-.23-1.92-.78-2.72-.65-.96-.98-1.66-.98-2.38,0-.49,.13-.98,.41-1.58,.67-1.53,1.01-2.36,1.01-2.77,0-.34-.23-.47-1.06-.47-1.14,0-1.58,.03-1.58,.91-.08,4.84-.05,12.3-.08,18.38,0,.75-.62,1.14-1.24,1.14Zm19.81-16.73l-6.21-.08c-.08,.93-.21,1.86-.36,2.74,1.09-.03,2.2-.05,3.34-.05,1.68,0,2.69,.88,2.69,2.59s-.18,5.05-.8,7.07c-.78,2.54-2.62,3.86-5.08,3.86-.93,0-1.99-.18-3.11-.6-.57-.21-.8-.65-.8-1.11,0-.67,.52-1.4,1.22-1.4,.16,0,.31,.03,.47,.1,.85,.36,1.61,.54,2.25,.54,1.27,0,2.1-.7,2.59-1.99,.65-1.79,.75-5.33,.75-6.01s-.41-.93-.93-.93c-.88,0-1.99,0-3,.03-1.11,4.76-3.34,8.8-7.51,11.24-.26,.16-.54,.23-.78,.23-.78,0-1.4-.67-1.4-1.35,0-.39,.21-.78,.7-1.06,5.23-2.87,6.84-8.42,7.2-13.88l-3.52,.05h-.03c-.78,0-1.14-.54-1.14-1.14s.41-1.24,1.17-1.24h4.04l-.03-2.69c0-.75,.65-1.14,1.29-1.14s1.32,.39,1.32,1.14v2.69h5.67c.75,0,1.14,.62,1.14,1.22s-.36,1.17-1.11,1.17h-.03Z"/><path class="d" d="M462.1,8.16c-.41,3.29-2.75,8.18-5.23,10.49-1.99,1.84-4.17,.83-5.31-1.4-1.63-3.21,.1-8.03,3.57-10.44,3.19-2.2,7.92-2.56,11.19-.6,4.01,2.41,4.66,7.17,2.41,10.88-1.22,1.99-3.75,3.6-6.32,4.27-2.28,.6-3.08-2.02-.85-2.54,1.97-.44,3.96-1.55,4.82-2.9,1.84-2.9,1.14-6.29-1.42-7.92-1.01-.65-2.1-.96-3.21-1.04,.28,.26,.44,.67,.36,1.19Zm-5.75,.49c-2.41,1.86-3.7,5.31-2.62,7.3,.39,.75,1.06,1.14,1.71,.57,1.94-1.71,3.75-5.83,4.01-8.62,.03-.31,.1-.6,.23-.8-1.19,.26-2.36,.8-3.34,1.55Z"/><path class="d" d="M482.86,18.51c.21,3.7-3.11,3.65-5.23,2.62-3.08-1.5-2.23-3.34-.85-4.84,.8-.85,2.12-1.86,3.65-2.75-.03-1.09-.05-2.2-.05-3.24-1.06,.21-2.12,.23-3.11,.1-1.92-.23-1.61-2.82,.54-2.38,.65,.13,1.61,.03,2.62-.23,0-1.22-.05-2.05-.1-3.03-.1-1.92,2.74-1.86,2.62-.03-.05,.57-.08,1.4-.13,2.17,.39-.18,.73-.39,1.04-.6,1.4-.93,2.98,1.11,1.17,2.2-.78,.47-1.6,.85-2.43,1.17-.03,.8-.03,1.76,0,2.74,.72-.34,1.48-.6,2.17-.8,2.23-.65,4.43-.44,5.75,.03,4.27,1.48,3.57,4.97,2.25,6.89-1.68,2.43-5.31,3.26-8.31,1.55-1.48-.85-.47-2.98,1.11-2.2,2.02,.98,3.68,1.01,4.92-.65,.62-.83,1.35-2.67-.91-3.5-1.01-.39-2.38-.47-4.19-.05-.93,.21-1.84,.57-2.72,.98,.05,1.37,.16,2.72,.21,3.83Zm-4.35-.83c-.54,.6-.54,1.27,.05,1.55,1.11,.54,1.86,.47,1.89-.54,.03-.7,.03-1.66,0-2.72-.75,.54-1.4,1.11-1.94,1.71Zm14.68-8.18c-.67-.6-2.1-1.22-3.42-1.06-1.58,.18-1.99-2.12-.13-2.28,1.86-.16,4.45,.49,5.39,1.48,.62,.65,.47,1.37,.03,1.84-.44,.47-1.22,.6-1.86,.03Z"/><path class="d" d="M502.17,16.99c-.1-2.72,.18-4.92,.31-7.67,.08-1.68,.26-4.22,.21-5.83-.05-1.92,2.87-1.76,2.82-.05-.05,1.63-.23,4.09-.36,5.83-.18,2.75-.57,5.1-.47,7.61,.16,3.78,4.76,3.52,9.27-.03,1.68-1.32,3.26,1.06,1.79,2.25-5.05,4.12-13.34,4.87-13.57-2.12Z"/><path class="d" d="M528.48,22.94c-2.1,.41-2.77-2.15-.57-2.59,1.35-.26,2.67-.65,3.47-1.11,2.85-1.66,3.62-3.44,3.08-4.48-.54-1.04-2.43-1.42-5.18-.18-1.53,.7-3.16,1.92-3.47,2.23-1.53,1.48-2.56,.75-3.03-.16-.47-.91-.41-2.51-.21-4.4s.54-3.88,.75-5.2c.26-1.66,2.62-1.61,2.38,.26-.13,1.09-.41,2.54-.62,3.78-.21,1.27-.34,2.23-.16,2.69,.08,.21,.21,.21,.44,.08,.52-.29,1.74-.96,2.95-1.48,7.82-3.39,13.34,3.6,4.58,8.96-1.09,.67-2.72,1.27-4.43,1.61Zm-.1-16.52c-1.24,.31-2.18-1.35-1.09-1.94,.13-.08,.39-.21,.21-.34-.54-.34-1.42-.75-1.84-1.22-1.11-1.22,.6-2.59,1.89-1.66,.47,.34,1.35,.72,2.1,1.22s1.42,1.11,1.48,1.89c.05,.75-.34,1.61-1.63,1.81-.34,.05-.7,.13-1.11,.23Z"/><path class="d" d="M547.81,13.1c-2.28,.73-3.26,1.04-4.04,1.27-2.05,.6-2.74-2.15-.6-2.67,1.17-.28,3.08-.78,4.22-1.04l.73-.16v-.34c-.05-1.5-.13-2.56-.18-3.68-.08-1.76,2.69-1.92,2.72-.1,0,.83-.03,2.02-.08,3.24l-.03,.34c1.71-.36,3.86-.8,5.98-1.17,0-.78-.03-1.5-.03-2.15,0-.57,0-.83-.03-1.04s0-.44-.03-1.01c-.05-1.61,2.59-1.81,2.59,.03,0,.88-.05,1.63-.1,2.36-.03,.44-.05,.96-.08,1.48,.23-.03,.44-.08,.67-.1,1.48-.18,2.93-.36,4.3-.28,2.12,.13,1.71,2.67-.39,2.54-1.29-.08-2.33-.05-3.65,.05-.36,.03-.7,.08-1.06,.1-.03,.44-.1,.91-.16,1.35-.26,1.76-.78,3.37-1.99,4.19-.98,.67-2.3,.73-3.18-.39-.36-.44-.73-.88-1.01-1.37-.67-1.14,.73-2.38,1.73-1.06,.75,.98,1.19,.85,1.55,.31,.41-.65,.65-1.63,.75-2.75-2.15,.34-4.17,.8-5.88,1.24,.03,1.22,.05,2.46,.13,3.37,.21,2.8,1.04,3.68,3.21,3.73,1.61,.05,2.72-.34,4.22-.7,1.97-.47,2.56,2.02,.73,2.54-1.79,.49-3.86,.6-5.36,.44-3.39-.36-4.64-1.97-5-5.49-.1-.93-.18-2.12-.23-3.21l-.44,.13Z"/></g></g></g></svg>