<?xml version="1.0" encoding="UTF-8"?><svg xmlns="http://www.w3.org/2000/svg" viewBox="0 0 140.68 155.56"><defs><style>.d{fill:#fff;}.e{fill:none;stroke:#013591;stroke-miterlimit:10;}.f{fill:#fff15e;}.g{fill:#013591;}</style></defs><g id="a"/><g id="b"><g id="c"><g><polygon class="d" points="87 64.01 87 75.18 86.91 75.18 86.91 84.91 98.99 84.91 98.99 75.18 98.9 75.18 98.9 64.01 87 64.01"/><g><g><path class="d" d="M23.59,77.22c1.67-1.78,3.11-3.69,4.09-5.96,.95-2.19,1.72-4.44,2.67-6.62,1.13-2.98,1.13-4.45-.35-5.19-1.48-.74-2.21,.74-3.69,2.95-1.48,2.21-2.95,2.95-4.13,1.91-1.42-1.98-1.97-10.75-2.45-14.29-.2-1.08-.52-2.15-1.17-3.07-.54-.76-1.16-1-1.93-.8-.78,.21-1.31,.75-1.33,1.62-.05,2.29,.69,10.54,.52,12.4h0c-.14-.16-.3-.31-.43-.48-.67-.9-1.54-1.36-2.65-1.08-1.12,.28-1.79,1.06-2.12,2.16-.11,.36-.32,1.2-.32,1.2,0,0-2.66-1.44-4.16-.45-1.57,1.04-1.25,2.62-1.05,4.16-1.04-.23-1.96-.44-2.83,.08-1.28,.75-1.72,2.33-1.07,3.85,.38,.9,.86,1.75,1.46,2.52,1.01,1.31,1.75,2.76,2.22,4.34,.72,2.42,2.27,4.06,4.63,4.9,.68,.24,.93,1.01,1.67,3.23,0,0,11.73-4.42,11.8-4.43-.74-2.21,.29-2.59,.63-2.95Z"/><path class="g" d="M23.97,78.06c.1-.09,.19-.16,.26-.24,1.98-2.1,3.33-4.07,4.26-6.21,.48-1.12,.92-2.25,1.36-3.38,.42-1.09,.84-2.17,1.32-3.28,.91-2.4,1.67-5.06-.78-6.29-.4-.2-.77-.3-1.14-.3-1.35,0-2.22,1.34-3.24,2.88l-.44,.66c-1.12,1.68-1.89,1.94-2.27,1.99-.16,0-.32-.06-.46-.16-.93-1.45-1.51-6.97-1.89-10.63-.13-1.25-.25-2.37-.37-3.24-.26-1.42-.68-2.51-1.32-3.42-.58-.82-1.3-1.24-2.15-1.24-.24,0-.48,.03-.73,.1-1.22,.33-1.96,1.24-1.98,2.44-.02,1.06,.11,3.27,.26,5.63,.1,1.62,.21,3.37,.26,4.72-.49-.29-1.03-.44-1.59-.44-.27,0-.55,.03-.82,.1-1.36,.34-2.31,1.29-2.75,2.76l-.06,.23c-.59-.22-1.41-.45-2.25-.45-.7,0-1.31,.17-1.81,.5-1.56,1.03-1.69,2.49-1.58,3.81-.19-.02-.39-.04-.58-.04-.62,0-1.17,.14-1.68,.44-1.67,.98-2.26,3.02-1.43,4.95,.43,1.01,.96,1.92,1.57,2.71,.94,1.21,1.63,2.57,2.07,4.05,.8,2.7,2.54,4.54,5.18,5.48,.27,.1,.61,1.13,1.13,2.68,.08,.23,.24,.41,.46,.51,.12,.06,.25,.09,.38,.09,.11,0,.21-.02,.31-.06,1.17-.44,11.41-4.29,11.62-4.38,.26-.04,.48-.19,.62-.41,.14-.22,.17-.49,.08-.74-.44-1.32-.13-1.58,.18-1.84Zm-1.02-1.44l-.1,.09c-.65,.54-1.26,1.3-.94,2.92-1.15,.42-3.83,1.43-10.21,3.83-.62-1.84-.97-2.57-1.91-2.91-2.11-.76-3.45-2.17-4.09-4.33-.5-1.69-1.29-3.24-2.36-4.63-.52-.67-.98-1.46-1.35-2.33-.48-1.11-.19-2.21,.71-2.74,.23-.14,.48-.2,.79-.2,.38,0,.82,.09,1.41,.22,.06,.01,.13,.02,.19,.02,.22,0,.43-.08,.59-.23,.21-.19,.31-.48,.28-.76l-.04-.29c-.2-1.55-.27-2.39,.7-3.03,.2-.13,.48-.2,.82-.2,.94,0,2.08,.5,2.43,.69,.13,.07,.27,.1,.42,.1,.12,0,.24-.03,.35-.07,.25-.11,.43-.32,.5-.59,0,0,.21-.81,.31-1.16,.26-.88,.73-1.37,1.49-1.56,.15-.04,.28-.06,.41-.06,.49,0,.92,.27,1.32,.81,.11,.14,.23,.28,.35,.41l.13,.14c.16,.18,.39,.28,.73,.3,.19,0,.37-.09,.55-.27,.14-.14,.23-.33,.25-.54,.11-1.1-.07-3.96-.26-6.99-.14-2.2-.28-4.48-.25-5.48,0-.17,.02-.61,.68-.79,.11-.03,.19-.04,.27-.04,.18,0,.4,.06,.71,.5,.49,.69,.81,1.55,1.02,2.68,.11,.8,.22,1.87,.35,3.15,.56,5.38,1.12,9.96,2.25,11.53,.04,.05,.08,.11,.13,.15,.51,.45,1.1,.68,1.72,.68,.11,0,.21,0,.32-.02,1.14-.15,2.29-1.07,3.4-2.75l.45-.68c.96-1.46,1.42-2.07,1.8-2.07,.09,0,.19,.03,.32,.09,.52,.26,1.24,.62-.06,4.06-.47,1.09-.9,2.2-1.35,3.35-.43,1.1-.85,2.19-1.32,3.28-.84,1.95-2.09,3.76-3.93,5.71Z"/></g><path class="g" d="M20.42,68.65c.34-.18,.46-.6,.29-.93-.12-.23-.36-.37-.61-.37-.11,0-.23,.03-.32,.08-2.13,1.13-3.58,2.92-4,4.92-.36,1.74,.1,3.61,1.23,4.98,.13,.16,.33,.25,.53,.25,.16,0,.31-.05,.44-.16,.14-.12,.23-.28,.25-.47,.02-.18-.04-.36-.15-.5-.85-1.04-1.22-2.51-.94-3.82,.33-1.57,1.56-3.06,3.29-3.98Z"/><path class="g" d="M7.21,72.33c-.12,.04-.25,.06-.39,.05-.46-.02-1.7-.36-3.18-3.1-.12-.22-.33-.35-.58-.36-.12,0-.25,.02-.36,.08-.16,.09-.28,.23-.33,.41-.05,.18-.03,.36,.05,.53,1.67,3.09,3.27,3.79,4.33,3.83,.4,.02,.72-.06,.92-.13,.57-.2,1.01-.63,1.27-1.26,.19-.47,.28-1.05,.25-1.74,.88,.75,1.65,.94,2.15,.96,.32,.01,.63-.03,.91-.13,.57-.2,1.01-.64,1.27-1.26,.2-.47,.28-1.05,.25-1.74,.88,.75,1.65,.94,2.15,.96,.4,.02,.72-.06,.92-.13,.57-.2,1.01-.63,1.27-1.26,.53-1.27,.28-3.18-.7-5.23-.11-.23-.34-.38-.6-.39-.11,0-.22,.02-.32,.07-.34,.16-.49,.58-.33,.92,.8,1.67,1.05,3.21,.67,4.1-.11,.26-.26,.43-.45,.49-.12,.04-.25,.06-.39,.05-.46-.02-1.7-.36-3.25-3.19l-.12,.06,.02-.17-.11-.07-.23-.08-.04,.13-.1-.14-.15,.03-.14,.05-.1,.08-.16,.18,.11,.08-.17,.05,.13,.04-.15,.12v.2l.06,.15c.79,1.67,1.04,3.21,.67,4.11-.11,.26-.26,.43-.45,.49-.12,.04-.25,.06-.39,.05-.46-.02-1.7-.36-3.18-3.1l-.07-.09-.19-.17-.08,.1-.05-.17-.2-.03-.15,.02-.15,.04,.03,.13-.16-.04,.05,.12-.16-.03-.07,.11-.06,.12-.03,.16,.02,.21h.13l-.09,.14c.79,1.67,1.04,3.21,.67,4.1-.11,.26-.26,.43-.45,.49Z"/></g><g><path class="f" d="M23.52,79.77s-.04,0-.06,0l-13.31,4.77c-.26,.09-.39,.37-.3,.63l1.98,5.85,14.08-5.05-2.03-6c-.04-.12-.14-.2-.35-.2Z"/><path class="g" d="M23.57,79.21c-.1,0-.19,.02-.29,.05l-13.31,4.77c-.53,.19-.81,.78-.63,1.31l2.15,6.36,15.09-5.41-2.2-6.5c-.12-.35-.44-.58-.81-.58Zm-10.82,9.89l-1.19-3.5,11.29-4.04,1.19,3.5-11.29,4.04Z"/></g><g><path class="f" d="M100.16,76.38l-7.88,8.6-6.37-8.49c-.13-.18-.35-.29-.57-.29-.1,0-.19,.02-.28,.06l-4.26,1.83,4.38,41.61h15.74l4.38-41.61-4.34-1.89c-.08-.03-.17-.05-.25-.05-.2,0-.39,.08-.53,.23Z"/><path class="g" d="M99.87,76.11l-7.56,8.24-6.08-8.1c-.21-.28-.55-.45-.9-.45-.15,0-.3,.03-.44,.09-2,.76-3.85,1.48-4.48,1.92l-.06,.04,4.45,42.24h16.47l4.45-42.26-4.63-2.02c-.13-.05-.26-.07-.39-.07-.31,0-.62,.13-.83,.36Zm3.97,2.82l-4.15,39.41h-13.31l-4.15-39.4,2.89-1.24,5.87,7.83c.29,.39,.73,.62,1.3,.65,.45,0,.89-.19,1.2-.53l7.36-8.03,2.99,1.3Z"/></g><path class="g" d="M87.82,117.69c-.28,2.07-.33,4.03,.86,5.85,.07,.1,.07,.25,.1,.38,.19,.35,.4,.68,.58,1.04,.9,1.77,1.78,3.56,2.69,5.32,.21,.4,.32,.92,.92,1.08,.24-.45,.46-.88,.69-1.31,1.09-2.02,2-4.14,3.19-6.11,.25-.91,.78-1.68,1.18-2.51,.22-.45,.34-.88,.26-1.4-.75-4.71-3.33-21.2-3.88-24.73-.09-.59-.06-1.1,.37-1.6,.49-.56,.87-1.22,1.29-1.84,.3-.43,.39-.85,.05-1.33-.86-1.23-1.71-2.47-2.72-3.58-.7-.77-1.03-.78-1.72,.02-.75,.87-1.42,1.8-2.12,2.71q-.95,1.23-.08,2.6c.24,.37,.43,.79,.72,1.11,.56,.63,.58,1.33,.47,2.1-1.1,7.38-1.84,14.81-2.84,22.2Z"/><g><path class="d" d="M140.14,155.29c-.43-16.52-.89-36.43-1.01-41.35l-.03-1.13c-.71-16.43-.92-21.39-15.33-28.21-2.91-1.45-8.91-3.52-13.79-5.21-2.23-.77-5.82-2.14-6.88-2.54-.74,3.79-6.8,30.5-10.34,44.67h-.53c-1.36-5.94-3.89-19.23-5.93-29.91-1.41-7.38-2.63-13.76-2.84-14.95-1,.34-6.11,2.11-8.48,3.22l-.19,.09c-5.88,2.75-9.57,4.48-11.5,5.41-3.45,1.33-8.84,4.71-13.61,10.2-1.4,1.9-8.88,10.84-13.23,15.94l-.32,.38-.14-.47c-2.94-9.65-6.71-22.04-7.92-26.23-.19-.65-.5-1.45-1.26-1.85-.29-.15-.6-.22-.95-.22-.48,0-.97,.15-1.33,.27-.95,.33-1.89,.69-2.84,1.05l-5.37,1.99c-2,.73-4,1.47-5.99,2.21-1.55,.57-1.93,1.31-1.5,2.91,.48,1.83,8.01,28.82,11.26,40.32l.28,1.01c.52,1.95,1.06,3.97,2.47,5.76,1.65,2.1,4.35,4.88,8.77,4.88,.27,0,.55-.01,.83-.03,2.62-.2,4.85-1.29,6.65-3.27,.88-.74,1.65-1.5,2.35-2.33,2.44-2.89,9.68-11.32,14.92-17.39l.39-.45,.08,.59c1.36,9.4,2.05,14.6,2.04,15.45,0,.67-.3,9.09-.65,19.18h81.93Z"/><path class="g" d="M10.83,90.04c1.99-.74,3.99-1.47,5.99-2.21l5.38-1.99c.93-.35,1.86-.7,2.79-1.03,.26-.09,.58-.19,.84-.19,.11,0,.19,.02,.27,.06,.2,.1,.36,.39,.52,.94,1.22,4.21,4.98,16.6,7.93,26.24,.19,.61,.69,1.07,1.32,1.21,.12,.02,.24,.04,.36,.04,.51,0,1-.22,1.33-.62,4.24-4.97,11.7-13.87,13.25-15.95,3.26-3.74,6.98-6.72,11.06-8.86,2.35-1.23,4.83-2.35,7.23-3.44,1.18-.53,2.35-1.06,3.51-1.6l3-1.4c1.67-.78,4.78-1.92,6.67-2.58,.53,2.58,1.46,7.46,2.53,13.08l.03,.15c2.04,10.7,4.59,24.01,5.95,29.97,.18,.79,.88,1.36,1.71,1.36,.81,0,1.51-.55,1.7-1.33,3.12-12.47,8.42-35.66,10-43.04,2.32,.88,4.11,1.54,5.31,1.95,4.79,1.65,10.76,3.71,13.63,5.14,13.59,6.44,13.77,10.77,14.47,26.9v.62c.2,7.93,.63,26.47,1.03,41.83v.26h2.03v-.27c-.46-17.34-.95-38.42-1.03-41.97v-.52c-.73-16.68-.95-21.71-15.63-28.67-2.94-1.47-8.98-3.55-13.86-5.23-6.06-2.09-7.08-2.35-7.29-2.35h-.24l-.04,.22c-.72,3.69-6.49,29.15-10.06,43.56-1.4-6.35-3.77-18.74-5.69-28.81-1.47-7.69-2.63-13.77-2.95-15.02l-.06-.2h-.21c-.4,0-6.65,2.09-8.86,3.12l-.19,.09c-1.49,.7-2.99,1.36-4.49,2.03-2.88,1.28-5.85,2.59-8.67,4.11-4.51,2.43-8.44,5.49-11.68,9.1l-.47,.53c-1.36,1.85-8.51,10.4-12.9,15.54-2.92-9.58-6.59-21.64-7.78-25.76-.22-.76-.59-1.69-1.53-2.17-.36-.19-.77-.28-1.2-.28-.56,0-1.1,.16-1.51,.3-.96,.33-1.9,.69-2.85,1.05l-5.36,1.99s-4.2,1.55-5.99,2.21c-1.79,.67-2.32,1.69-1.83,3.55,.48,1.83,8.01,28.82,11.26,40.32l.28,1.01c.54,2,1.09,4.08,2.56,5.95,1.71,2.19,4.53,5.09,9.19,5.09,.28,0,.57-.01,.87-.03,2.76-.21,5.11-1.36,6.96-3.39,.91-.76,1.7-1.54,2.42-2.39,2.23-2.65,8.95-10.47,14.54-16.94,1.62,11.2,1.96,14.23,1.95,14.79,0,.6-.24,7.41-.65,19.18v.27h2.01v-.25c.44-12.13,.66-18.58,.66-19.18,0-.38,0-1.41-2.06-15.67-.1-.68-.59-1.24-1.24-1.43-.16-.05-.33-.07-.49-.07-.51,0-.99,.22-1.33,.61-5.84,6.76-12.68,14.73-14.93,17.4-.64,.76-1.35,1.46-2.17,2.14-.06,.05-.12,.11-.17,.17-1.51,1.66-3.41,2.59-5.64,2.76-.25,.02-.49,.03-.72,.03-3.73,0-6.02-2.31-7.6-4.32-1.21-1.55-1.69-3.34-2.2-5.24l-.28-1.03c-3.24-11.46-10.76-38.44-11.25-40.29q-.22-.84,.58-1.14Z"/><path class="g" d="M125.52,155.56v-.27c-.04-14.01-.09-22.69-.13-25.79v-.4c0-.94,0-1.91-.51-2.56l-.07-.08-.1-.02c-.12-.02-.22-.03-.32-.03-.91,0-.98,.84-.99,2.13,0,1.38,.07,13.44,.16,26.74v.26h1.96Z"/></g><path class="g" d="M89.98,144.22c-.02,1.43,1.24,2.75,2.65,2.78h.05c.7,0,1.36-.27,1.87-.77,.52-.51,.81-1.19,.8-1.91h0c0-.72-.28-1.4-.8-1.91-.51-.51-1.21-.75-1.91-.77-1.42,.02-2.63,1.2-2.66,2.58Zm2.68-1.18c.34,0,.66,.13,.9,.37,.24,.24,.38,.56,.38,.91,0,.34-.14,.66-.38,.9-.25,.24-.59,.37-.9,.37-.64-.01-1.28-.69-1.27-1.35,.01-.63,.6-1.2,1.26-1.2h.01Z"/><path class="g" d="M92.63,126.32c-1.49,.02-2.76,1.26-2.79,2.71-.02,1.5,1.3,2.89,2.78,2.91h.05c.73,0,1.43-.29,1.96-.81,.55-.54,.85-1.25,.84-2h0c0-.76-.3-1.47-.84-2-.53-.52-1.23-.81-1.96-.81h-.05Zm1.37,2.82c0,.36-.14,.69-.4,.95-.26,.26-.62,.37-.95,.39-.67-.01-1.34-.73-1.33-1.41,.01-.66,.63-1.25,1.33-1.26h.01c.36,0,.69,.14,.94,.38,.26,.25,.4,.59,.4,.96Z"/><path class="g" d="M120.96,120.21c.02-.75,0-3.06,0-3.06,0-1.93-.19-2.11-2.18-2.11-.86,0-9.77,0-11.66,0-1.44,.01-1.74,.3-1.75,1.73-.01,1.11-.02,2.29,0,3.45,.02,1.18,.25,1.41,1.44,1.42,1.51,.01,9.44,.01,10.05,.01,.89,0,1.78,0,2.67-.01,1.17-.01,1.4-.24,1.42-1.44Zm-1.57,.03c-.06,.06-.2,.08-.4,.07-.18-.01-9,0-11.41,0-.26,0-.6,0-.66-.02-.04-.07-.04-2.79-.06-3.28,0-.19,.02-.32,.07-.37,.06-.06,.21-.09,.42-.09,1.28,.01,9.99,.03,11.74,.03,.17,0,.31,.14,.31,.31,.01,.74,.04,2.58,.05,2.97,0,.2-.02,.33-.08,.39Z"/><g><path class="g" d="M125.85,27.38c-.18-4.12-1.15-8.19-2.87-11.94-2.26-4.94-6.13-8.96-11.43-10.52-1.6-.47-3.25-.7-4.91-.76-.36-.01-1.86,.22-2.14-.08-1.25-1.34-7.27-5.48-19.16-3.6-6.13,.97-11.78,3.52-16.32,7.82-5.41,5.13-8.33,12.16-8.65,19.57-.33,7.61,1.41,17.03,8.83,20.9,16.97,8.85,38.36,4.43,49.8-2,4.54-3.01,6.19-9.73,6.7-14.81,.16-1.52,.2-3.06,.13-4.58Z"/><g><path class="d" d="M115.89,56.71c.3,.14,.64,.21,1,.21,1.45,0,3.27-1.13,4.74-2.94,1.98-2.45,2.84-5.44,2.29-8.04-.03-.97-1.85-3.9-4.41-3.9-1.56,0-3.04,1.11-4.41,3.32-2.02,2.63-2.06,7.34-2.01,7.61,.4,1.45,1.01,2.92,2.8,3.74Z"/><path class="g" d="M115.66,57.19c.37,.17,.79,.26,1.23,.26,1.61,0,3.59-1.2,5.15-3.14,2.08-2.57,2.98-5.73,2.41-8.4-.04-1.32-2.17-4.41-4.94-4.41-1.76,0-3.39,1.2-4.84,3.53-2.11,2.76-2.22,7.64-2.1,8.08,.41,1.5,1.1,3.17,3.09,4.09Zm.61-10.93s.07-.09,.1-.14c.74-1.19,1.88-2.6,3.14-2.6h0c1.55,0,2.85,1.71,3.05,3.24,.26,2-.52,4.35-2.09,6.29-1.33,1.64-2.79,2.39-3.58,2.39-.15,0-.27-.02-.38-.07-.99-.46-1.54-1.21-1.95-2.61-.02-.67,.18-4.5,1.71-6.49Z"/></g><g><path class="d" d="M65.07,42.15c-2.14,0-3.83,2.4-3.95,3.42-1.3,4.37,1.3,8.8,4.58,10.57,.58,.31,1.24,.48,1.89,.48,1.24,0,2.36-.59,2.99-1.57,.07-.11,.13-.21,.19-.33,.43-.77,.59-1.67,.44-2.52-.18-1.07-.65-3.03-1.85-6.31-1.26-2.44-2.74-3.73-4.29-3.73Z"/><path class="g" d="M65.07,41.61c-2.34,0-4.33,2.53-4.46,3.8-1.38,4.63,1.38,9.33,4.84,11.19,.66,.35,1.4,.54,2.15,.54,1.43,0,2.71-.68,3.44-1.82,.07-.12,.14-.23,.21-.35,.49-.88,.67-1.9,.5-2.87-.18-1.09-.65-3.07-1.91-6.47-1.38-2.67-2.98-4.02-4.77-4.02Zm4.41,12.38c-.05,.08-.1,.17-.15,.25-.35,.55-1.01,.88-1.74,.88-.41,0-.83-.1-1.19-.3-1.98-1.07-3.51-3.15-3.99-5.44-.31-1.48-.11-3.7,.86-4.9,.46-.57,1.07-.86,1.79-.86,.92,0,1.99,1.04,2.92,2.82,1.15,3.14,1.6,4.99,1.76,5.99,.09,.52-.01,1.08-.28,1.56Z"/></g><g><path class="d" d="M90.61,13.63c-21.64,.72-23.2,6.2-23.2,15.13,.1,1.87,2.31,27.13,3.02,31.47,.53,3.22,1.92,7.51,5.59,9.71,3.2,2.43,10.6,4.11,12.39,4.37,1.38,.09,2.71,.14,3.95,.14,7.82,0,13.03-1.73,17.97-5.97,2.67-2.51,3.64-6.01,4.35-9.09,.49-2.13,2.21-18.09,2.25-27.22-.04-12.61-2.65-18.54-26.32-18.54Z"/><path class="g" d="M90.59,13.1c-22.12,.74-23.72,6.42-23.72,15.7,.1,1.88,2.32,27.22,3.02,31.53,.55,3.33,2,7.78,5.79,10.05,2.39,1.82,5.55,2.74,8.41,3.52,8.43,2.3,18.37,1.4,25.44-4.06,.4-.31,.79-.63,1.17-.95,2.78-2.61,3.78-6.2,4.5-9.36,.49-2.14,2.22-18.17,2.26-27.35-.04-11.87-1.87-19.08-26.87-19.08Zm22.64,45.97c-.83,3.65-1.78,6.31-3.88,8.31-7.01,6.64-17.85,6.93-26.59,4.12-2.07-.67-4.09-1.4-5.84-2.73-.05-.04-.1-.07-.16-.11-3.15-1.89-4.38-5.75-4.86-8.66-.72-4.37-2.89-29.44-3-31.26,0-7.2,0-12.89,21.74-13.62,23.61,0,24.77,6.17,24.81,17.05-.04,9.06-1.73,24.81-2.21,26.9Z"/></g><path class="e" d="M96.5,62.68c-.56,1.1-2.49,2.77-5.56,2.77s-5.2-1.59-5.57-2.77c-.76-2.41,2.5-1.56,5.57-1.56,2.58,0,6.8-.85,5.56,1.56Z"/><path class="g" d="M88.79,48.42c.34-.67,.65-1.35,.75-2.02,.03-.52-.1-.91-.55-1.02-.44-.11-.61,.24-.75,.58-.03,.08-.06,.16-.09,.25-.54,1.49-1.13,2.96-2.01,4.29-.4,.6-.39,1.2-.12,1.87,.43,1.08,1.12,1.99,1.73,2.96,.37,.59,.87,.71,1.33,.44,.46-.27,.5-.69,.07-1.38-.45-.7-1-1.33-1.36-2.1-.33-.71-.36-1.34,0-2.02,.33-.62,.67-1.24,.99-1.87Z"/><path class="g" d="M83.57,30c-2.62-.91-5.26-1.74-8.02-2.14-.34-.05-.7-.07-1.05-.04-.8,.09-1.49,.75-1.52,1.41-.03,.78,.39,1.22,1.4,1.41,2.86,.52,5.74,.88,8.59,1.57,.38,0,.78,.04,1.17,0,.77-.08,1.04-.62,.68-1.31-.27-.51-.74-.72-1.25-.9Z"/><path class="g" d="M105.1,27.9c-2.77,.3-5.44,1.03-8.09,1.84-.51,.16-1,.35-1.28,.85-.39,.68-.14,1.23,.63,1.34,.39,.06,.79,.03,1.17,.04,2.87-.59,5.77-.83,8.64-1.25,1.02-.15,1.46-.58,1.45-1.35,0-.66-.67-1.35-1.47-1.46-.34-.05-.7-.04-1.05,0Z"/><path class="g" d="M99.88,57.22l-.13,.02v.12l-.02,.15,.02,.04c.04,.08,.09,.18,.18,.24,1.52,1.02,2.21,2.1,2.23,3.51,0,.1,.04,.2,.07,.29,.09,.25,.27,.4,.49,.41h.04c.19,0,.43-.08,.54-.49,.26-.96,.07-1.98-.54-2.81-.67-.91-1.72-1.46-2.89-1.5Z"/><path class="g" d="M78.69,58.73c-.61,.83-.8,1.85-.54,2.81,.11,.4,.36,.49,.54,.49h.04c.22-.01,.4-.16,.5-.42,.03-.09,.07-.18,.07-.29,.02-1.41,.71-2.49,2.23-3.51,.09-.06,.14-.17,.19-.26v-.16l-.02-.17h-.12c-1.16,.05-2.22,.59-2.89,1.5Z"/><path class="g" d="M119.37,29.28c3.69-3.38,2.96-15.18-2.73-20.5-2.11-1.93-4.54-2.87-7.41-2.16-.54,.13-.8-.11-1.3-.33-7.67-3.5-10.68-4.72-16.03-5.12-2.16-.16-4.27,.17-6.39,.53-2.1,.36-22.19,4.29-23.88,25.51-.53,2.39,1.95,8.9,5.52,4.56,1.5-2,8.36-10.44,10.38-11.06,.83-.26,1.5-.25,2.15,.42,2.88,2.97,7.17,5.53,11.42,5.48,.32,0,.67-.03,.9-.26,.22-.22,.27-.55,.3-.86,.07-.63,.14-1.27,.21-1.9,.11-.97,.78-.31,1.24-.05,.6,.33,1.19,.67,1.76,1.04,3.17,2.05,6.7,3.23,10.36,3.83,3.51,.57,6.98,1.56,10.61,1.45,1.04-.03,2.11,.14,2.9-.58Z"/><path class="g" d="M100.7,37.8c-1.06,.06-2,.85-2.22,1.92-.11,.56-.27,1.12-.21,1.68-.04,.74,.14,1.4,.43,2.06,.45,1.01,1.34,1.22,2.28,1.28,.95,.05,1.74-.36,2.16-1.25,.62-1.33,.71-2.72,.2-4.11-.38-1.03-1.44-1.65-2.63-1.58Z"/><path class="g" d="M78.57,37.8c-1.06,.06-2,.85-2.22,1.92-.11,.56-.27,1.12-.21,1.68-.04,.74,.14,1.4,.43,2.06,.45,1.01,1.34,1.22,2.28,1.28,.95,.05,1.74-.36,2.16-1.25,.62-1.33,.71-2.72,.2-4.11-.38-1.03-1.44-1.65-2.63-1.58Z"/><path class="g" d="M93.53,45.16c.88,2.41,3.24,4.14,6.01,4.41,.96,.09,1.94,.14,2.91,.14s1.95-.05,2.92-.14c2.77-.27,5.13-2,6.01-4.41,.37-1.02,.99-5.1,1.11-6.55l4.63-.06,.09-1.82-4.99,.06c-.39-.93-1.13-1.65-2.06-2-1.26-.47-3.88-1.27-7.38-1.27-3.75,0-8.59,.86-9.99,3.27l-4.38-.05c-1.22-2.07-4.76-3.21-9.97-3.21-3.82,0-6.64,.97-7.67,1.39-.85,.34-1.52,1.03-1.84,1.89h-1.35l.17,1.82h1c.16,1.66,.74,5.57,1.09,6.55,.88,2.41,3.24,4.13,6.01,4.41,.96,.1,1.94,.14,2.92,.14s1.95-.05,2.91-.14c2.77-.27,5.13-2,6.01-4.41,.01-.04,1.32-3.95,1.2-6.61l3.44,.04c-.11,2.67,1.2,6.52,1.21,6.56Zm.68-7.39c.66-1.46,4.27-2.52,8.57-2.52,3.34,0,5.84,.81,6.76,1.16,.75,.28,1.24,1.01,1.23,1.81-.02,.88-.7,5.45-1.02,6.34-.65,1.78-2.43,3.07-4.54,3.27-.91,.09-1.83,.13-2.75,.13s-1.84-.04-2.73-.13c-2.11-.21-3.9-1.49-4.55-3.27-.54-1.48-1.51-5.57-.96-6.79Zm-8.17,6.79c-.65,1.78-2.44,3.07-4.55,3.27-.9,.09-1.82,.13-2.73,.13s-1.85-.05-2.75-.13c-2.11-.21-3.89-1.49-4.54-3.27-.32-.88-1.02-5.69-1.03-6.58,0-.65,.38-1.23,.97-1.48,.94-.38,3.5-1.26,7.02-1.26,4.65,0,7.85,.94,8.57,2.52,.53,1.16-.41,5.29-.96,6.79Z"/><path class="d" d="M108.39,23.52c-.07,0-.15,0-.22-.02-7.9-1.58-14.27-6.47-17.92-13.78-.28-.55-.05-1.23,.5-1.5,.56-.28,1.23-.05,1.5,.5,4.28,8.55,11.25,11.56,16.35,12.58,.61,.12,1,.71,.88,1.32-.11,.53-.57,.9-1.1,.9Z"/><path class="d" d="M88.61,20.88c-.21,0-.43-.06-.62-.19-3.91-2.6-6.28-5.98-7.48-10.62-.15-.6,.21-1.21,.81-1.36,.6-.16,1.21,.21,1.36,.81,1.07,4.13,3.09,7.01,6.55,9.32,.51,.34,.65,1.04,.31,1.55-.21,.32-.57,.5-.93,.5Z"/></g><path class="g" d="M85.88,73.53v4.84c0,.33,.33,.6,.75,.6s.75-.27,.75-.6v-4.84c0-.33-.33-.6-.75-.6s-.75,.27-.75,.6Z"/><rect class="g" x="98.47" y="72.78" width="1.49" height="4.86"/><path class="g" d="M111.38,86.37l-3.91-7.83c-.15-.3-.45-.49-.79-.49-.14,0-.27,.03-.39,.09-.21,.11-.37,.29-.44,.51-.07,.22-.06,.46,.05,.67l3.91,7.83c.14,.27,.06,.6-.19,.79l-4.96,3.72c-.34,.25-.45,.72-.26,1.1l4.08,8.16c.09,.19,.07,.4-.05,.56-3.69,4.8-12.59,16.38-15.98,21.16l-15.18-20.46c-.28-.38-.34-.89-.15-1.33l3.51-8.13c.16-.37,.05-.81-.28-1.05l-4.99-3.74c-.24-.18-.33-.51-.2-.79l3.22-7.09c.2-.44,0-.96-.44-1.16-.11-.05-.24-.08-.36-.08-.34,0-.66,.2-.8,.51l-3.22,7.09c-.47,1.03-.16,2.23,.75,2.92l4.43,3.33-3.24,7.5c-.44,1.01-.3,2.19,.36,3.07l15.91,21.44c.16,.22,.43,.35,.7,.35h.02c.28,0,.55-.15,.71-.38,2.63-3.88,13.39-17.88,16.62-22.08,.54-.7,.63-1.63,.23-2.42l-3.75-7.5,4.37-3.28c.92-.69,1.22-1.94,.7-2.98Z"/><path class="g" d="M57.44,93.07c-.74,12.56-.75,20.11-.75,20.19,0,.41,.33,.75,.75,.75s.75-.33,.75-.75c0-.07,0-7.59,.75-20.1,.02-.41-.29-.76-.7-.79-.41-.04-.76,.29-.79,.7Z"/></g></g></g></svg>