<?xml version="1.0" encoding="UTF-8"?><svg xmlns="http://www.w3.org/2000/svg" viewBox="0 0 660.05 37.56"><defs><style>.d{fill:#fff;}.e{fill:#013591;}.f{fill:none;stroke:#013591;stroke-miterlimit:10;stroke-width:2px;}</style></defs><g id="a"/><g id="b"><g id="c"><g><polygon class="d" points="270.89 19.37 257.72 14.77 257.73 1.1 84.52 1 84.5 36.46 257.71 36.56 257.72 23.36 270.89 19.37"/><polygon class="f" points="270.89 19.37 257.72 14.77 257.73 1.1 84.52 1 84.5 36.46 257.71 36.56 257.72 23.36 270.89 19.37"/></g><g><path class="e" d="M292.1,11.29c-.97,0-1.29,.32-1.29,1.12v1.85c0,3.9-.91,7.02-2.47,9.63-.38,.65-.94,.91-1.47,.91-.76,0-1.47-.59-1.47-1.41,0-.26,.09-.59,.26-.91,1.38-2.44,2.08-4.9,2.08-8.4v-2.06c0-2.23,.97-3.2,3.64-3.2h8.75c-.06-.73-.12-1.5-.15-2.29-.03-.88,.7-1.32,1.47-1.32,.7,0,1.44,.41,1.47,1.26,.03,.82,.09,1.59,.15,2.35h2.99l-.06-.06c-.41-.41-.88-.73-1.35-1.03-.41-.26-.59-.62-.59-.94,0-.62,.56-1.2,1.26-1.2,.21,0,.44,.06,.67,.18,.56,.29,1.23,.76,1.73,1.23,.32,.26,.44,.59,.44,.91,0,.35-.18,.68-.44,.91h2.96c.73,0,1.09,.62,1.09,1.23s-.35,1.23-1.09,1.23h-7.31c.35,1.82,.85,3.64,1.67,5.31,.68-.97,1.23-2.03,1.7-3.14,.26-.62,.76-.88,1.29-.88,.7,0,1.44,.53,1.44,1.32,0,.21-.06,.41-.15,.65-.73,1.67-1.67,3.23-2.79,4.61,.94,1.32,1.67,1.82,2.29,1.82,.53,0,.82-.35,1.03-1.58,.12-.73,.7-1.09,1.32-1.09,.7,0,1.44,.47,1.44,1.26v.18c-.38,2.88-1.7,4.17-3.67,4.17-1.44,0-2.97-.88-4.37-2.58-.94,.91-1.94,1.73-3.02,2.47-.32,.21-.65,.32-.94,.32-.73,0-1.32-.62-1.32-1.32,0-.41,.21-.82,.7-1.17,1.15-.76,2.14-1.61,3.05-2.55-.09-.18-.18-.32-.26-.5-1.09-2.11-1.88-4.49-2.35-7.28h-8.37Zm-2.58,14.09c.76,0,1.53,.5,1.53,1.32,0,.18-.06,.38-.15,.62-.47,1.15-1.12,2.35-1.82,3.29-.32,.44-.82,.65-1.29,.65-.79,0-1.56-.62-1.56-1.38,0-.29,.09-.59,.32-.91,.65-.85,1.12-1.67,1.61-2.76,.26-.59,.82-.82,1.35-.82Zm5.05-3.49c-2,0-2.67-.62-2.67-2.2v-1.5c0-1.58,.68-2.2,2.67-2.2h2.79c2,0,2.67,.62,2.67,2.2v1.5c0,1.85-1,2.2-2.67,2.2h-2.79Zm-1.73-7.13c-.59,0-.88-.56-.88-1.12,0-.53,.29-1.09,.88-1.09h6.19c.59,0,.88,.56,.88,1.09,0,.56-.29,1.12-.88,1.12h-6.19Zm-.47,11.24c0-.82,.76-1.23,1.53-1.23s1.53,.41,1.53,1.23v3.26c0,.62,.26,.79,3.49,.79,3.64,0,4.14-.32,4.29-1.73,.09-.79,.76-1.17,1.47-1.17,.76,0,1.53,.47,1.53,1.35v.15c-.29,2.88-1.53,3.85-7.28,3.85s-6.55-.56-6.55-2.85v-3.64Zm4.52-6.08c.47,0,.59-.12,.59-.47v-1.06c0-.35-.12-.47-.59-.47h-1.85c-.47,0-.59,.12-.59,.47v1.06c0,.38,.23,.47,.59,.47h1.85Zm4.08,5.4c.44,.35,.62,.76,.62,1.15,0,.73-.62,1.38-1.38,1.38-.29,0-.62-.09-.94-.35-.5-.41-1.15-.91-1.7-1.29-.41-.29-.62-.65-.62-1,0-.68,.65-1.32,1.44-1.32,.26,0,.53,.06,.79,.21,.62,.32,1.26,.79,1.79,1.23Zm10.36,2.76c.23,.32,.32,.62,.32,.91,0,.85-.76,1.5-1.58,1.5-.41,0-.85-.18-1.2-.65-.68-.88-1.32-1.67-2.08-2.5-.29-.32-.41-.65-.41-.94,0-.73,.7-1.35,1.53-1.35,.38,0,.79,.12,1.15,.44,.82,.76,1.67,1.7,2.29,2.58Z"/><path class="e" d="M331.94,29.99v2c0,.76-.76,1.15-1.53,1.15s-1.53-.38-1.53-1.15v-2l.12-3.23c-2.82,2.26-6.66,4.2-10.16,5.34-.21,.06-.41,.09-.59,.09-.85,0-1.38-.68-1.38-1.38,0-.59,.35-1.17,1.15-1.41,2.91-.91,6.22-2.47,8.9-4.32h-8.13c-.76,0-1.15-.65-1.15-1.29s.38-1.26,1.15-1.26h10.1v-1.7c0-.76,.76-1.15,1.53-1.15s1.53,.38,1.53,1.15v1.7h10.22c.79,0,1.17,.65,1.17,1.26s-.38,1.29-1.17,1.29h-8.31c2.58,1.58,5.84,2.96,9.07,3.82,.85,.23,1.2,.88,1.2,1.5,0,.76-.53,1.53-1.47,1.53-.18,0-.35-.03-.56-.09-3.88-1.12-7.66-3.11-10.3-5.2l.15,3.35Zm-10.42-18.64c.44,.38,.62,.82,.62,1.2,0,.79-.7,1.44-1.47,1.44-.35,0-.73-.15-1.09-.47-.35-.35-1.06-.88-1.5-1.23-.47-.38-.67-.79-.67-1.2,0-.7,.67-1.32,1.47-1.32,.29,0,.62,.09,.94,.29,.68,.44,1.29,.94,1.7,1.29Zm2.11,2.7c.79,0,1.53,.59,1.53,1.38,0,.23-.06,.5-.21,.76-.94,1.76-2.32,3.52-3.49,4.79-.44,.47-.94,.65-1.38,.65-.79,0-1.47-.59-1.47-1.32,0-.38,.15-.76,.53-1.15,1.15-1.14,2.35-2.76,3.17-4.29,.32-.59,.82-.82,1.32-.82Zm.65-6.72c.41,.41,.59,.82,.59,1.17,0,.79-.73,1.41-1.53,1.41-.38,0-.79-.15-1.15-.5-.35-.38-1-.94-1.56-1.38-.41-.29-.56-.65-.56-.97,0-.73,.73-1.38,1.56-1.38,.29,0,.59,.09,.88,.26,.62,.38,1.29,.91,1.76,1.38Zm9.31,4.96c-.79,3.88-2.99,6.4-6.43,8.13-.26,.15-.53,.21-.79,.21-.85,0-1.47-.7-1.47-1.44,0-.44,.23-.88,.82-1.2,2.61-1.35,4.14-3.05,4.81-5.61l-3.29,.09c-.82,.03-1.23-.68-1.23-1.32s.35-1.23,1.15-1.26l3.76-.09c.03-.38,.03-.76,.03-1.17v-2c0-.82,.76-1.23,1.5-1.23s1.5,.41,1.5,1.23v2.11c0,.32,0,.68-.03,1l1.97-.06h.18c2.14,0,2.99,1,2.99,2.47v4.43c0,.41,.15,.59,.82,.59,1.06,0,1.47-.21,1.59-1.61,.06-.79,.73-1.17,1.38-1.17,.76,0,1.5,.44,1.5,1.26,0,.62-.18,1.79-.59,2.44-.76,1.26-2,1.7-4.14,1.7-2.99,0-3.61-.7-3.61-2.55v-4.32c0-.5-.18-.65-.65-.65h-.15l-1.61,.03Z"/><path class="e" d="M353.89,7.21c0-.88,.79-1.32,1.58-1.32s1.59,.44,1.59,1.32v4.05h3.82c.82,0,1.23,.7,1.23,1.44s-.41,1.44-1.23,1.44h-1.09c-.21,2.85-.82,5.64-1.88,8.28,1.06,1.41,2.06,2.82,2.82,4.05,.23,.38,.35,.76,.35,1.12,0,.91-.73,1.56-1.56,1.56-.5,0-1.06-.26-1.44-.91-.47-.79-1.06-1.67-1.7-2.58-1.41,2.47-3.14,4.58-5.14,6.19-.35,.29-.73,.41-1.12,.41-.82,0-1.53-.65-1.53-1.44,0-.44,.21-.91,.73-1.35,2.08-1.73,3.82-3.9,5.05-6.46-1.17-1.47-2.41-2.88-3.49-3.99-.38-.38-.53-.76-.53-1.15,0-.79,.73-1.47,1.58-1.47,.41,0,.85,.18,1.26,.56,.88,.85,1.7,1.76,2.5,2.7,.56-1.79,.82-3.67,.97-5.52h-6.58c-.79,0-1.2-.73-1.2-1.44s.41-1.44,1.2-1.44h3.79V7.21Zm15.15-.06c0-.91,.79-1.35,1.56-1.35s1.56,.44,1.56,1.35v6.61h2.58c.79,0,1.2,.7,1.2,1.41s-.41,1.44-1.2,1.44h-2.58v12.18c0,2.47-.91,3.73-3.73,3.73-.79,0-1.41-.03-2.29-.21-.79-.18-1.15-.82-1.15-1.47,0-.79,.53-1.58,1.56-1.58,.12,0,.23,0,.35,.03,.32,.06,.82,.12,1.2,.12,.73,0,.94-.23,.94-1.12v-11.68h-5.84c-.76,0-1.17-.7-1.17-1.44s.41-1.41,1.17-1.41h5.84V7.15Zm-2.06,14.74c.18,.32,.26,.65,.26,.94,0,.91-.79,1.56-1.61,1.56-.53,0-1.06-.26-1.38-.88-.47-.82-1.03-1.67-1.67-2.52-.23-.32-.35-.65-.35-.94,0-.76,.73-1.38,1.59-1.38,.44,0,.97,.18,1.35,.65,.73,.82,1.38,1.76,1.82,2.58Z"/><path class="e" d="M391.73,8.53c.73,0,1.12,.59,1.12,1.2s-.38,1.2-1.12,1.2h-2.26c.21,.35,.38,.7,.56,1.03,.09,.21,.15,.38,.15,.59,0,.73-.73,1.23-1.47,1.23-.5,0-1.03-.26-1.29-.88-.26-.62-.59-1.29-1-1.97h-1.38c-.59,.91-1.23,1.73-1.88,2.47-.41,.44-.88,.62-1.32,.62-.76,0-1.41-.59-1.41-1.32,0-.32,.12-.68,.44-1.03,1.32-1.44,2.55-3.46,3.35-5.26,.26-.62,.88-.88,1.41-.88,.76,0,1.53,.5,1.53,1.26,0,.18-.06,.38-.15,.59l-.53,1.15h5.25Zm11.89,14.8c0,1.85-.94,2.67-2.76,2.67-.26,0-.53,0-.91-.03,1.79,1.2,3.76,2.17,5.87,2.96,.73,.29,1.06,.85,1.06,1.41,0,.73-.59,1.47-1.41,1.47-.23,0-.47-.06-.7-.15-4.08-1.73-7.37-3.96-9.81-6.87l.12,4.81v2.41c0,.76-.76,1.17-1.53,1.17s-1.53-.41-1.53-1.17v-2.41l.12-4.61c-2.55,2.82-5.9,5.23-9.54,6.99-.26,.15-.56,.21-.79,.21-.79,0-1.35-.68-1.35-1.35,0-.47,.26-.97,.88-1.23,3.79-1.73,7.69-4.49,10.48-8.13h-3.96c-.76,0-1.03,.26-1.03,.82v2.76c0,.82-.73,1.23-1.5,1.23s-1.5-.41-1.5-1.23v-3.26c0-1.7,.85-2.67,3.38-2.67h4.81v-1.61h-10.25c-.73,0-1.09-.65-1.09-1.26s.35-1.26,1.09-1.26h10.25v-.73c0-.76,.76-1.15,1.53-1.15s1.53,.38,1.53,1.15v.73h10.39c.76,0,1.15,.62,1.15,1.26s-.38,1.26-1.15,1.26h-10.39v1.61h5.17c2.5,0,3.38,.94,3.38,2.61v1.58Zm2.11-14.8c.73,0,1.12,.59,1.12,1.2s-.38,1.2-1.12,1.2h-4.29c.23,.35,.44,.7,.62,1.06,.12,.21,.15,.41,.15,.59,0,.73-.7,1.26-1.44,1.26-.5,0-1-.23-1.26-.82-.32-.67-.73-1.38-1.2-2.08h-1.7c-.29,.44-.62,.85-.97,1.26-.41,.47-.88,.68-1.29,.68-.76,0-1.41-.59-1.41-1.32,0-.29,.09-.62,.35-.94,1-1.23,1.85-2.7,2.55-4.29,.26-.62,.79-.88,1.35-.88,.73,0,1.5,.53,1.5,1.29,0,.18-.03,.35-.12,.56-.18,.41-.35,.82-.56,1.23h7.72Zm-7.34,16.15c0-.59,.38-1.15,1.12-1.15h.15c.29,.03,.38,.03,.5,.03,.32,0,.47-.09,.47-.53v-1c0-.41-.15-.56-.91-.56h-4.52c.94,1.23,2.03,2.32,3.2,3.32v-.12Z"/><path class="e" d="M423.5,19.98c2.47,0,3.35,.79,3.35,3.02v3.96c0,2.32-1.06,2.99-2.7,2.99-.47,0-.82-.03-1.23-.06-.79-.09-1.15-.7-1.15-1.35s.41-1.35,1.17-1.35h.15c.21,.03,.29,.03,.44,.03,.23,0,.35-.12,.35-.47v-3.38c0-.56-.18-.73-.76-.73h-1.61v9.07c0,.85-.76,1.29-1.53,1.29s-1.53-.44-1.53-1.29v-9.07h-1.53c-.59,0-.76,.18-.76,.73v5.84c0,.79-.76,1.2-1.5,1.2s-1.53-.41-1.53-1.2v-6.22c0-2.23,.88-3.02,3.38-3.02h1.94v-2.32h-5.75c-.79,0-1.17-.7-1.17-1.41s.38-1.38,1.17-1.38h5.75v-2.44h-2.76c-.21,.41-.41,.76-.62,1.12-.35,.62-.91,.85-1.41,.85-.76,0-1.47-.53-1.47-1.32,0-.26,.09-.56,.26-.88,.76-1.26,1.56-2.97,2.14-4.73,.23-.68,.79-.97,1.38-.97,.76,0,1.5,.5,1.5,1.35,0,.15-.03,.32-.09,.5-.12,.44-.29,.91-.5,1.41h1.56v-3.08c0-.88,.76-1.29,1.53-1.29s1.53,.41,1.53,1.29v3.08h3.9c.79,0,1.17,.68,1.17,1.32s-.38,1.35-1.17,1.35h-3.9v2.44h5.05c.79,0,1.2,.7,1.2,1.38s-.41,1.41-1.2,1.41h-5.05v2.32h2Zm5.67-10.83c0-.85,.76-1.29,1.56-1.29s1.53,.44,1.53,1.29v15.82c0,.82-.76,1.26-1.53,1.26s-1.56-.44-1.56-1.26V9.14Zm8.43,19.76c0,2.44-.94,3.46-3.55,3.46-.7,0-1.44-.06-2.06-.18-.82-.18-1.2-.82-1.2-1.5,0-.76,.5-1.53,1.44-1.53,.06,0,.18,0,.26,.03,.32,.06,.73,.12,1.32,.12,.38,0,.65-.15,.65-.94V7.32c0-.85,.79-1.29,1.59-1.29s1.56,.44,1.56,1.29V28.9Z"/><path class="e" d="M455.79,6.3c0-.79,.79-1.17,1.56-1.17s1.56,.38,1.56,1.17v1.91h9.66c.76,0,1.15,.68,1.15,1.32s-.38,1.35-1.15,1.35h-18.35c-1.32,0-1.67,.35-1.67,1.38v4.43c0,5.61-.94,9.92-2.73,13.56-.38,.76-1,1.09-1.59,1.09-.79,0-1.5-.56-1.5-1.44,0-.26,.06-.53,.21-.85,1.58-3.29,2.47-7.19,2.47-12.59v-4.79c0-2.35,1.12-3.46,4.02-3.46h6.37v-1.91Zm6.84,15.47c2.11,0,3.17,1,3.17,2.2,0,.68-.32,1.44-1,2.11-.65,.68-1.38,1.32-2.2,1.91,1.76,.68,3.73,1.15,5.87,1.47,.82,.12,1.23,.79,1.23,1.44,0,.73-.5,1.53-1.5,1.53-.09,0-.18,0-.29-.03-3.08-.44-5.96-1.35-8.31-2.61-2.82,1.44-6.11,2.44-9.34,2.85-.09,0-.18,.03-.26,.03-.97,0-1.53-.73-1.53-1.5,0-.62,.41-1.26,1.32-1.38,2.61-.32,4.96-.94,6.99-1.76-1.41-1.06-2.64-2.32-3.76-3.7h-1.67c-.71,0-1.09-.65-1.09-1.29s.38-1.26,1.09-1.26h11.27Zm-12.27-5.78c-.7,0-1.09-.65-1.09-1.26s.38-1.26,1.09-1.26h3.23v-.88c0-.82,.73-1.2,1.47-1.2s1.47,.38,1.47,1.2v.88h4.84v-.88c0-.82,.73-1.2,1.47-1.2s1.47,.38,1.47,1.2v.88h3.99c.73,0,1.12,.62,1.12,1.26s-.38,1.26-1.12,1.26h-3.99v1.47c0,2.08-.88,2.79-3.23,2.79h-4.26c-2.35,0-3.23-.7-3.23-2.79v-1.47h-3.23Zm6.17,1.06c0,.65,.12,.79,.79,.79h3.29c.68,0,.76-.15,.76-.79v-1.06h-4.84v1.06Zm.23,7.28c.88,.85,1.85,1.61,2.91,2.26,.82-.5,1.59-1.06,2.26-1.64,.18-.15,.26-.26,.26-.38,0-.15-.21-.24-.56-.24h-4.87Z"/><path class="e" d="M480.19,7.09c.85,0,1.7,.5,1.7,1.44,0,.09,0,.21-.03,.32-.94,4.08-1.56,8.37-1.56,12.12,0,3.26,.38,6.37,.65,8.72,0,.09,.03,.18,.03,.26,0,.91-.88,1.47-1.7,1.47-.76,0-1.5-.41-1.64-1.32-.41-2.44-.68-5.64-.68-9.16,0-3.93,.62-8.43,1.61-12.71,.18-.79,.88-1.15,1.61-1.15Zm14.5,5.4c1.15-.12,2.23-.29,3.23-.47,.15-.03,.26-.03,.38-.03,.91,0,1.38,.68,1.38,1.41,0,.68-.41,1.38-1.29,1.56-1.15,.23-2.41,.41-3.67,.56,.03,2.52,.09,5.05,.35,7.54,1.61,.62,3.29,1.53,4.9,2.73,.56,.41,.79,.94,.79,1.44,0,.82-.68,1.59-1.56,1.59-.35,0-.73-.15-1.12-.44-.97-.76-1.97-1.41-2.91-1.94-.32,2.44-2,4.2-5.64,4.2-3.29,0-5.34-1.64-5.34-4.29,0-2.44,1.97-4.26,5.78-4.26,.62,0,1.26,.06,1.94,.15-.18-2.14-.23-4.29-.26-6.43-1.26,.09-2.5,.12-3.64,.12-.59,0-1.12,0-1.61-.06-.91-.09-1.35-.82-1.35-1.56s.47-1.47,1.41-1.47c.53,0,1.03,.06,1.56,.06,1.15,0,2.35-.03,3.61-.12v-4.37c0-.91,.76-1.35,1.53-1.35s1.53,.44,1.53,1.35v4.08Zm-2.61,12.68c-.76-.21-1.47-.32-2.08-.32-2.06,0-2.7,.65-2.7,1.5,0,.91,.79,1.38,2.26,1.38s2.5-.7,2.52-2.55Z"/><path class="e" d="M506.96,24.32c0-.7,.12-1.53,.32-2.2,.23-.82,.94-1.17,1.64-1.17,.82,0,1.61,.5,1.61,1.35,0,.12-.03,.26-.06,.41-.12,.44-.18,1.03-.18,1.47,0,1.85,1,2.85,6.49,2.85,2.85,0,5.58-.35,8.02-.85,.18-.03,.32-.06,.47-.06,.97,0,1.56,.79,1.56,1.61,0,.7-.44,1.44-1.44,1.67-2.58,.59-5.43,.91-8.6,.91-7.08,0-9.83-2-9.83-5.99Zm10.01-14.59c2.14,0,4.11-.23,5.55-.38,.09,0,.18-.03,.26-.03,1.03,0,1.59,.82,1.59,1.64,0,.7-.41,1.44-1.32,1.58-1.76,.29-3.82,.41-6.05,.41s-4.52-.15-6.4-.56c-.88-.18-1.29-.91-1.29-1.61,0-.85,.56-1.67,1.56-1.67,.12,0,.26,0,.38,.03,1.56,.32,3.55,.59,5.72,.59Z"/><path class="e" d="M539.96,20.3c2.14-1.29,5.05-2.11,7.46-2.11,4.49,0,6.72,2.26,6.72,5.49,0,4.7-4.4,7.19-9.72,7.69-.47,.06-.73,.06-.97,.06-1,0-1.56-.76-1.56-1.53s.44-1.44,1.44-1.5c5.52-.38,7.49-2.29,7.49-4.67,0-1.53-.94-2.67-3.35-2.67-3.2,0-6.02,1.15-8.78,3.79-.38,.35-.82,.53-1.26,.53-.85,0-1.64-.62-1.64-1.59,0-.23,.03-.44,.12-.7,.97-2.76,1.67-5.52,2.2-8.28-1.44,.12-2.79,.18-4.02,.18-1,0-1.5-.76-1.5-1.53s.5-1.5,1.47-1.5c1.35,0,2.91-.09,4.58-.23,.21-1.47,.38-2.94,.53-4.43,.09-.91,.85-1.35,1.61-1.35s1.53,.47,1.53,1.38v.21c-.15,1.35-.29,2.64-.47,3.85,2.29-.29,4.58-.68,6.55-1.12,.15-.03,.29-.06,.44-.06,.91,0,1.47,.76,1.47,1.53,0,.65-.41,1.29-1.35,1.5-2.35,.5-5.02,.97-7.63,1.26-.41,2.26-.91,4.23-1.41,5.78l.06,.03Z"/><path class="e" d="M565,20.5c2.23-1.94,5.61-3.14,8.51-3.14,4.61,0,7.46,2.52,7.46,5.84,0,4.52-3.73,7.75-10.8,8.57-.09,0-.18,.03-.26,.03-1.03,0-1.61-.82-1.61-1.61,0-.73,.5-1.47,1.5-1.59,5.75-.68,7.75-2.85,7.75-5.37,0-1.53-1.2-2.94-4.02-2.94-3.11,0-6.63,1.59-9.1,4.46-.41,.5-.97,.7-1.5,.7-.88,0-1.73-.65-1.73-1.7,0-.12,0-.23,.03-.35,.29-2.17,1-6.02,1.85-10.04,.18-.85,.91-1.23,1.61-1.23,.85,0,1.67,.5,1.67,1.38,0,.09,0,.21-.03,.29-.56,2.73-1.06,4.96-1.38,6.66l.06,.03Zm8.98-12.01c.73,.38,1.03,1,1.03,1.61,0,.82-.62,1.61-1.56,1.61-.26,0-.56-.06-.88-.21-1.53-.68-3.38-1.41-4.79-1.82-.76-.23-1.12-.82-1.12-1.41,0-.82,.68-1.7,1.73-1.7,.15,0,.32,.03,.5,.06,1.58,.38,3.55,1.06,5.08,1.85Z"/></g><g><path class="e" d="M101.77,18.25l-1.54,2.25-3.76-2.55,1.52-2.25,3.78,2.55Zm-4.06-5.1l1.54-2.27,3.76,2.55-1.52,2.27-3.78-2.55Zm.04,12.77c6.21-2.47,8.28-5.24,9.95-9.91l2.45,1.19c-1.57,5.25-5.05,8.93-11.11,11.15l-1.29-2.42Z"/><path class="e" d="M121.07,16.9h4.01v2.73h-4.04c-.28,5.07-2.12,7.11-5.15,8.73l-1.13-2.47c2.55-1.34,3.41-2.85,3.56-6.26h-4.72v-2.73h4.75v-2.52c-1.01,.18-2.09,.25-3.33,.25l-.25-2.73c3.15-.12,5.58-.63,7.67-2.37l1.49,2.27c-.91,.78-1.84,1.36-2.85,1.79v3.31Z"/><path class="e" d="M138.74,13.63v12.01h1.91v2.73h-10.8v-2.73h6.16v-9.28h-4.51v-2.73h7.25Z"/><path class="e" d="M156.91,25.65v2.73h-11.03v-2.73h4.17V13.63h-3.5v-2.73h9.74v2.73h-3.51v12.01h4.13Z"/><path class="e" d="M162.29,17.7h10.5v2.76h-10.5v-2.76Z"/><path class="e" d="M182.53,18.3l-1.54,2.25-3.76-2.55,1.52-2.25,3.78,2.55Zm-4.06-5.1l1.54-2.27,3.76,2.55-1.52,2.27-3.78-2.55Zm.04,12.77c6.21-2.47,8.28-5.25,9.95-9.91l2.45,1.19c-1.57,5.25-5.05,8.93-11.11,11.15l-1.29-2.42Z"/><path class="e" d="M196.61,16.39v-2.73h8.28v14.74h-9.57v-2.73h6.84v-3.28h-5.55v-2.73h5.55v-3.28h-5.55Z"/><path class="e" d="M215.26,15.01l-1.94,1.92-3.91-4.09,1.94-1.89,3.91,4.07Zm7.85,.26c-1.69,6.54-5.71,10.65-11.67,13.14l-1.39-2.35c6.06-2.77,8.63-6.03,10.56-11.86l2.5,1.06Z"/><path class="e" d="M227.47,17.67V8.23h9.95v9.44h-5.86v1.36h5.85v4.97c0,3.13-1.37,4.42-4.14,4.41v-2.73c.94,0,1.42-.38,1.42-1.69v-2.25h-3.18c-.1,2.62-.41,4.19-1.42,6.66l-2.62-.76c1.34-3.71,1.37-4.74,1.37-9.99h-1.36Zm2.73-6.71v3.99h4.49v-3.98h-4.49Zm11.46-1.36h2.73v14.41c0,3.13-1.37,4.42-4.15,4.41h-2.07v-2.73h2.07c.93,0,1.41-.38,1.41-1.69V9.6Zm-1,1.36v13.15h-2.48V10.96h2.48Z"/></g><path class="e" d="M593.76,13.68c-1.77-2.78-.52-5.06,2.78-5.06h19.33c3.3,0,4.55,2.28,2.78,5.06l-9.22,14.49c-1.77,2.78-4.67,2.78-6.44,0l-9.22-14.49Z"/><path class="e" d="M631.95,13.68c-1.77-2.78-.52-5.06,2.78-5.06h19.33c3.3,0,4.55,2.28,2.78,5.06l-9.22,14.49c-1.77,2.78-4.67,2.78-6.44,0l-9.22-14.49Z"/><path class="e" d="M3.22,13.68c-1.77-2.78-.52-5.06,2.78-5.06H25.33c3.3,0,4.55,2.28,2.78,5.06l-9.22,14.49c-1.77,2.78-4.67,2.78-6.44,0L3.22,13.68Z"/><path class="e" d="M41.41,13.68c-1.77-2.78-.52-5.06,2.78-5.06h19.33c3.3,0,4.55,2.28,2.78,5.06l-9.22,14.49c-1.77,2.78-4.67,2.78-6.44,0l-9.22-14.49Z"/></g></g></svg>