<?xml version="1.0" encoding="UTF-8"?><svg xmlns="http://www.w3.org/2000/svg" viewBox="0 0 137.07 113.93"><defs><style>.d{fill:#175692;}.e{fill:#68bed5;}</style></defs><g id="a"/><g id="b"><g id="c"><g><path class="e" d="M135.51,64.16c-5.03-1.48,.54-7.53,.87-9.96,.26-1.89-1.04-5.04-2.87-6.99l-2.88-3.06c-1.84-1.95-4.51-4.39-5.95-5.42-1.43-1.03-2.23-2.86-1.77-4.08s1.47-4.31,2.24-6.87l1.13-3.76c.77-2.57,1.23-6.17,1.03-8.01-.34-2.98-1.87-5.45-2.15-8.44-.06-.7-.22-1.51-.86-1.8-.39-.18-.85-.1-1.27-.02-3.85,.77-7.68,1.52-11.55,2.17-1.58,.27-3.59,.02-5.42-.57l-1,3.75c-.4,1.5-1.71,3.51-2.92,4.48l-2.46,1.98c-1.21,.97-3.46,1.71-5,1.63l-17.3-.8c-1.55-.07-3.96,.4-5.37,1.05l-10.67,4.92c-1.41,.65-3.56,1.95-4.78,2.9l-2.23,1.72c-1.22,.95-3.45,2.04-4.95,2.43l-2.14,.56c-1.5,.39-3.42-.35-4.27-1.64l-.2-.31c-.85-1.29-2.82-2.35-4.36-2.35h-5.64c-1.55,0-3.29,1.17-3.87,2.61l-.77,1.92c-.58,1.43-2.29,2.35-3.81,2.04l-3.2-.66c-1.52-.31-3.69,.28-4.84,1.32l-10.07,9.12c.36,.78,.64,1.57,.74,2.25l2.48,17.16c.22,1.53,1.67,2.89,3.21,3.02l12.34,1.03c1.54,.13,3.92,.83,5.29,1.55l4.6,2.44c1.37,.73,3.69,.95,5.17,.49l2.4-.74c1.48-.45,3.92-.53,5.42-.16l4.4,1.07c1.5,.36,2.9,1.92,3.1,3.45l1.66,12.66c.2,1.53,1.62,2.99,3.14,3.23l7.6,1.21c1.53,.24,2.52,1.68,2.19,3.19l-.74,3.47c-.32,1.51-.16,3.95,.35,5.4l.03,.08c.52,1.46,2.1,3.15,3.53,3.76l12.46,5.34,.7-1.18c1.38-2.3,2.82-5.31,3.21-6.69s1.54-2.66,2.57-2.84c1.03-.18,2.52-1.43,3.31-2.77,.79-1.34,1.44-2.89,1.44-3.44s1.11-1.92,2.47-3.04c1.36-1.12,3.53-2.23,4.81-2.47s4.14-1.69,6.34-3.23l1.96-1.37c2.2-1.53,5.31-4.55,6.91-6.7l.05-.07c1.6-2.15,4.76-5.1,7.01-6.55l6.11-3.94c2.25-1.45,4.29-3.15,4.53-3.78,.24-.63-.44-1.39-1.5-1.7Z"/><g><polygon class="d" points="22.84 0 26.16 18.27 13.7 4.98 22.84 0"/><polygon class="d" points="5.33 11.42 17.48 25.46 0 20.35 5.33 11.42"/></g></g></g></g></svg>